<?xml version="1.0" encoding="us-ascii" standalone="no"?><svg xmlns="http://www.w3.org/2000/svg" xmlns:xlink="http://www.w3.org/1999/xlink" contentStyleType="text/css" height="1009px" preserveAspectRatio="none" style="width:1111px;height:1009px;background:#FFFFFF;" version="1.1" viewBox="0 0 1111 1009" width="1111px" zoomAndPan="magnify"><defs/><g><g id="Raw"><rect fill="#F1F1F1" height="58.1358" rx="12.5" ry="12.5" style="stroke:#181818;stroke-width:0.5;" width="87" x="586.65" y="87"/><line style="stroke:#181818;stroke-width:0.5;" x1="586.65" x2="673.65" y1="135.1358" y2="135.1358"/><text fill="#000000" font-family="sans-serif" font-size="14" lengthAdjust="spacing" textLength="55" x="602.65" y="106.9659">CORPUS</text><text fill="#000000" font-family="sans-serif" font-size="14" lengthAdjust="spacing" textLength="67" x="596.65" y="126.0339">ORIGINAL</text></g><g id="Unified"><rect fill="#F1F1F1" height="58.1358" rx="12.5" ry="12.5" style="stroke:#181818;stroke-width:0.5;" width="97" x="318.65" y="242.13"/><line style="stroke:#181818;stroke-width:0.5;" x1="318.65" x2="415.65" y1="290.2658" y2="290.2658"/><text fill="#000000" font-family="sans-serif" font-size="14" lengthAdjust="spacing" textLength="55" x="339.65" y="262.0959">CORPUS</text><text fill="#000000" font-family="sans-serif" font-size="14" lengthAdjust="spacing" textLength="77" x="328.65" y="281.1639">UNIFICADO</text></g><g id="Clean"><rect fill="#F1F1F1" height="58.1358" rx="12.5" ry="12.5" style="stroke:#181818;stroke-width:0.5;" width="75" x="179.65" y="397.27"/><line style="stroke:#181818;stroke-width:0.5;" x1="179.65" x2="254.65" y1="445.4058" y2="445.4058"/><text fill="#000000" font-family="sans-serif" font-size="14" lengthAdjust="spacing" textLength="55" x="189.65" y="417.2359">CORPUS</text><text fill="#000000" font-family="sans-serif" font-size="14" lengthAdjust="spacing" textLength="49" x="192.65" y="436.3039">LIMPIO</text></g><g id="Terms"><rect fill="#F1F1F1" height="58.1358" rx="12.5" ry="12.5" style="stroke:#181818;stroke-width:0.5;" width="96" x="264.15" y="552.4"/><line style="stroke:#181818;stroke-width:0.5;" x1="264.15" x2="360.15" y1="600.5358" y2="600.5358"/><text fill="#000000" font-family="sans-serif" font-size="14" lengthAdjust="spacing" textLength="73" x="275.65" y="572.3659">T&#201;RMINOS</text><text fill="#000000" font-family="sans-serif" font-size="14" lengthAdjust="spacing" textLength="76" x="274.15" y="591.4339">EXTRA&#205;DOS</text></g><g id="Draft"><rect fill="#F1F1F1" height="58.1358" rx="12.5" ry="12.5" style="stroke:#181818;stroke-width:0.5;" width="104" x="521.15" y="707.54"/><line style="stroke:#181818;stroke-width:0.5;" x1="521.15" x2="625.15" y1="755.6758" y2="755.6758"/><text fill="#000000" font-family="sans-serif" font-size="14" lengthAdjust="spacing" textLength="76" x="535.15" y="727.5059">EJERCICIOS</text><text fill="#000000" font-family="sans-serif" font-size="14" lengthAdjust="spacing" textLength="84" x="531.15" y="746.5739">GENERADOS</text></g><g id="Published"><rect fill="#F1F1F1" height="58.1358" rx="12.5" ry="12.5" style="stroke:#181818;stroke-width:0.5;" width="97" x="524.65" y="862.67"/><line style="stroke:#181818;stroke-width:0.5;" x1="524.65" x2="621.65" y1="910.8058" y2="910.8058"/><text fill="#000000" font-family="sans-serif" font-size="14" lengthAdjust="spacing" textLength="76" x="535.15" y="882.6359">EJERCICIOS</text><text fill="#000000" font-family="sans-serif" font-size="14" lengthAdjust="spacing" textLength="77" x="534.65" y="901.7039">VALIDADOS</text></g><ellipse cx="630.15" cy="16" fill="#222222" rx="10" ry="10" style="stroke:#222222;stroke-width:1.0;"/><ellipse cx="573.15" cy="992.81" fill="none" rx="11" ry="11" style="stroke:#222222;stroke-width:1.0;"/><ellipse cx="573.15" cy="992.81" fill="#222222" rx="6" ry="6" style="stroke:#222222;stroke-width:1.0;"/><!--link *start* to Raw--><g id="link_*start*_Raw"><path d="M630.15,26.4 C630.15,40.11 630.15,60.17 630.15,80.5 " fill="none" id="*start*-to-Raw" style="stroke:#181818;stroke-width:1.0;"/><polygon fill="#181818" points="630.15,86.5,634.15,77.5,630.15,81.5,626.15,77.5,630.15,86.5" style="stroke:#181818;stroke-width:1.0;"/></g><!--link Raw to Unified--><g id="link_Raw_Unified"><path d="M586.17,120.15 C517.94,125.96 391.54,141.12 364.15,175.13 C349.34,193.52 350.5476,215.2135 355.7876,235.9135 " fill="none" id="Raw-to-Unified" style="stroke:#181818;stroke-width:1.0;"/><polygon fill="#181818" points="357.26,241.73,358.9291,232.0236,356.033,236.8829,351.1737,233.9868,357.26,241.73" style="stroke:#181818;stroke-width:1.0;"/><text fill="#000000" font-family="sans-serif" font-size="13" lengthAdjust="spacing" textLength="118" x="416.65" y="190.027">preprocesamiento()</text><text fill="#000000" font-family="sans-serif" font-size="13" lengthAdjust="spacing" textLength="221" x="365.15" y="207.733">unificar formatos, encodings, fuentes</text></g><!--link Unified to Raw--><g id="link_Unified_Raw"><path d="M415.75,269.77 C465.44,266.81 542.12,254.93 591.15,212.13 C610.64,195.12 619.2138,172.7247 624.1538,151.4347 " fill="none" id="Unified-to-Raw" style="stroke:#181818;stroke-width:1.0;"/><polygon fill="#181818" points="625.51,145.59,619.5793,153.453,624.3799,150.4606,627.3722,155.2612,625.51,145.59" style="stroke:#181818;stroke-width:1.0;"/><text fill="#000000" font-family="sans-serif" font-size="13" lengthAdjust="spacing" textLength="118" x="655.85" y="190.027">preprocesamiento()</text><text fill="#000000" font-family="sans-serif" font-size="13" lengthAdjust="spacing" textLength="196" x="616.85" y="207.733">falta material, corpus insuficiente</text></g><!--link Unified to Clean--><g id="link_Unified_Clean"><path d="M318.3,276.62 C253.48,283.6 144.4,299.66 120.15,330.27 C109.94,343.16 112.04,352.96 120.15,367.27 C132.83,389.63 152.4057,402.0023 173.8957,411.0023 " fill="none" id="Unified-to-Clean" style="stroke:#181818;stroke-width:1.0;"/><polygon fill="#181818" points="179.43,413.32,172.6738,406.1539,174.8181,411.3885,169.5834,413.5329,179.43,413.32" style="stroke:#181818;stroke-width:1.0;"/><text fill="#000000" font-family="sans-serif" font-size="13" lengthAdjust="spacing" textLength="42" x="195.65" y="345.167">regex()</text><text fill="#000000" font-family="sans-serif" font-size="13" lengthAdjust="spacing" textLength="191" x="121.15" y="362.873">limpiar metadatos, URLs y ruido</text></g><!--link Clean to Unified--><g id="link_Clean_Unified"><path d="M254.78,409.74 C275.15,399.88 299.65,385.52 317.15,367.27 C335.48,348.15 346.6035,326.5495 354.8835,306.1495 " fill="none" id="Clean-to-Unified" style="stroke:#181818;stroke-width:1.0;"/><polygon fill="#181818" points="357.14,300.59,350.0489,307.4249,355.2596,305.2229,357.4616,310.4336,357.14,300.59" style="stroke:#181818;stroke-width:1.0;"/><text fill="#000000" font-family="sans-serif" font-size="13" lengthAdjust="spacing" textLength="42" x="408.53" y="345.167">regex()</text><text fill="#000000" font-family="sans-serif" font-size="13" lengthAdjust="spacing" textLength="172" x="343.53" y="362.873">ruido residual &#8212; otra pasada</text></g><!--link Clean to Terms--><g id="link_Clean_Terms"><path d="M179.38,433.28 C117.69,444.56 6,472.53 46.15,522.4 C72.95,555.67 188.5331,570.3845 257.6831,576.4645 " fill="none" id="Clean-to-Terms" style="stroke:#181818;stroke-width:1.0;"/><polygon fill="#181818" points="263.66,576.99,255.0449,572.2171,258.6792,576.5521,254.3442,580.1863,263.66,576.99" style="stroke:#181818;stroke-width:1.0;"/><text fill="#000000" font-family="sans-serif" font-size="13" lengthAdjust="spacing" textLength="27" x="144.15" y="500.297">pln()</text><text fill="#000000" font-family="sans-serif" font-size="13" lengthAdjust="spacing" textLength="221" x="47.15" y="518.003">extraer lemas, entidades y categor&#237;as</text></g><!--link Terms to Clean--><g id="link_Terms_Clean"><path d="M303.65,552.06 C297.04,532.41 286.71,506.17 273.15,485.4 C266.34,474.96 261.6866,469.068 253.0466,460.198 " fill="none" id="Terms-to-Clean" style="stroke:#181818;stroke-width:1.0;"/><polygon fill="#181818" points="248.86,455.9,252.2745,465.138,252.3488,459.4817,258.0052,459.556,248.86,455.9" style="stroke:#181818;stroke-width:1.0;"/><text fill="#000000" font-family="sans-serif" font-size="13" lengthAdjust="spacing" textLength="27" x="386.98" y="500.297">pln()</text><text fill="#000000" font-family="sans-serif" font-size="13" lengthAdjust="spacing" textLength="216" x="292.48" y="518.003">corpus a&#250;n sucio, resultados in&#250;tiles</text></g><!--link Terms to Unified--><g id="link_Terms_Unified"><path d="M360.37,573.4 C414.62,564.36 497.75,546.9 517.15,522.4 C613.13,401.24 549.42,366.55 524.15,330.27 C499.99,295.57 458.5096,282.4664 422.0796,276.8364 " fill="none" id="Terms-to-Unified" style="stroke:#181818;stroke-width:1.0;"/><polygon fill="#181818" points="416.15,275.92,424.4335,281.2476,421.0913,276.6836,425.6553,273.3415,416.15,275.92" style="stroke:#181818;stroke-width:1.0;"/><text fill="#000000" font-family="sans-serif" font-size="13" lengthAdjust="spacing" textLength="27" x="674.36" y="422.727">pln()</text><text fill="#000000" font-family="sans-serif" font-size="13" lengthAdjust="spacing" textLength="237" x="569.36" y="440.433">dominio no reconocido, cambiar corpus</text></g><!--link Terms to Draft--><g id="link_Terms_Draft"><path d="M299.73,610.91 C292.81,631.59 288.26,659.1 303.15,677.54 C329.97,710.73 444.0524,725.3223 514.7224,731.4423 " fill="none" id="Terms-to-Draft" style="stroke:#181818;stroke-width:1.0;"/><polygon fill="#181818" points="520.7,731.96,512.0787,727.1984,515.7186,731.5286,511.3885,735.1686,520.7,731.96" style="stroke:#181818;stroke-width:1.0;"/><text fill="#000000" font-family="sans-serif" font-size="13" lengthAdjust="spacing" textLength="88" x="372.65" y="655.437">ia_generativa()</text><text fill="#000000" font-family="sans-serif" font-size="13" lengthAdjust="spacing" textLength="225" x="304.15" y="673.143">generar ejercicios a partir de t&#233;rminos</text></g><!--link Draft to Terms--><g id="link_Draft_Terms"><path d="M568.5,707.09 C563.55,685.81 553.62,657.57 534.15,640.54 C485.58,598.05 415.5685,586.452 366.3085,583.392 " fill="none" id="Draft-to-Terms" style="stroke:#181818;stroke-width:1.0;"/><polygon fill="#181818" points="360.32,583.02,369.0547,587.5703,365.3104,583.33,369.5507,579.5857,360.32,583.02" style="stroke:#181818;stroke-width:1.0;"/><text fill="#000000" font-family="sans-serif" font-size="13" lengthAdjust="spacing" textLength="88" x="647.84" y="655.437">ia_generativa()</text><text fill="#000000" font-family="sans-serif" font-size="13" lengthAdjust="spacing" textLength="264" x="559.84" y="673.143">alucinaciones &#8212; revisar t&#233;rminos de entrada</text></g><!--link Draft to Draft--><g id="link_Draft_Draft"><path d="M625.39,722.08 C644.5,721.69 660.15,726.53 660.15,736.61 C660.15,746.68 650.4988,751.6424 631.3888,751.2524 " fill="none" id="Draft-to-Draft" style="stroke:#181818;stroke-width:1.0;"/><polygon fill="#181818" points="625.39,751.13,634.3065,755.3128,630.389,751.232,634.4697,747.3145,625.39,751.13" style="stroke:#181818;stroke-width:1.0;"/><text fill="#000000" font-family="sans-serif" font-size="13" lengthAdjust="spacing" textLength="88" x="694.15" y="733.007">ia_generativa()</text><text fill="#000000" font-family="sans-serif" font-size="13" lengthAdjust="spacing" textLength="144" x="666.15" y="750.713">refinamiento de prompt</text></g><!--link Draft to Raw--><g id="link_Draft_Raw"><path d="M625.57,730.14 C692.55,722.13 803.42,705.08 833.15,677.54 C865.56,647.52 862.15,626.64 862.15,582.47 C862.15,270.2 862.15,270.2 862.15,270.2 C862.15,224.36 856.22,205.81 822.15,175.13 C780.88,137.96 722.4621,125.2436 679.8021,120.4236 " fill="none" id="Draft-to-Raw" style="stroke:#181818;stroke-width:1.0;"/><polygon fill="#181818" points="673.84,119.75,682.334,124.7352,678.8084,120.3114,683.2322,116.7857,673.84,119.75" style="stroke:#181818;stroke-width:1.0;"/><text fill="#000000" font-family="sans-serif" font-size="13" lengthAdjust="spacing" textLength="124" x="921.15" y="422.727">validacion_humana()</text><text fill="#000000" font-family="sans-serif" font-size="13" lengthAdjust="spacing" textLength="240" x="863.15" y="440.433">corpus mal seleccionado desde el origen</text></g><!--link Draft to Published--><g id="link_Draft_Published"><path d="M520.8,755.31 C502.38,764.35 483.67,777.41 473.15,795.67 C464.95,809.93 464.95,818.42 473.15,832.67 C484.32,852.07 499.2918,863.0551 518.7718,872.1351 " fill="none" id="Draft-to-Published" style="stroke:#181818;stroke-width:1.0;"/><polygon fill="#181818" points="524.21,874.67,517.7426,867.2422,519.6781,872.5576,514.3627,874.4932,524.21,874.67" style="stroke:#181818;stroke-width:1.0;"/><text fill="#000000" font-family="sans-serif" font-size="13" lengthAdjust="spacing" textLength="124" x="488.65" y="810.567">validacion_humana()</text><text fill="#000000" font-family="sans-serif" font-size="13" lengthAdjust="spacing" textLength="153" x="474.15" y="828.273">corregir, refinar y publicar</text></g><!--link Published to Draft--><g id="link_Published_Draft"><path d="M610.95,862.41 C619.53,853.89 627.49,843.81 632.15,832.67 C638.51,817.51 638.51,810.84 632.15,795.67 C627.49,784.54 623.7875,778.6877 615.2075,770.1677 " fill="none" id="Published-to-Draft" style="stroke:#181818;stroke-width:1.0;"/><polygon fill="#181818" points="610.95,765.94,614.5178,775.1199,614.4979,769.4631,620.1547,769.4433,610.95,765.94" style="stroke:#181818;stroke-width:1.0;"/><text fill="#000000" font-family="sans-serif" font-size="13" lengthAdjust="spacing" textLength="124" x="679.42" y="810.567">validacion_humana()</text><text fill="#000000" font-family="sans-serif" font-size="13" lengthAdjust="spacing" textLength="207" x="637.92" y="828.273">output insatisfactorio &#8212; regenerar</text></g><!--link Published to *end*--><g id="link_Published_*end*"><path d="M573.15,921.13 C573.15,941.26 573.15,961.12 573.15,975.31 " fill="none" id="Published-to-*end*" style="stroke:#181818;stroke-width:1.0;"/><polygon fill="#181818" points="573.15,981.31,577.15,972.31,573.15,976.31,569.15,972.31,573.15,981.31" style="stroke:#181818;stroke-width:1.0;"/></g><!--SRC=[VPF1RjD048Rl-nIhdW2rBy01AKf2PPGcaPiW98gggJrE5wrthTdTK6vSEN3Z9JZm0htwJNWIPkmaTKhB9Ogr_tmp_p-x8K94VJ9UvClrvPLRvDbvDX_DJZG4dSCN5OxFr_FiRJOUJHQTOErCPR1yB9fb5ykiLumjWjkVhzhl-KKsNx1a-c6LZzeVayLb9riXrM4lcxwRvkDid8dkV3gVvgEzR49GnQTaxqUpR7AGBTEDDU6M1rCVNttIPsTlEYkAVxgFtTZwjMu86_851gWDkkXVlBnoIKuB85rvgY7wSAhH5RuqRiD_gyGw36hFsC6VOLLW8sYc81cmfxhmrAIWZGk9UuWCrH6goujXX1ky4u8rTMDuc1eZbFqqwtmMz5TDoPHUzGN7hWx5dOG_WoaJMFtdsq_j8u5k831C3Ogx1OW9wwGGxrY6f2tMqFcFfeGIfMt1PZQUsjyGL5yrd7jNl_C9xRtJ8HN6dyeKYSCelTXlxwEnE0GCTj8ZIbyRPxnsOg3mpXViXHE4-aRow3iC0DtTu783rnjqI13D5WJKVv76pqW5Xyu3I08K3UaITMn_4NVoGQaUCOpZ7nXOTkE0AOxJa409joOm_i0HA0T6al03yTdn22i6zbT6IlaErKqSLFQtQmkMLo1zhszJ3Gu6CTUysu0M2pdcX1aJP0YhFHdkDdHsU1l_OVBzCIGRayc8Tzv84Jy9zL0zzFGanwVOf2XNdQs62eh8m_XTPBkTg4T0VgtgBm00]--></g></svg>