<?xml version="1.0" encoding="us-ascii" standalone="no"?><svg xmlns="http://www.w3.org/2000/svg" xmlns:xlink="http://www.w3.org/1999/xlink" contentStyleType="text/css" height="452px" preserveAspectRatio="none" style="width:1335px;height:452px;background:#FFFFFF;" version="1.1" viewBox="0 0 1335 452" width="1335px" zoomAndPan="magnify"><defs/><g><!--cluster Otros--><g id="cluster_Otros"><path d="M179,342.33 L773,342.33 A12.5,12.5 0 0 1 785.5,354.83 L785.5,366.3979 L166.5,366.3979 L166.5,354.83 A12.5,12.5 0 0 1 179,342.33 " fill="#F1F1F1" style="stroke:#F1F1F1;stroke-width:1.0;"/><rect fill="none" height="104" rx="12.5" ry="12.5" style="stroke:#181818;stroke-width:0.5;" width="619" x="166.5" y="342.33"/><line style="stroke:#181818;stroke-width:0.5;" x1="166.5" x2="785.5" y1="366.3979" y2="366.3979"/><text fill="#000000" font-family="sans-serif" font-size="14" lengthAdjust="spacing" textLength="37" x="457.5" y="361.2959">Otros</text></g><g id="Otros.RDH"><rect fill="#F1F1F1" height="50" rx="12.5" ry="12.5" style="stroke:#181818;stroke-width:0.5;" width="194" x="421.5" y="380.33"/><line style="stroke:#181818;stroke-width:0.5;" x1="421.5" x2="615.5" y1="409.3979" y2="409.3979"/><text fill="#000000" font-family="sans-serif" font-size="14" lengthAdjust="spacing" textLength="174" x="431.5" y="400.2959">Reconocimiento del habla</text></g><g id="Otros.SDV"><rect fill="#F1F1F1" height="50" rx="12.5" ry="12.5" style="stroke:#181818;stroke-width:0.5;" width="119" x="650" y="380.33"/><line style="stroke:#181818;stroke-width:0.5;" x1="650" x2="769" y1="409.3979" y2="409.3979"/><text fill="#000000" font-family="sans-serif" font-size="14" lengthAdjust="spacing" textLength="99" x="660" y="400.2959">S&#237;ntesis de voz</text></g><g id="Otros.LXC"><rect fill="#F1F1F1" height="50" rx="12.5" ry="12.5" style="stroke:#181818;stroke-width:0.5;" width="204" x="182.5" y="380.33"/><line style="stroke:#181818;stroke-width:0.5;" x1="182.5" x2="386.5" y1="409.3979" y2="409.3979"/><text fill="#000000" font-family="sans-serif" font-size="14" lengthAdjust="spacing" textLength="184" x="192.5" y="400.2959">Lexicograf&#237;a computacional</text></g><g id="IL"><rect fill="#F1F1F1" height="50" rx="12.5" ry="12.5" style="stroke:#181818;stroke-width:0.5;" width="163" x="437" y="7"/><line style="stroke:#181818;stroke-width:0.5;" x1="437" x2="600" y1="36.0679" y2="36.0679"/><text fill="#000000" font-family="sans-serif" font-size="14" lengthAdjust="spacing" textLength="143" x="447" y="26.9659">IngenieriaLing&#252;&#236;stica</text></g><path d="M19.5,164.06 L251.5,164.06 A12.5,12.5 0 0 1 264,176.56 L264,193.1279 L7,193.1279 L7,176.56 A12.5,12.5 0 0 1 19.5,164.06 " fill="#F1F1F1" style="stroke:#F1F1F1;stroke-width:1.0;"/><rect fill="none" height="109.2038" rx="12.5" ry="12.5" style="stroke:#181818;stroke-width:0.5;" width="257" x="7" y="164.06"/><line style="stroke:#181818;stroke-width:0.5;" x1="7" x2="264" y1="193.1279" y2="193.1279"/><text fill="#000000" font-family="sans-serif" font-size="14" lengthAdjust="spacing" textLength="153" x="59" y="184.0259">ProcesamientoDeTexto</text><g id="PT.Expresiones\nregulares"><rect fill="#D4EDDA" height="58.1358" rx="12.5" ry="12.5" style="stroke:#181818;stroke-width:0.5;" width="101" x="19" y="205.1279"/><line style="stroke:#181818;stroke-width:0.5;" x1="19" x2="120" y1="253.2638" y2="253.2638"/><text fill="#000000" font-family="sans-serif" font-size="14" lengthAdjust="spacing" textLength="81" x="29" y="225.0939">Expresiones</text><text fill="#000000" font-family="sans-serif" font-size="14" lengthAdjust="spacing" textLength="65" x="37" y="244.1618">regulares</text></g><g id="PT.Normalizaci&#243;n\nde corpus"><rect fill="#D4EDDA" height="58.1358" rx="12.5" ry="12.5" style="stroke:#181818;stroke-width:0.5;" width="117" x="138" y="205.1279"/><line style="stroke:#181818;stroke-width:0.5;" x1="138" x2="255" y1="253.2638" y2="253.2638"/><text fill="#000000" font-family="sans-serif" font-size="14" lengthAdjust="spacing" textLength="97" x="148" y="225.0939">Normalizaci&#243;n</text><text fill="#000000" font-family="sans-serif" font-size="14" lengthAdjust="spacing" textLength="67" x="163" y="244.1618">de corpus</text></g><path d="M311.5,138.53 L725.5,138.53 A12.5,12.5 0 0 1 738,151.03 L738,167.5979 L299,167.5979 L299,151.03 A12.5,12.5 0 0 1 311.5,138.53 " fill="#F1F1F1" style="stroke:#F1F1F1;stroke-width:1.0;"/><rect fill="none" height="160.2717" rx="12.5" ry="12.5" style="stroke:#181818;stroke-width:0.5;" width="439" x="299" y="138.53"/><line style="stroke:#181818;stroke-width:0.5;" x1="299" x2="738" y1="167.5979" y2="167.5979"/><text fill="#000000" font-family="sans-serif" font-size="14" lengthAdjust="spacing" textLength="214" x="411.5" y="158.4959">Generaci&#243;n de lenguaje natural</text><path d="M323.5,179.5979 L716.5,179.5979 A12.5,12.5 0 0 1 729,192.0979 L729,208.6658 L311,208.6658 L311,192.0979 A12.5,12.5 0 0 1 323.5,179.5979 " fill="#D4EDDA" style="stroke:#D4EDDA;stroke-width:1.0;"/><rect fill="none" height="109.2038" rx="12.5" ry="12.5" style="stroke:#181818;stroke-width:0.5;" width="418" x="311" y="179.5979"/><line style="stroke:#181818;stroke-width:0.5;" x1="311" x2="729" y1="208.6658" y2="208.6658"/><text fill="#000000" font-family="sans-serif" font-size="14" lengthAdjust="spacing" textLength="90" x="475" y="199.5639">IA generativa</text><g id="GL.IAG.P"><rect fill="#D4EDDA" height="50" rx="12.5" ry="12.5" style="stroke:#181818;stroke-width:0.5;" width="91" x="323" y="224.7358"/><line style="stroke:#181818;stroke-width:0.5;" x1="323" x2="414" y1="253.8038" y2="253.8038"/><text fill="#000000" font-family="sans-serif" font-size="14" lengthAdjust="spacing" textLength="71" x="333" y="244.7018">Prompting</text></g><g id="GL.IAG.T"><rect fill="#D4EDDA" height="58.1358" rx="12.5" ry="12.5" style="stroke:#181818;stroke-width:0.5;" width="109" x="432" y="220.6658"/><line style="stroke:#181818;stroke-width:0.5;" x1="432" x2="541" y1="268.8017" y2="268.8017"/><text fill="#000000" font-family="sans-serif" font-size="14" lengthAdjust="spacing" textLength="75" x="449" y="240.6318">Traducci&#243;n</text><text fill="#000000" font-family="sans-serif" font-size="14" lengthAdjust="spacing" textLength="89" x="442" y="259.6997">y localizaci&#243;n</text></g><g id="GL.IAG.CCL"><rect fill="#D4EDDA" height="58.1358" rx="12.5" ry="12.5" style="stroke:#181818;stroke-width:0.5;" width="161" x="559" y="220.6658"/><line style="stroke:#181818;stroke-width:0.5;" x1="559" x2="720" y1="268.8017" y2="268.8017"/><text fill="#000000" font-family="sans-serif" font-size="14" lengthAdjust="spacing" textLength="80" x="599.5" y="240.6318">Creaci&#243;n de</text><text fill="#000000" font-family="sans-serif" font-size="14" lengthAdjust="spacing" textLength="141" x="569" y="259.6997">contenido ling&#252;&#237;stico</text></g><path d="M785.5,117 L1309.5,117 A12.5,12.5 0 0 1 1322,129.5 L1322,146.0679 L773,146.0679 L773,129.5 A12.5,12.5 0 0 1 785.5,117 " fill="#F1F1F1" style="stroke:#F1F1F1;stroke-width:1.0;"/><rect fill="none" height="203.3338" rx="12.5" ry="12.5" style="stroke:#181818;stroke-width:0.5;" width="549" x="773" y="117"/><line style="stroke:#181818;stroke-width:0.5;" x1="773" x2="1322" y1="146.0679" y2="146.0679"/><text fill="#000000" font-family="sans-serif" font-size="14" lengthAdjust="spacing" textLength="236" x="929.5" y="136.9659">Procesamiento de lenguaje natural</text><g id="PL.TOK"><rect fill="#D4EDDA" height="50" rx="12.5" ry="12.5" style="stroke:#181818;stroke-width:0.5;" width="107" x="805.5" y="162.1379"/><line style="stroke:#181818;stroke-width:0.5;" x1="805.5" x2="912.5" y1="191.2058" y2="191.2058"/><text fill="#000000" font-family="sans-serif" font-size="14" lengthAdjust="spacing" textLength="87" x="815.5" y="182.1039">Tokenizaci&#243;n</text></g><g id="PL.POS"><rect fill="#D4EDDA" height="58.1358" rx="12.5" ry="12.5" style="stroke:#181818;stroke-width:0.5;" width="180" x="946" y="158.0679"/><line style="stroke:#181818;stroke-width:0.5;" x1="946" x2="1126" y1="206.2038" y2="206.2038"/><text fill="#000000" font-family="sans-serif" font-size="14" lengthAdjust="spacing" textLength="160" x="956" y="178.0339">An&#225;lisis morfosint&#225;ctico</text><text fill="#000000" font-family="sans-serif" font-size="14" lengthAdjust="spacing" textLength="92" x="990" y="197.1018">(POS tagging)</text></g><g id="PL.NER"><rect fill="#D4EDDA" height="58.1358" rx="12.5" ry="12.5" style="stroke:#181818;stroke-width:0.5;" width="148" x="785" y="252.1979"/><line style="stroke:#181818;stroke-width:0.5;" x1="785" x2="933" y1="300.3338" y2="300.3338"/><text fill="#000000" font-family="sans-serif" font-size="14" lengthAdjust="spacing" textLength="128" x="795" y="272.1639">Reconocimiento de</text><text fill="#000000" font-family="sans-serif" font-size="14" lengthAdjust="spacing" textLength="107" x="805.5" y="291.2318">entidades (NER)</text></g><g id="PL.TERM"><rect fill="#D4EDDA" height="50" rx="12.5" ry="12.5" style="stroke:#181818;stroke-width:0.5;" width="169" x="951.5" y="256.2679"/><line style="stroke:#181818;stroke-width:0.5;" x1="951.5" x2="1120.5" y1="285.3358" y2="285.3358"/><text fill="#000000" font-family="sans-serif" font-size="14" lengthAdjust="spacing" textLength="149" x="961.5" y="276.2339">An&#225;lisis terminol&#243;gico</text></g><g id="PL.SIM"><rect fill="#D4EDDA" height="50" rx="12.5" ry="12.5" style="stroke:#181818;stroke-width:0.5;" width="153" x="1149.5" y="162.1379"/><line style="stroke:#181818;stroke-width:0.5;" x1="1149.5" x2="1302.5" y1="191.2058" y2="191.2058"/><text fill="#000000" font-family="sans-serif" font-size="14" lengthAdjust="spacing" textLength="133" x="1159.5" y="182.1039">Similitud sem&#225;ntica</text></g><g id="PL.TA"><rect fill="#D4EDDA" height="50" rx="12.5" ry="12.5" style="stroke:#181818;stroke-width:0.5;" width="174" x="1139" y="256.2679"/><line style="stroke:#181818;stroke-width:0.5;" x1="1139" x2="1313" y1="285.3358" y2="285.3358"/><text fill="#000000" font-family="sans-serif" font-size="14" lengthAdjust="spacing" textLength="154" x="1149" y="276.2339">Traducci&#243;n autom&#225;tica</text></g><!--link TOK to NER--><!--link POS to TERM--><!--link SIM to TA--><!--link IL to PT--><g id="link_IL_PT"><path d="M436.77,56.11 C390.05,70.75 331.07,91.68 281.5,117 C255.59,130.23 233.8183,143.9591 210.4783,160.3691 " fill="none" id="IL-to-PT" style="stroke:#181818;stroke-width:1.0;"/><polygon fill="#181818" points="205.57,163.82,215.233,161.9158,209.6602,160.9442,210.6318,155.3714,205.57,163.82" style="stroke:#181818;stroke-width:1.0;"/></g><!--link IL to GL--><g id="link_IL_GL"><path d="M518.5,57.14 C518.5,77.86 518.5,102.95 518.5,132.26 " fill="none" id="IL-to-GL" style="stroke:#181818;stroke-width:1.0;"/><polygon fill="#181818" points="518.5,138.26,522.5,129.26,518.5,133.26,514.5,129.26,518.5,138.26" style="stroke:#181818;stroke-width:1.0;"/></g><!--link IL to PL--><g id="link_IL_PL"><path d="M588.47,57.42 C636.7,74.26 698.5655,95.8519 767.0055,119.7519 " fill="none" id="IL-to-PL" style="stroke:#181818;stroke-width:1.0;"/><polygon fill="#181818" points="772.67,121.73,765.4919,114.9865,767.9495,120.0816,762.8544,122.5392,772.67,121.73" style="stroke:#181818;stroke-width:1.0;"/></g><!--link GL to RDH--><!--link RDH to SDV--><!--reverse link LXC to RDH--><!--SRC=[TLEzRjim4Dxr50TtIGTldGC8jk4QLMB35ee2LGT6l2XigQD1Ke6R8W_ZlPwoTjEBzIZ9YfJM0WHGf- -Etm_flF08anKLI0gj4ecYelvJ_tPUvM82mi4gWLzHz1ov5hgn9aSdIeNapHnJF7ZJu3Ofuu2V3hWux2qwPGXTHXQBIWl-dW2yanzGIZ74tXfR2gsUHAxg5yf88kJ6xgiX_9N24Wbj2mL6QgIY4jyHIFZA2jsmMIPZDgiOYgRDgyTELxpiXtVO0PvbbdlFPhJQngm7kDGAMUKTxP-WJVwgesbDBxREBFOYCieDUSv06j1j1ASGGMljR9QCXZm3c_7VG2xwiGb-d3cR7xpJYEJwKxz11ugfFchbb8FIs7lZ5Fdwc0TA6LrjrZlmeYYOwVjsF1VU3DWYIpAvwebbn0ibXKG7LxUBRTl9YyjRUxIb8gFhb-BiHRhOthnjsF4cMlbAWiEoFb9_TdUhVx23m41KtZ2-XwTnZ-xzNNjhNBW1bsHfU11tkXsmdN_iETKd3ZI8u4WUpLFBP_xv_3_10qighBYlJu9FUxclF2TYg0ii-J8B92A-VjFfDT-kysgPzBKaYa9oK_drGKc9z8sBx6SKqXWL6zUYuCQedCPHn1TbL0iI-8Mf7HG3xwQe1yN0y2y0]--></g></svg>