<?xml version="1.0" encoding="us-ascii" standalone="no"?><svg xmlns="http://www.w3.org/2000/svg" xmlns:xlink="http://www.w3.org/1999/xlink" contentStyleType="text/css" height="545px" preserveAspectRatio="none" style="width:446px;height:545px;background:#FFFFFF;" version="1.1" viewBox="0 0 446 545" width="446px" zoomAndPan="magnify"><defs/><g><!--class RE--><g id="elem_RE"><rect codeLine="9" fill="#F1F1F1" height="86.0996" id="RE" rx="2.5" ry="2.5" style="stroke:#181818;stroke-width:0.5;" width="180" x="191.5" y="7"/><ellipse cx="246.75" cy="31.0679" fill="#A9DCDF" rx="11" ry="11" style="stroke:#181818;stroke-width:1.0;"/><path d="M241.9219,36.8179 L245.2656,24.6304 L248.4063,24.6304 L251.7813,36.8179 L249.3125,36.8179 L248.5781,33.8023 L245.0625,33.8023 L244.3125,36.8179 L241.9219,36.8179 Z M246.3281,28.771 L245.5781,31.771 L248.0938,31.771 L247.375,28.771 Q247.2344,28.1929 247.1094,27.646 Q246.9844,27.0835 246.8438,26.5054 Q246.7344,27.0835 246.5938,27.646 Q246.4531,28.1929 246.3281,28.771 Z " fill="#000000"/><text fill="#000000" font-family="sans-serif" font-size="14" font-style="italic" lengthAdjust="spacing" textLength="61" x="267.25" y="26.9659">Expresi&#243;n</text><text fill="#000000" font-family="sans-serif" font-size="14" font-style="italic" lengthAdjust="spacing" textLength="49" x="273.25" y="46.0339">Regular</text><line style="stroke:#181818;stroke-width:0.5;" x1="192.5" x2="370.5" y1="55.1358" y2="55.1358"/><text fill="#000000" font-family="sans-serif" font-size="11" lengthAdjust="spacing" textLength="168" x="197.5" y="70.8947">Patr&#243;n de b&#250;squeda compuesto</text><text fill="#000000" font-family="sans-serif" font-size="11" lengthAdjust="spacing" textLength="154" x="197.5" y="85.8766">por literales y metacaracteres</text></g><!--class LIT--><g id="elem_LIT"><rect codeLine="14" fill="#F1F1F1" height="69.9638" id="LIT" rx="2.5" ry="2.5" style="stroke:#181818;stroke-width:0.5;" width="171" x="104" y="153.1"/><ellipse cx="158.25" cy="169.1" fill="#A9DCDF" rx="11" ry="11" style="stroke:#181818;stroke-width:1.0;"/><path d="M153.4219,174.85 L156.7656,162.6625 L159.9063,162.6625 L163.2813,174.85 L160.8125,174.85 L160.0781,171.8344 L156.5625,171.8344 L155.8125,174.85 L153.4219,174.85 Z M157.8281,166.8031 L157.0781,169.8031 L159.5938,169.8031 L158.875,166.8031 Q158.7344,166.225 158.6094,165.6781 Q158.4844,165.1156 158.3438,164.5375 Q158.2344,165.1156 158.0938,165.6781 Q157.9531,166.225 157.8281,166.8031 Z " fill="#000000"/><text fill="#000000" font-family="sans-serif" font-size="14" font-style="italic" lengthAdjust="spacing" textLength="54" x="178.75" y="174.532">Literales</text><line style="stroke:#181818;stroke-width:0.5;" x1="105" x2="274" y1="185.1" y2="185.1"/><text fill="#000000" font-family="sans-serif" font-size="11" lengthAdjust="spacing" textLength="159" x="110" y="200.8589">Caracteres que se representan</text><text fill="#000000" font-family="sans-serif" font-size="11" lengthAdjust="spacing" textLength="127" x="110" y="215.8408">a s&#237; mismos en el patr&#243;n</text></g><!--class MET--><g id="elem_MET"><rect codeLine="19" fill="#F1F1F1" height="32" id="MET" rx="2.5" ry="2.5" style="stroke:#181818;stroke-width:0.5;" width="129" x="310" y="172.09"/><ellipse cx="325" cy="188.09" fill="#A9DCDF" rx="11" ry="11" style="stroke:#181818;stroke-width:1.0;"/><path d="M320.1719,193.84 L323.5156,181.6525 L326.6563,181.6525 L330.0313,193.84 L327.5625,193.84 L326.8281,190.8244 L323.3125,190.8244 L322.5625,193.84 L320.1719,193.84 Z M324.5781,185.7931 L323.8281,188.7931 L326.3438,188.7931 L325.625,185.7931 Q325.4844,185.215 325.3594,184.6681 Q325.2344,184.1056 325.0938,183.5275 Q324.9844,184.1056 324.8438,184.6681 Q324.7031,185.215 324.5781,185.7931 Z " fill="#000000"/><text fill="#000000" font-family="sans-serif" font-size="14" font-style="italic" lengthAdjust="spacing" textLength="97" x="339" y="193.522">Metacaracteres</text></g><!--class ALFA--><g id="elem_ALFA"><rect codeLine="21" fill="#F1F1F1" height="59.0679" id="ALFA" rx="2.5" ry="2.5" style="stroke:#181818;stroke-width:0.5;" width="129" x="7" y="283.07"/><ellipse cx="22" cy="299.07" fill="#ADD1B2" rx="11" ry="11" style="stroke:#181818;stroke-width:1.0;"/><path d="M21.4688,305.9919 Q19.7188,305.9919 18.5781,305.2575 Q17.4531,304.5075 16.8906,303.1638 Q16.3438,301.8044 16.3438,300.0075 Q16.3438,297.9763 17,296.5231 Q17.6563,295.07 18.9375,294.2888 Q20.2188,293.5075 22.0938,293.5075 Q22.9844,293.5075 23.6563,293.695 Q24.3281,293.8669 25.0156,294.2106 L24.2031,296.2263 Q23.5781,295.9138 23.0313,295.7888 Q22.5,295.6638 22.0156,295.6638 Q20.8438,295.6638 20.1406,296.195 Q19.4375,296.7263 19.1406,297.6794 Q18.8438,298.6325 18.8438,299.8981 Q18.8438,301.9138 19.5625,302.8825 Q20.2813,303.8356 21.875,303.8356 Q22.4688,303.8356 23.0938,303.6794 Q23.7188,303.5231 24.5469,303.1481 L24.5469,305.3669 Q23.8125,305.6794 23.0156,305.8356 Q22.2344,305.9919 21.4688,305.9919 Z " fill="#000000"/><text fill="#000000" font-family="sans-serif" font-size="14" lengthAdjust="spacing" textLength="97" x="36" y="304.502">Alfanum&#233;ricos</text><line style="stroke:#181818;stroke-width:0.5;" x1="8" x2="135" y1="315.07" y2="315.07"/><text fill="#000000" font-family="monospace" font-size="14" lengthAdjust="spacing" textLength="56" x="13" y="334.0359">hola123</text></g><!--class ESC_META--><g id="elem_ESC_META"><rect codeLine="25" fill="#F1F1F1" height="75.2038" id="ESC_META" rx="2.5" ry="2.5" style="stroke:#181818;stroke-width:0.5;" width="148" x="115.5" y="463.14"/><ellipse cx="135.9" cy="487.2079" fill="#ADD1B2" rx="11" ry="11" style="stroke:#181818;stroke-width:1.0;"/><path d="M135.3688,494.1298 Q133.6188,494.1298 132.4781,493.3954 Q131.3531,492.6454 130.7906,491.3017 Q130.2438,489.9423 130.2438,488.1454 Q130.2438,486.1142 130.9,484.661 Q131.5563,483.2079 132.8375,482.4267 Q134.1188,481.6454 135.9938,481.6454 Q136.8844,481.6454 137.5563,481.8329 Q138.2281,482.0048 138.9156,482.3485 L138.1031,484.3642 Q137.4781,484.0517 136.9313,483.9267 Q136.4,483.8017 135.9156,483.8017 Q134.7438,483.8017 134.0406,484.3329 Q133.3375,484.8642 133.0406,485.8173 Q132.7438,486.7704 132.7438,488.036 Q132.7438,490.0517 133.4625,491.0204 Q134.1813,491.9735 135.775,491.9735 Q136.3688,491.9735 136.9938,491.8173 Q137.6188,491.661 138.4469,491.286 L138.4469,493.5048 Q137.7125,493.8173 136.9156,493.9735 Q136.1344,494.1298 135.3688,494.1298 Z " fill="#000000"/><text fill="#000000" font-family="sans-serif" font-size="14" lengthAdjust="spacing" textLength="104" x="151.1" y="483.1059">Metacaracteres</text><text fill="#000000" font-family="sans-serif" font-size="14" lengthAdjust="spacing" textLength="71" x="167.6" y="502.1739">escapados</text><line style="stroke:#181818;stroke-width:0.5;" x1="116.5" x2="262.5" y1="511.2758" y2="511.2758"/><text fill="#000000" font-family="monospace" font-size="14" lengthAdjust="spacing" textLength="136" x="121.5" y="530.2418">\.&#160;\*&#160;\+&#160;\?&#160;\(&#160;\)</text></g><!--class ESC_SP--><g id="elem_ESC_SP"><rect codeLine="29" fill="#F1F1F1" height="75.2038" id="ESC_SP" rx="2.5" ry="2.5" style="stroke:#181818;stroke-width:0.5;" width="103" x="299" y="463.14"/><ellipse cx="314" cy="487.2079" fill="#ADD1B2" rx="11" ry="11" style="stroke:#181818;stroke-width:1.0;"/><path d="M313.4688,494.1298 Q311.7188,494.1298 310.5781,493.3954 Q309.4531,492.6454 308.8906,491.3017 Q308.3438,489.9423 308.3438,488.1454 Q308.3438,486.1142 309,484.661 Q309.6563,483.2079 310.9375,482.4267 Q312.2188,481.6454 314.0938,481.6454 Q314.9844,481.6454 315.6563,481.8329 Q316.3281,482.0048 317.0156,482.3485 L316.2031,484.3642 Q315.5781,484.0517 315.0313,483.9267 Q314.5,483.8017 314.0156,483.8017 Q312.8438,483.8017 312.1406,484.3329 Q311.4375,484.8642 311.1406,485.8173 Q310.8438,486.7704 310.8438,488.036 Q310.8438,490.0517 311.5625,491.0204 Q312.2813,491.9735 313.875,491.9735 Q314.4688,491.9735 315.0938,491.8173 Q315.7188,491.661 316.5469,491.286 L316.5469,493.5048 Q315.8125,493.8173 315.0156,493.9735 Q314.2344,494.1298 313.4688,494.1298 Z " fill="#000000"/><text fill="#000000" font-family="sans-serif" font-size="14" lengthAdjust="spacing" textLength="58" x="334.5" y="483.1059">Espacios</text><text fill="#000000" font-family="sans-serif" font-size="14" lengthAdjust="spacing" textLength="71" x="328" y="502.1739">escapados</text><line style="stroke:#181818;stroke-width:0.5;" x1="300" x2="401" y1="511.2758" y2="511.2758"/><text fill="#000000" font-family="monospace" font-size="14" lengthAdjust="spacing" textLength="80" x="305" y="530.2418">\&#8203;t&#160;&#160;\n&#160;&#160;\r</text></g><!--reverse link RE to LIT--><g id="link_RE_LIT"><path codeLine="33" d="M242.8105,108.2632 C229.8405,127.4532 224.78,134.93 212.55,153.01 " fill="none" id="RE-backto-LIT" style="stroke:#181818;stroke-width:1.0;"/><polygon fill="none" points="252.89,93.35,237.8395,104.9034,247.7816,111.6231,252.89,93.35" style="stroke:#181818;stroke-width:1.0;"/></g><!--reverse link RE to MET--><g id="link_RE_MET"><path codeLine="34" d="M320.5775,108.2102 C338.8075,134.8802 351.12,152.89 364.03,171.77 " fill="none" id="RE-backto-MET" style="stroke:#181818;stroke-width:1.0;"/><polygon fill="none" points="310.42,93.35,315.6241,111.596,325.5309,104.8243,310.42,93.35" style="stroke:#181818;stroke-width:1.0;"/></g><!--reverse link LIT to ALFA--><g id="link_LIT_ALFA"><path codeLine="36" d="M143.8302,236.5017 C125.8302,255.1817 116.33,265.05 99.25,282.79 " fill="none" id="LIT-backto-ALFA" style="stroke:#181818;stroke-width:1.0;"/><polygon fill="none" points="156.32,223.54,139.5096,232.3384,148.1507,240.6649,156.32,223.54" style="stroke:#181818;stroke-width:1.0;"/></g><!--reverse link LIT to ESC_META--><g id="link_LIT_ESC_META"><path codeLine="37" d="M189.5,241.52 C189.5,300.44 189.5,402.11 189.5,462.75 " fill="none" id="LIT-backto-ESC_META" style="stroke:#181818;stroke-width:1.0;"/><polygon fill="none" points="189.5,223.52,183.5,241.52,195.5,241.52,189.5,223.52" style="stroke:#181818;stroke-width:1.0;"/></g><!--reverse link LIT to ESC_SP--><g id="link_LIT_ESC_SP"><path codeLine="38" d="M215.6233,239.5008 C246.1633,298.4208 299.9,402.11 331.33,462.75 " fill="none" id="LIT-backto-ESC_SP" style="stroke:#181818;stroke-width:1.0;"/><polygon fill="none" points="207.34,223.52,210.2964,242.2619,220.9503,236.7397,207.34,223.52" style="stroke:#181818;stroke-width:1.0;"/></g><!--SRC=[ZPBFQXin4CRlUeh1K1mtk8aJA2Ki3YPieE044-TeABFQSIogVzLe8IR90_NGKswv-iKghHqd3ct8OHQDThwFtoUfop-LzHZGW5QMuj8JUAUNkH5TJVC8qK5GDui8jGeaet9MT1Ug9f0gI4sYNPFnSGc6J4L1l7XAZSoZ68EgcaZdpiPBD0J6MSSU9TLlPxSZZ9RxJ47DXS2AOq0PeLFU-a2iLezsPg_efj4OEe0CLoNS2O1YdkGdBz9XmKqrd60CIG49irezyQ-6QWJfZ6-8eoiEyannaAN3_tfu5z81HGgeYI4dZIWnGr42slLuU4qyVXQrdEFlr- -0dcqD8K424mJAUSb6j1_ZHE3L7p2AZMCW2wJ1h-E_mtYn4wO5lIYlXMXl13eZFKVRcDNleAHR_nwDpqTja8NJE3WwpdwRwLspcIMMwB7U2ClfsO_alHRFPbzIVKwrd-eqrLwgtYkpChyIvVvfCvriJ3x9HTZxTdHut6jNWy7NNjws-HEoMNeTnNs_dqz_ksu3vkjekvndswN-6VFjtdGY_W80]--></g></svg>