<?xml version="1.0" encoding="us-ascii" standalone="no"?><svg xmlns="http://www.w3.org/2000/svg" xmlns:xlink="http://www.w3.org/1999/xlink" contentStyleType="text/css" height="354px" preserveAspectRatio="none" style="width:664px;height:354px;background:#FFFFFF;" version="1.1" viewBox="0 0 664 354" width="664px" zoomAndPan="magnify"><defs/><g><!--class RE--><g id="elem_RE"><rect codeLine="7" fill="#F1F1F1" height="48.1358" id="RE" rx="2.5" ry="2.5" style="stroke:#181818;stroke-width:0.5;" width="93" x="240" y="7"/><ellipse cx="255" cy="31.0679" fill="#A9DCDF" rx="11" ry="11" style="stroke:#181818;stroke-width:1.0;"/><path d="M250.1719,36.8179 L253.5156,24.6304 L256.6563,24.6304 L260.0313,36.8179 L257.5625,36.8179 L256.8281,33.8023 L253.3125,33.8023 L252.5625,36.8179 L250.1719,36.8179 Z M254.5781,28.771 L253.8281,31.771 L256.3438,31.771 L255.625,28.771 Q255.4844,28.1929 255.3594,27.646 Q255.2344,27.0835 255.0938,26.5054 Q254.9844,27.0835 254.8438,27.646 Q254.7031,28.1929 254.5781,28.771 Z " fill="#000000"/><text fill="#000000" font-family="sans-serif" font-size="14" font-style="italic" lengthAdjust="spacing" textLength="61" x="269" y="26.9659">Expresi&#243;n</text><text fill="#000000" font-family="sans-serif" font-size="14" font-style="italic" lengthAdjust="spacing" textLength="49" x="275" y="46.0339">Regular</text></g><!--class LIT--><g id="elem_LIT"><rect codeLine="8" fill="#F1F1F1" height="32" id="LIT" rx="2.5" ry="2.5" style="stroke:#181818;stroke-width:0.5;" width="86" x="172.5" y="115.13"/><ellipse cx="187.5" cy="131.13" fill="#A9DCDF" rx="11" ry="11" style="stroke:#181818;stroke-width:1.0;"/><path d="M182.6719,136.88 L186.0156,124.6925 L189.1563,124.6925 L192.5313,136.88 L190.0625,136.88 L189.3281,133.8644 L185.8125,133.8644 L185.0625,136.88 L182.6719,136.88 Z M187.0781,128.8331 L186.3281,131.8331 L188.8438,131.8331 L188.125,128.8331 Q187.9844,128.255 187.8594,127.7081 Q187.7344,127.1456 187.5938,126.5675 Q187.4844,127.1456 187.3438,127.7081 Q187.2031,128.255 187.0781,128.8331 Z " fill="#000000"/><text fill="#000000" font-family="sans-serif" font-size="14" font-style="italic" lengthAdjust="spacing" textLength="54" x="201.5" y="136.562">Literales</text></g><!--class META--><g id="elem_META"><rect codeLine="9" fill="#F1F1F1" height="32" id="META" rx="2.5" ry="2.5" style="stroke:#181818;stroke-width:0.5;" width="129" x="293" y="115.13"/><ellipse cx="308" cy="131.13" fill="#A9DCDF" rx="11" ry="11" style="stroke:#181818;stroke-width:1.0;"/><path d="M303.1719,136.88 L306.5156,124.6925 L309.6563,124.6925 L313.0313,136.88 L310.5625,136.88 L309.8281,133.8644 L306.3125,133.8644 L305.5625,136.88 L303.1719,136.88 Z M307.5781,128.8331 L306.8281,131.8331 L309.3438,131.8331 L308.625,128.8331 Q308.4844,128.255 308.3594,127.7081 Q308.2344,127.1456 308.0938,126.5675 Q307.9844,127.1456 307.8438,127.7081 Q307.7031,128.255 307.5781,128.8331 Z " fill="#000000"/><text fill="#000000" font-family="sans-serif" font-size="14" font-style="italic" lengthAdjust="spacing" textLength="97" x="322" y="136.562">Metacaracteres</text></g><!--class CCLASS--><g id="elem_CCLASS"><rect codeLine="10" fill="#F1F1F1" height="48.1358" id="CCLASS" rx="2.5" ry="2.5" style="stroke:#181818;stroke-width:0.5;" width="97" x="7" y="207.13"/><ellipse cx="22" cy="231.1979" fill="#A9DCDF" rx="11" ry="11" style="stroke:#181818;stroke-width:1.0;"/><path d="M17.1719,236.9479 L20.5156,224.7604 L23.6563,224.7604 L27.0313,236.9479 L24.5625,236.9479 L23.8281,233.9323 L20.3125,233.9323 L19.5625,236.9479 L17.1719,236.9479 Z M21.5781,228.901 L20.8281,231.901 L23.3438,231.901 L22.625,228.901 Q22.4844,228.3229 22.3594,227.776 Q22.2344,227.2135 22.0938,226.6354 Q21.9844,227.2135 21.8438,227.776 Q21.7031,228.3229 21.5781,228.901 Z " fill="#000000"/><text fill="#000000" font-family="sans-serif" font-size="14" font-style="italic" lengthAdjust="spacing" textLength="58" x="39.5" y="227.0959">Clases de</text><text fill="#000000" font-family="sans-serif" font-size="14" font-style="italic" lengthAdjust="spacing" textLength="65" x="36" y="246.1639">caracteres</text></g><!--class QUANT--><g id="elem_QUANT"><rect codeLine="11" fill="#F1F1F1" height="32" id="QUANT" rx="2.5" ry="2.5" style="stroke:#181818;stroke-width:0.5;" width="130" x="139.5" y="215.2"/><ellipse cx="154.5" cy="231.2" fill="#A9DCDF" rx="11" ry="11" style="stroke:#181818;stroke-width:1.0;"/><path d="M149.6719,236.95 L153.0156,224.7625 L156.1563,224.7625 L159.5313,236.95 L157.0625,236.95 L156.3281,233.9344 L152.8125,233.9344 L152.0625,236.95 L149.6719,236.95 Z M154.0781,228.9031 L153.3281,231.9031 L155.8438,231.9031 L155.125,228.9031 Q154.9844,228.325 154.8594,227.7781 Q154.7344,227.2156 154.5938,226.6375 Q154.4844,227.2156 154.3438,227.7781 Q154.2031,228.325 154.0781,228.9031 Z " fill="#000000"/><text fill="#000000" font-family="sans-serif" font-size="14" font-style="italic" lengthAdjust="spacing" textLength="98" x="168.5" y="236.632">Cuantificadores</text></g><!--class ANCHOR--><g id="elem_ANCHOR"><rect codeLine="12" fill="#F1F1F1" height="32" id="ANCHOR" rx="2.5" ry="2.5" style="stroke:#181818;stroke-width:0.5;" width="72" x="446.5" y="215.2"/><ellipse cx="461.5" cy="231.2" fill="#A9DCDF" rx="11" ry="11" style="stroke:#181818;stroke-width:1.0;"/><path d="M456.6719,236.95 L460.0156,224.7625 L463.1563,224.7625 L466.5313,236.95 L464.0625,236.95 L463.3281,233.9344 L459.8125,233.9344 L459.0625,236.95 L456.6719,236.95 Z M461.0781,228.9031 L460.3281,231.9031 L462.8438,231.9031 L462.125,228.9031 Q461.9844,228.325 461.8594,227.7781 Q461.7344,227.2156 461.5938,226.6375 Q461.4844,227.2156 461.3438,227.7781 Q461.2031,228.325 461.0781,228.9031 Z " fill="#000000"/><text fill="#000000" font-family="sans-serif" font-size="14" font-style="italic" lengthAdjust="spacing" textLength="40" x="475.5" y="236.632">Anclas</text></g><!--class GROUP--><g id="elem_GROUP"><rect codeLine="13" fill="#F1F1F1" height="48.1358" id="GROUP" rx="2.5" ry="2.5" style="stroke:#181818;stroke-width:0.5;" width="104" x="553.5" y="207.13"/><ellipse cx="568.5" cy="231.1979" fill="#A9DCDF" rx="11" ry="11" style="stroke:#181818;stroke-width:1.0;"/><path d="M563.6719,236.9479 L567.0156,224.7604 L570.1563,224.7604 L573.5313,236.9479 L571.0625,236.9479 L570.3281,233.9323 L566.8125,233.9323 L566.0625,236.9479 L563.6719,236.9479 Z M568.0781,228.901 L567.3281,231.901 L569.8438,231.901 L569.125,228.901 Q568.9844,228.3229 568.8594,227.776 Q568.7344,227.2135 568.5938,226.6354 Q568.4844,227.2135 568.3438,227.776 Q568.2031,228.3229 568.0781,228.901 Z " fill="#000000"/><text fill="#000000" font-family="sans-serif" font-size="14" font-style="italic" lengthAdjust="spacing" textLength="56" x="590.5" y="227.0959">Grupos y</text><text fill="#000000" font-family="sans-serif" font-size="14" font-style="italic" lengthAdjust="spacing" textLength="72" x="582.5" y="246.1639">alternancia</text></g><!--class LOOK--><g id="elem_LOOK"><rect codeLine="14" fill="#F1F1F1" height="32" id="LOOK" rx="2.5" ry="2.5" style="stroke:#181818;stroke-width:0.5;" width="108" x="217.5" y="315.27"/><ellipse cx="232.5" cy="331.27" fill="#A9DCDF" rx="11" ry="11" style="stroke:#181818;stroke-width:1.0;"/><path d="M227.6719,337.02 L231.0156,324.8325 L234.1563,324.8325 L237.5313,337.02 L235.0625,337.02 L234.3281,334.0044 L230.8125,334.0044 L230.0625,337.02 L227.6719,337.02 Z M232.0781,328.9731 L231.3281,331.9731 L233.8438,331.9731 L233.125,328.9731 Q232.9844,328.395 232.8594,327.8481 Q232.7344,327.2856 232.5938,326.7075 Q232.4844,327.2856 232.3438,327.8481 Q232.2031,328.395 232.0781,328.9731 Z " fill="#000000"/><text fill="#000000" font-family="sans-serif" font-size="14" font-style="italic" lengthAdjust="spacing" textLength="76" x="246.5" y="336.702">Lookaround</text></g><!--class FLAGS--><g id="elem_FLAGS"><rect codeLine="15" fill="#F1F1F1" height="32" id="FLAGS" rx="2.5" ry="2.5" style="stroke:#181818;stroke-width:0.5;" width="65" x="361" y="315.27"/><ellipse cx="376" cy="331.27" fill="#A9DCDF" rx="11" ry="11" style="stroke:#181818;stroke-width:1.0;"/><path d="M371.1719,337.02 L374.5156,324.8325 L377.6563,324.8325 L381.0313,337.02 L378.5625,337.02 L377.8281,334.0044 L374.3125,334.0044 L373.5625,337.02 L371.1719,337.02 Z M375.5781,328.9731 L374.8281,331.9731 L377.3438,331.9731 L376.625,328.9731 Q376.4844,328.395 376.3594,327.8481 Q376.2344,327.2856 376.0938,326.7075 Q375.9844,327.2856 375.8438,327.8481 Q375.7031,328.395 375.5781,328.9731 Z " fill="#000000"/><text fill="#000000" font-family="sans-serif" font-size="14" font-style="italic" lengthAdjust="spacing" textLength="33" x="390" y="336.702">Flags</text></g><!--reverse link RE to LIT--><g id="link_RE_LIT"><path codeLine="17" d="M259.117,69.892 C245.837,88.242 238.22,98.75 226.67,114.7 " fill="none" id="RE-backto-LIT" style="stroke:#181818;stroke-width:1.0;"/><polygon fill="none" points="269.67,55.31,254.2563,66.3743,263.9776,73.4096,269.67,55.31" style="stroke:#181818;stroke-width:1.0;"/></g><!--reverse link RE to META--><g id="link_RE_META"><path codeLine="18" d="M313.883,69.892 C327.163,88.242 334.78,98.75 346.33,114.7 " fill="none" id="RE-backto-META" style="stroke:#181818;stroke-width:1.0;"/><polygon fill="none" points="303.33,55.31,309.0224,73.4096,318.7437,66.3743,303.33,55.31" style="stroke:#181818;stroke-width:1.0;"/></g><!--link LIT to META--><!--reverse link META to CCLASS--><g id="link_META_CCLASS"><path codeLine="22" d="M290.4516,152.874 C242.5916,167.754 185.53,185.78 121.5,207.13 C115.97,208.98 110.2,210.94 104.46,212.91 " fill="none" id="META-backto-CCLASS" style="stroke:#181818;stroke-width:1.0;"/><polygon fill="none" points="307.64,147.53,288.6703,147.1445,292.2329,158.6035,307.64,147.53" style="stroke:#181818;stroke-width:1.0;"/></g><!--reverse link META to QUANT--><g id="link_META_QUANT"><path codeLine="23" d="M318.4357,157.1733 C289.7757,175.5433 257.19,196.43 228.49,214.83 " fill="none" id="META-backto-QUANT" style="stroke:#181818;stroke-width:1.0;"/><polygon fill="none" points="333.59,147.46,315.198,152.1219,321.6735,162.2247,333.59,147.46" style="stroke:#181818;stroke-width:1.0;"/></g><!--reverse link META to ANCHOR--><g id="link_META_ANCHOR"><path codeLine="24" d="M391.1921,158.5701 C414.6721,176.9901 439.68,196.61 463.11,214.99 " fill="none" id="META-backto-ANCHOR" style="stroke:#181818;stroke-width:1.0;"/><polygon fill="none" points="377.03,147.46,387.4887,163.2908,394.8955,153.8494,377.03,147.46" style="stroke:#181818;stroke-width:1.0;"/></g><!--reverse link META to GROUP--><g id="link_META_GROUP"><path codeLine="25" d="M413.2592,154.1881 C455.5492,170.9081 506.5,191.05 553.33,209.57 " fill="none" id="META-backto-GROUP" style="stroke:#181818;stroke-width:1.0;"/><polygon fill="none" points="396.52,147.57,411.0532,159.7678,415.4652,148.6084,396.52,147.57" style="stroke:#181818;stroke-width:1.0;"/></g><!--reverse link META to FLAGS--><g id="link_META_FLAGS"><path codeLine="26" d="M363.4874,165.0601 C370.1874,201.9401 384.01,278.07 390.73,315 " fill="none" id="META-backto-FLAGS" style="stroke:#181818;stroke-width:1.0;"/><polygon fill="none" points="360.27,147.35,357.584,166.1326,369.3908,163.9877,360.27,147.35" style="stroke:#181818;stroke-width:1.0;"/></g><!--reverse link META to LOOK--><g id="link_META_LOOK"><path codeLine="27" d="M343.726,163.863 C327.726,200.743 294.16,278.07 278.13,315 " fill="none" id="META-backto-LOOK" style="stroke:#181818;stroke-width:1.0;"/><polygon fill="none" points="350.89,147.35,338.2217,161.475,349.2303,166.2509,350.89,147.35" style="stroke:#181818;stroke-width:1.0;"/></g><!--link CCLASS to QUANT--><!--link QUANT to LOOK--><!--link LOOK to FLAGS--><!--SRC=[NP51Ri8m44NtFeN5fglSe1ih2hHgIDe0gzB5u0nWaOmZsv6Ar5lr2BrO4pk0OJCQ__yoCrzvEgeQkLH6DiXyZstdphp5TeU6sPEY3WoqN3PWhN3Eg5tlSAx95T0YRpLfsu74-f6z8XR89XQDsZC6E-iCICTdsNTdqAg_NzfIXOU-0JFZO7cLHL2k71feq7ehVrr7tX8TI1XxD1EmpDOY8jBX3BIynYqzW6cQYzKgHdiWf_PAGgqlqCT65F52GMCkRuaYVIcho5kOljEMdxS4pR26WAG2ZowgSlCUHzBw14RtL8TCPVaMkVC63c75F1UB5MDLnfz_aiHdl_G-9XiKddmElwn6-Z8NTQo1cZBUX93dzfv2t8HmwlMTJ3T4Wh-MXSbtoyDiN-zq_y5OxjGmzny0]--></g></svg>