<?xml version="1.0" encoding="us-ascii" standalone="no"?><svg xmlns="http://www.w3.org/2000/svg" xmlns:xlink="http://www.w3.org/1999/xlink" contentStyleType="text/css" height="1012px" preserveAspectRatio="none" style="width:1174px;height:1012px;background:#FFFFFF;" version="1.1" viewBox="0 0 1174 1012" width="1174px" zoomAndPan="magnify"><defs/><g><!--class RE--><g id="elem_RE"><rect codeLine="5" fill="#F1F1F1" height="29.0679" id="RE" rx="2.5" ry="2.5" style="stroke:#181818;stroke-width:0.5;" width="131" x="582" y="7"/><text fill="#000000" font-family="sans-serif" font-size="14" font-weight="bold" lengthAdjust="spacing" textLength="125" x="585" y="26.9659">Expresi&#243;n Regular</text></g><!--class LIT--><g id="elem_LIT"><rect codeLine="6" fill="#F1F1F1" height="29.0679" id="LIT" rx="2.5" ry="2.5" style="stroke:#181818;stroke-width:0.5;" width="65" x="730" y="96.06"/><text fill="#000000" font-family="sans-serif" font-size="14" font-weight="bold" lengthAdjust="spacing" textLength="59" x="733" y="116.0259">Literales</text></g><!--class ALFA--><g id="elem_ALFA"><rect codeLine="9" fill="#F1F1F1" height="29.0679" id="ALFA" rx="2.5" ry="2.5" style="stroke:#181818;stroke-width:0.5;" width="103" x="649" y="194.66"/><text fill="#000000" font-family="sans-serif" font-size="14" lengthAdjust="spacing" textLength="97" x="652" y="214.6259">Alfanum&#233;ricos</text></g><!--class ESC_SP--><g id="elem_ESC_SP"><rect codeLine="10" fill="#F1F1F1" height="48.1358" id="ESC_SP" rx="2.5" ry="2.5" style="stroke:#181818;stroke-width:0.5;" width="77" x="787" y="185.13"/><text fill="#000000" font-family="sans-serif" font-size="14" lengthAdjust="spacing" textLength="58" x="796.5" y="205.0959">Espacios</text><text fill="#000000" font-family="sans-serif" font-size="14" lengthAdjust="spacing" textLength="71" x="790" y="224.1639">escapados</text></g><!--class ESC_META--><g id="elem_ESC_META"><rect codeLine="11" fill="#F1F1F1" height="48.1358" id="ESC_META" rx="2.5" ry="2.5" style="stroke:#181818;stroke-width:0.5;" width="110" x="898.5" y="185.13"/><text fill="#000000" font-family="sans-serif" font-size="14" lengthAdjust="spacing" textLength="104" x="901.5" y="205.0959">Metacaracteres</text><text fill="#000000" font-family="sans-serif" font-size="14" lengthAdjust="spacing" textLength="71" x="918" y="224.1639">escapados</text></g><!--class META--><g id="elem_META"><rect codeLine="14" fill="#F1F1F1" height="29.0679" id="META" rx="2.5" ry="2.5" style="stroke:#181818;stroke-width:0.5;" width="112" x="539.5" y="293.27"/><text fill="#000000" font-family="sans-serif" font-size="14" font-weight="bold" lengthAdjust="spacing" textLength="106" x="542.5" y="313.2359">Metacaracteres</text></g><!--class QUANT--><g id="elem_QUANT"><rect codeLine="15" fill="#F1F1F1" height="29.0679" id="QUANT" rx="2.5" ry="2.5" style="stroke:#181818;stroke-width:0.5;" width="114" x="164.5" y="443.33"/><text fill="#000000" font-family="sans-serif" font-size="14" font-weight="bold" lengthAdjust="spacing" textLength="108" x="167.5" y="463.2959">Cuantificadores</text></g><!--class GREEDY--><g id="elem_GREEDY"><rect codeLine="16" fill="#F1F1F1" height="29.0679" id="GREEDY" rx="2.5" ry="2.5" style="stroke:#181818;stroke-width:0.5;" width="117" x="7" y="532.4"/><text fill="#000000" font-family="sans-serif" font-size="14" lengthAdjust="spacing" textLength="111" x="10" y="552.3659">Voraces (greedy)</text></g><!--class LAZY--><g id="elem_LAZY"><rect codeLine="17" fill="#F1F1F1" height="29.0679" id="LAZY" rx="2.5" ry="2.5" style="stroke:#181818;stroke-width:0.5;" width="111" x="122" y="621.47"/><text fill="#000000" font-family="sans-serif" font-size="14" lengthAdjust="spacing" textLength="105" x="125" y="641.4359">Perezosos (lazy)</text></g><!--class POSS--><g id="elem_POSS"><rect codeLine="18" fill="#F1F1F1" height="29.0679" id="POSS" rx="2.5" ry="2.5" style="stroke:#181818;stroke-width:0.5;" width="70" x="230.5" y="532.4"/><text fill="#000000" font-family="sans-serif" font-size="14" lengthAdjust="spacing" textLength="64" x="233.5" y="552.3659">Posesivos</text></g><!--class ANCHOR--><g id="elem_ANCHOR"><rect codeLine="19" fill="#F1F1F1" height="29.0679" id="ANCHOR" rx="2.5" ry="2.5" style="stroke:#181818;stroke-width:0.5;" width="51" x="439" y="443.33"/><text fill="#000000" font-family="sans-serif" font-size="14" font-weight="bold" lengthAdjust="spacing" textLength="45" x="442" y="463.2959">Anclas</text></g><!--class POS--><g id="elem_POS"><rect codeLine="20" fill="#F1F1F1" height="29.0679" id="POS" rx="2.5" ry="2.5" style="stroke:#181818;stroke-width:0.5;" width="76" x="335.5" y="532.4"/><text fill="#000000" font-family="sans-serif" font-size="14" lengthAdjust="spacing" textLength="70" x="338.5" y="552.3659">Inicio / Fin</text></g><!--class BOUND--><g id="elem_BOUND"><rect codeLine="21" fill="#F1F1F1" height="29.0679" id="BOUND" rx="2.5" ry="2.5" style="stroke:#181818;stroke-width:0.5;" width="124" x="383.5" y="621.47"/><text fill="#000000" font-family="sans-serif" font-size="14" lengthAdjust="spacing" textLength="118" x="386.5" y="641.4359">L&#237;mite de palabra</text></g><!--class CCLASS--><g id="elem_CCLASS"><rect codeLine="22" fill="#F1F1F1" height="29.0679" id="CCLASS" rx="2.5" ry="2.5" style="stroke:#181818;stroke-width:0.5;" width="145" x="237" y="799.61"/><text fill="#000000" font-family="sans-serif" font-size="14" font-weight="bold" lengthAdjust="spacing" textLength="139" x="240" y="819.5759">Clases de caracteres</text></g><!--class PREDEF--><g id="elem_PREDEF"><rect codeLine="23" fill="#F1F1F1" height="29.0679" id="PREDEF" rx="2.5" ry="2.5" style="stroke:#181818;stroke-width:0.5;" width="91" x="64" y="888.67"/><text fill="#000000" font-family="sans-serif" font-size="14" lengthAdjust="spacing" textLength="85" x="67" y="908.6359">Predefinidas</text></g><!--class NEG--><g id="elem_NEG"><rect codeLine="24" fill="#F1F1F1" height="29.0679" id="NEG" rx="2.5" ry="2.5" style="stroke:#181818;stroke-width:0.5;" width="66" x="160.5" y="977.74"/><text fill="#000000" font-family="sans-serif" font-size="14" lengthAdjust="spacing" textLength="60" x="163.5" y="997.7059">Negadas</text></g><!--class CUSTOM--><g id="elem_CUSTOM"><rect codeLine="25" fill="#F1F1F1" height="29.0679" id="CUSTOM" rx="2.5" ry="2.5" style="stroke:#181818;stroke-width:0.5;" width="125" x="262" y="977.74"/><text fill="#000000" font-family="sans-serif" font-size="14" lengthAdjust="spacing" textLength="119" x="265" y="997.7059">Personalizadas [ ]</text></g><!--class DOT--><g id="elem_DOT"><rect codeLine="26" fill="#F1F1F1" height="29.0679" id="DOT" rx="2.5" ry="2.5" style="stroke:#181818;stroke-width:0.5;" width="66" x="362.5" y="888.67"/><text fill="#000000" font-family="sans-serif" font-size="14" lengthAdjust="spacing" textLength="60" x="365.5" y="908.6359">Comod&#237;n</text></g><!--class GROUP--><g id="elem_GROUP"><rect codeLine="27" fill="#F1F1F1" height="29.0679" id="GROUP" rx="2.5" ry="2.5" style="stroke:#181818;stroke-width:0.5;" width="155" x="564" y="799.61"/><text fill="#000000" font-family="sans-serif" font-size="14" font-weight="bold" lengthAdjust="spacing" textLength="149" x="567" y="819.5759">Agrupaci&#243;n y captura</text></g><!--class CAP--><g id="elem_CAP"><rect codeLine="28" fill="#F1F1F1" height="29.0679" id="CAP" rx="2.5" ry="2.5" style="stroke:#181818;stroke-width:0.5;" width="125" x="464" y="888.67"/><text fill="#000000" font-family="sans-serif" font-size="14" lengthAdjust="spacing" textLength="119" x="467" y="908.6359">Grupo de captura</text></g><!--class NOCAP--><g id="elem_NOCAP"><rect codeLine="29" fill="#F1F1F1" height="29.0679" id="NOCAP" rx="2.5" ry="2.5" style="stroke:#181818;stroke-width:0.5;" width="128" x="553.5" y="977.74"/><text fill="#000000" font-family="sans-serif" font-size="14" lengthAdjust="spacing" textLength="122" x="556.5" y="997.7059">Grupo sin captura</text></g><!--class NAMED--><g id="elem_NAMED"><rect codeLine="30" fill="#F1F1F1" height="29.0679" id="NAMED" rx="2.5" ry="2.5" style="stroke:#181818;stroke-width:0.5;" width="133" x="717" y="977.74"/><text fill="#000000" font-family="sans-serif" font-size="14" lengthAdjust="spacing" textLength="127" x="720" y="997.7059">Grupo con nombre</text></g><!--class BACKREF--><g id="elem_BACKREF"><rect codeLine="31" fill="#F1F1F1" height="29.0679" id="BACKREF" rx="2.5" ry="2.5" style="stroke:#181818;stroke-width:0.5;" width="131" x="812" y="888.67"/><text fill="#000000" font-family="sans-serif" font-size="14" lengthAdjust="spacing" textLength="125" x="815" y="908.6359">Referencia inversa</text></g><!--class ALT--><g id="elem_ALT"><rect codeLine="32" fill="#F1F1F1" height="29.0679" id="ALT" rx="2.5" ry="2.5" style="stroke:#181818;stroke-width:0.5;" width="85" x="687" y="293.27"/><text fill="#000000" font-family="sans-serif" font-size="14" font-weight="bold" lengthAdjust="spacing" textLength="79" x="690" y="313.2359">Alternancia</text></g><!--class LOOK--><g id="elem_LOOK"><rect codeLine="33" fill="#F1F1F1" height="29.0679" id="LOOK" rx="2.5" ry="2.5" style="stroke:#181818;stroke-width:0.5;" width="91" x="778" y="621.47"/><text fill="#000000" font-family="sans-serif" font-size="14" font-weight="bold" lengthAdjust="spacing" textLength="85" x="781" y="641.4359">Lookaround</text></g><!--class LA_POS--><g id="elem_LA_POS"><rect codeLine="34" fill="#F1F1F1" height="29.0679" id="LA_POS" rx="2.5" ry="2.5" style="stroke:#181818;stroke-width:0.5;" width="90" x="684.5" y="710.54"/><text fill="#000000" font-family="sans-serif" font-size="14" lengthAdjust="spacing" textLength="84" x="687.5" y="730.5059">Lookahead +</text></g><!--class LA_NEG--><g id="elem_LA_NEG"><rect codeLine="35" fill="#F1F1F1" height="29.0679" id="LA_NEG" rx="2.5" ry="2.5" style="stroke:#181818;stroke-width:0.5;" width="87" x="774" y="799.61"/><text fill="#000000" font-family="sans-serif" font-size="14" lengthAdjust="spacing" textLength="81" x="777" y="819.5759">Lookahead -</text></g><!--class LB_POS--><g id="elem_LB_POS"><rect codeLine="36" fill="#F1F1F1" height="29.0679" id="LB_POS" rx="2.5" ry="2.5" style="stroke:#181818;stroke-width:0.5;" width="96" x="895.5" y="799.61"/><text fill="#000000" font-family="sans-serif" font-size="14" lengthAdjust="spacing" textLength="90" x="898.5" y="819.5759">Lookbehind +</text></g><!--class LB_NEG--><g id="elem_LB_NEG"><rect codeLine="37" fill="#F1F1F1" height="29.0679" id="LB_NEG" rx="2.5" ry="2.5" style="stroke:#181818;stroke-width:0.5;" width="93" x="979" y="710.54"/><text fill="#000000" font-family="sans-serif" font-size="14" lengthAdjust="spacing" textLength="87" x="982" y="730.5059">Lookbehind -</text></g><!--class FLAGS--><g id="elem_FLAGS"><rect codeLine="38" fill="#F1F1F1" height="29.0679" id="FLAGS" rx="2.5" ry="2.5" style="stroke:#181818;stroke-width:0.5;" width="154" x="873.5" y="443.33"/><text fill="#000000" font-family="sans-serif" font-size="14" font-weight="bold" lengthAdjust="spacing" textLength="148" x="876.5" y="463.2959">Flags / Modificadores</text></g><!--class F_I--><g id="elem_F_I"><rect codeLine="39" fill="#F1F1F1" height="29.0679" id="F_I" rx="2.5" ry="2.5" style="stroke:#181818;stroke-width:0.5;" width="131" x="767" y="532.4"/><text fill="#000000" font-family="sans-serif" font-size="14" lengthAdjust="spacing" textLength="125" x="770" y="552.3659">i - Case insensitive</text></g><!--class F_M--><g id="elem_F_M"><rect codeLine="40" fill="#F1F1F1" height="29.0679" id="F_M" rx="2.5" ry="2.5" style="stroke:#181818;stroke-width:0.5;" width="92" x="904.5" y="621.47"/><text fill="#000000" font-family="sans-serif" font-size="14" lengthAdjust="spacing" textLength="86" x="907.5" y="641.4359">m - Multiline</text></g><!--class F_S--><g id="elem_F_S"><rect codeLine="41" fill="#F1F1F1" height="29.0679" id="F_S" rx="2.5" ry="2.5" style="stroke:#181818;stroke-width:0.5;" width="65" x="1032" y="621.47"/><text fill="#000000" font-family="sans-serif" font-size="14" lengthAdjust="spacing" textLength="59" x="1035" y="641.4359">s - Dotall</text></g><!--class F_G--><g id="elem_F_G"><rect codeLine="42" fill="#F1F1F1" height="29.0679" id="F_G" rx="2.5" ry="2.5" style="stroke:#181818;stroke-width:0.5;" width="71" x="1096" y="532.4"/><text fill="#000000" font-family="sans-serif" font-size="14" lengthAdjust="spacing" textLength="65" x="1099" y="552.3659">g - Global</text></g><!--reverse link RE to LIT--><g id="link_RE_LIT"><path codeLine="44" d="M680.3301,47.3862 C701.7901,63.6362 722.63,79.41 744.07,95.64 " fill="none" id="RE-backto-LIT" style="stroke:#181818;stroke-width:1.0;"/><polygon fill="none" points="665.98,36.52,676.708,52.1696,683.9522,42.6029,665.98,36.52" style="stroke:#181818;stroke-width:1.0;"/></g><!--reverse link RE to META--><g id="link_RE_META"><path codeLine="45" d="M641.7525,53.9465 C632.9725,101.9665 606.88,244.57 598.04,292.89 " fill="none" id="RE-backto-META" style="stroke:#181818;stroke-width:1.0;"/><polygon fill="none" points="644.99,36.24,635.8504,52.8673,647.6547,55.0256,644.99,36.24" style="stroke:#181818;stroke-width:1.0;"/></g><!--reverse link LIT to ALFA--><g id="link_LIT_ALFA"><path codeLine="47" d="M743.8939,140.586 C732.1039,158.946 721.14,176.03 709.37,194.38 " fill="none" id="LIT-backto-ALFA" style="stroke:#181818;stroke-width:1.0;"/><polygon fill="none" points="753.62,125.44,738.8452,137.344,748.9425,143.8281,753.62,125.44" style="stroke:#181818;stroke-width:1.0;"/></g><!--reverse link LIT to ESC_SP--><g id="link_LIT_ESC_SP"><path codeLine="48" d="M781.3631,140.5168 C791.4331,155.9568 798.06,166.13 810.16,184.68 " fill="none" id="LIT-backto-ESC_SP" style="stroke:#181818;stroke-width:1.0;"/><polygon fill="none" points="771.53,125.44,776.3375,143.7945,786.3887,137.2391,771.53,125.44" style="stroke:#181818;stroke-width:1.0;"/></g><!--reverse link LIT to ESC_META--><g id="link_LIT_ESC_META"><path codeLine="49" d="M805.9327,133.5634 C836.4627,149.0034 870.32,166.13 907.01,184.68 " fill="none" id="LIT-backto-ESC_META" style="stroke:#181818;stroke-width:1.0;"/><polygon fill="none" points="789.87,125.44,803.2249,138.9176,808.6405,128.2092,789.87,125.44" style="stroke:#181818;stroke-width:1.0;"/></g><!--reverse link META to ALT--><g id="link_META_ALT"><path codeLine="51" d="M669.77,307.8 C681.41,307.8 675.05,307.8 686.69,307.8 " fill="none" id="META-backto-ALT" style="stroke:#181818;stroke-width:1.0;"/><polygon fill="none" points="651.77,307.8,669.77,313.8,669.77,301.8,651.77,307.8" style="stroke:#181818;stroke-width:1.0;"/></g><!--reverse link META to QUANT--><g id="link_META_QUANT"><path codeLine="52" d="M543.5739,329.3559 C472.2939,357.5759 328.29,414.59 256.86,442.87 " fill="none" id="META-backto-QUANT" style="stroke:#181818;stroke-width:1.0;"/><polygon fill="none" points="560.31,322.73,541.3653,323.7772,545.7825,334.9346,560.31,322.73" style="stroke:#181818;stroke-width:1.0;"/></g><!--reverse link META to LOOK--><g id="link_META_LOOK"><path codeLine="53" d="M621.1563,335.8447 C634.4563,350.0847 642.69,360.1 657.5,382.33 C707.11,456.83 696.66,489.23 749.5,561.47 C766.39,584.57 790.62,607.16 806.7,621.08 " fill="none" id="META-backto-LOOK" style="stroke:#181818;stroke-width:1.0;"/><polygon fill="none" points="608.87,322.69,616.7714,339.9401,625.5412,331.7492,608.87,322.69" style="stroke:#181818;stroke-width:1.0;"/></g><!--reverse link META to GROUP--><g id="link_META_GROUP"><path codeLine="54" d="M607.8492,339.5785 C618.0292,365.5485 631.5,406.34 631.5,456.87 C631.5,456.87 631.5,456.87 631.5,637 C631.5,697.65 637.48,769.85 640.19,799.45 " fill="none" id="META-backto-GROUP" style="stroke:#181818;stroke-width:1.0;"/><polygon fill="none" points="601.28,322.82,602.263,341.7682,613.4353,337.3887,601.28,322.82" style="stroke:#181818;stroke-width:1.0;"/></g><!--reverse link META to CCLASS--><g id="link_META_CCLASS"><path codeLine="55" d="M583.4748,339.6518 C573.5748,365.6518 560.5,406.42 560.5,456.87 C560.5,456.87 560.5,456.87 560.5,637 C560.5,729.9 443.88,777.99 369.62,799.2 " fill="none" id="META-backto-CCLASS" style="stroke:#181818;stroke-width:1.0;"/><polygon fill="none" points="589.88,322.83,577.8675,337.5167,589.082,341.7869,589.88,322.83" style="stroke:#181818;stroke-width:1.0;"/></g><!--reverse link META to ANCHOR--><g id="link_META_ANCHOR"><path codeLine="56" d="M571.252,336.2105 C546.282,364.4305 501.91,414.59 476.89,442.87 " fill="none" id="META-backto-ANCHOR" style="stroke:#181818;stroke-width:1.0;"/><polygon fill="none" points="583.18,322.73,566.7585,332.2345,575.7455,340.1865,583.18,322.73" style="stroke:#181818;stroke-width:1.0;"/></g><!--reverse link META to FLAGS--><g id="link_META_FLAGS"><path codeLine="57" d="M645.5129,329.659 C713.1729,357.879 849.13,414.59 916.93,442.87 " fill="none" id="META-backto-FLAGS" style="stroke:#181818;stroke-width:1.0;"/><polygon fill="none" points="628.9,322.73,643.2032,335.1966,647.8226,324.1214,628.9,322.73" style="stroke:#181818;stroke-width:1.0;"/></g><!--reverse link QUANT to GREEDY--><g id="link_QUANT_GREEDY"><path codeLine="59" d="M180.7217,481.6313 C151.6017,497.8813 119.59,515.75 90.5,531.98 " fill="none" id="QUANT-backto-GREEDY" style="stroke:#181818;stroke-width:1.0;"/><polygon fill="none" points="196.44,472.86,177.798,476.3919,183.6455,486.8708,196.44,472.86" style="stroke:#181818;stroke-width:1.0;"/></g><!--reverse link QUANT to LAZY--><g id="link_QUANT_LAZY"><path codeLine="60" d="M213.6856,490.1529 C205.4556,523.0829 189.15,588.39 180.94,621.25 " fill="none" id="QUANT-backto-LAZY" style="stroke:#181818;stroke-width:1.0;"/><polygon fill="none" points="218.05,472.69,207.8646,488.6981,219.5066,491.6077,218.05,472.69" style="stroke:#181818;stroke-width:1.0;"/></g><!--reverse link QUANT to POSS--><g id="link_QUANT_POSS"><path codeLine="61" d="M236.687,488.9259 C244.897,505.1759 250.24,515.75 258.45,531.98 " fill="none" id="QUANT-backto-POSS" style="stroke:#181818;stroke-width:1.0;"/><polygon fill="none" points="228.57,472.86,231.3317,491.6316,242.0423,486.2203,228.57,472.86" style="stroke:#181818;stroke-width:1.0;"/></g><!--reverse link ANCHOR to POS--><g id="link_ANCHOR_POS"><path codeLine="63" d="M436.8756,485.3053 C419.8956,501.5553 405.05,515.75 388.08,531.98 " fill="none" id="ANCHOR-backto-POS" style="stroke:#181818;stroke-width:1.0;"/><polygon fill="none" points="449.88,472.86,432.7272,480.9705,441.024,489.6401,449.88,472.86" style="stroke:#181818;stroke-width:1.0;"/></g><!--reverse link ANCHOR to BOUND--><g id="link_ANCHOR_BOUND"><path codeLine="64" d="M461.0807,490.5863 C457.5307,523.5163 450.53,588.39 446.98,621.25 " fill="none" id="ANCHOR-backto-BOUND" style="stroke:#181818;stroke-width:1.0;"/><polygon fill="none" points="463.01,472.69,455.1153,489.9432,467.0461,491.2294,463.01,472.69" style="stroke:#181818;stroke-width:1.0;"/></g><!--reverse link CCLASS to PREDEF--><g id="link_CCLASS_PREDEF"><path codeLine="66" d="M260.8659,836.3143 C223.5359,852.5643 178.84,872.02 141.55,888.25 " fill="none" id="CCLASS-backto-PREDEF" style="stroke:#181818;stroke-width:1.0;"/><polygon fill="none" points="277.37,829.13,258.4711,830.813,263.2607,841.8157,277.37,829.13" style="stroke:#181818;stroke-width:1.0;"/></g><!--reverse link CCLASS to NEG--><g id="link_CCLASS_NEG"><path codeLine="67" d="M290.4988,843.9922 C268.8088,876.9222 224.2,944.66 202.56,977.52 " fill="none" id="CCLASS-backto-NEG" style="stroke:#181818;stroke-width:1.0;"/><polygon fill="none" points="300.4,828.96,285.4881,840.6917,295.5095,847.2926,300.4,828.96" style="stroke:#181818;stroke-width:1.0;"/></g><!--reverse link CCLASS to CUSTOM--><g id="link_CCLASS_CUSTOM"><path codeLine="68" d="M312.205,846.8953 C315.005,879.8253 320.53,944.66 323.33,977.52 " fill="none" id="CCLASS-backto-CUSTOM" style="stroke:#181818;stroke-width:1.0;"/><polygon fill="none" points="310.68,828.96,306.2266,847.4036,318.1834,846.3869,310.68,828.96" style="stroke:#181818;stroke-width:1.0;"/></g><!--reverse link CCLASS to DOT--><g id="link_CCLASS_DOT"><path codeLine="69" d="M335.9689,841.9365 C352.0189,858.1865 365.68,872.02 381.72,888.25 " fill="none" id="CCLASS-backto-DOT" style="stroke:#181818;stroke-width:1.0;"/><polygon fill="none" points="323.32,829.13,331.7,846.1528,340.2377,837.7202,323.32,829.13" style="stroke:#181818;stroke-width:1.0;"/></g><!--reverse link GROUP to CAP--><g id="link_GROUP_CAP"><path codeLine="71" d="M608.6699,839.9962 C587.2099,856.2462 566.37,872.02 544.93,888.25 " fill="none" id="GROUP-backto-CAP" style="stroke:#181818;stroke-width:1.0;"/><polygon fill="none" points="623.02,829.13,605.0478,835.2129,612.292,844.7796,623.02,829.13" style="stroke:#181818;stroke-width:1.0;"/></g><!--reverse link GROUP to NOCAP--><g id="link_GROUP_NOCAP"><path codeLine="72" d="M637.1882,846.795 C632.6982,879.725 623.85,944.66 619.37,977.52 " fill="none" id="GROUP-backto-NOCAP" style="stroke:#181818;stroke-width:1.0;"/><polygon fill="none" points="639.62,828.96,631.2432,845.9844,643.1332,847.6056,639.62,828.96" style="stroke:#181818;stroke-width:1.0;"/></g><!--reverse link GROUP to NAMED--><g id="link_GROUP_NAMED"><path codeLine="73" d="M663.9379,842.9728 C690.4879,875.9028 745.92,944.66 772.41,977.52 " fill="none" id="GROUP-backto-NAMED" style="stroke:#181818;stroke-width:1.0;"/><polygon fill="none" points="652.64,828.96,659.267,846.7387,668.6088,839.2068,652.64,828.96" style="stroke:#181818;stroke-width:1.0;"/></g><!--reverse link GROUP to BACKREF--><g id="link_GROUP_BACKREF"><path codeLine="74" d="M696.3071,835.361 C740.3471,851.611 795.68,872.02 839.68,888.25 " fill="none" id="GROUP-backto-BACKREF" style="stroke:#181818;stroke-width:1.0;"/><polygon fill="none" points="679.42,829.13,694.2301,840.9901,698.3841,829.732,679.42,829.13" style="stroke:#181818;stroke-width:1.0;"/></g><!--reverse link LOOK to LA_POS--><g id="link_LOOK_LA_POS"><path codeLine="76" d="M795.1958,663.2231 C777.6558,679.4731 762.09,693.89 744.57,710.12 " fill="none" id="LOOK-backto-LA_POS" style="stroke:#181818;stroke-width:1.0;"/><polygon fill="none" points="808.4,650.99,791.1181,658.8217,799.2735,667.6245,808.4,650.99" style="stroke:#181818;stroke-width:1.0;"/></g><!--reverse link LOOK to LA_NEG--><g id="link_LOOK_LA_NEG"><path codeLine="77" d="M822.418,668.8196 C821.298,701.7396 819.09,766.52 817.97,799.38 " fill="none" id="LOOK-backto-LA_NEG" style="stroke:#181818;stroke-width:1.0;"/><polygon fill="none" points="823.03,650.83,816.4214,668.6156,828.4145,669.0236,823.03,650.83" style="stroke:#181818;stroke-width:1.0;"/></g><!--reverse link LOOK to LB_POS--><g id="link_LOOK_LB_POS"><path codeLine="78" d="M843.0553,665.7053 C865.4853,698.6253 911.74,766.52 934.13,799.38 " fill="none" id="LOOK-backto-LB_POS" style="stroke:#181818;stroke-width:1.0;"/><polygon fill="none" points="832.92,650.83,838.0968,669.0838,848.0137,662.3269,832.92,650.83" style="stroke:#181818;stroke-width:1.0;"/></g><!--reverse link LOOK to LB_NEG--><g id="link_LOOK_LB_NEG"><path codeLine="79" d="M872.4798,658.1149 C910.1798,674.3649 955.46,693.89 993.13,710.12 " fill="none" id="LOOK-backto-LB_NEG" style="stroke:#181818;stroke-width:1.0;"/><polygon fill="none" points="855.95,650.99,870.1049,663.6249,874.8548,652.605,855.95,650.99" style="stroke:#181818;stroke-width:1.0;"/></g><!--reverse link FLAGS to F_I--><g id="link_FLAGS_F_I"><path codeLine="81" d="M917.0568,483.5481 C895.0368,499.7981 873.41,515.75 851.41,531.98 " fill="none" id="FLAGS-backto-F_I" style="stroke:#181818;stroke-width:1.0;"/><polygon fill="none" points="931.54,472.86,913.4941,478.7204,920.6195,488.3759,931.54,472.86" style="stroke:#181818;stroke-width:1.0;"/></g><!--reverse link FLAGS to F_M--><g id="link_FLAGS_F_M"><path codeLine="82" d="M950.5,490.69 C950.5,523.62 950.5,588.39 950.5,621.25 " fill="none" id="FLAGS-backto-F_M" style="stroke:#181818;stroke-width:1.0;"/><polygon fill="none" points="950.5,472.69,944.5,490.69,956.5,490.69,950.5,472.69" style="stroke:#181818;stroke-width:1.0;"/></g><!--reverse link FLAGS to F_S--><g id="link_FLAGS_F_S"><path codeLine="83" d="M969.2293,487.8018 C990.5393,520.7318 1034.33,588.39 1055.6,621.25 " fill="none" id="FLAGS-backto-F_S" style="stroke:#181818;stroke-width:1.0;"/><polygon fill="none" points="959.45,472.69,964.192,491.0615,974.2665,484.542,959.45,472.69" style="stroke:#181818;stroke-width:1.0;"/></g><!--reverse link FLAGS to F_G--><g id="link_FLAGS_F_G"><path codeLine="84" d="M995.8007,480.663 C1029.5807,496.913 1068.75,515.75 1102.49,531.98 " fill="none" id="FLAGS-backto-F_G" style="stroke:#181818;stroke-width:1.0;"/><polygon fill="none" points="979.58,472.86,993.1997,486.07,998.4018,475.2561,979.58,472.86" style="stroke:#181818;stroke-width:1.0;"/></g><!--SRC=[RLHBRjim4Dtp54HMBGeX5mW2ABAi1f4jLxOBz8U0acYRA4KQeXKqGI_KHLOvWY_MuK-Yt6u4phmtrCoR6HvOGt7DkffJTD3dbhOLxHH2DITAuQkRwZRzTUoeOkStWKkwxpdfhZ1Hk4m3JivEj2ESgflhwjR0-Vq68OInuyHyHqJVdlzqh9RACE9y7e-4L1r9pQJwBgYgoP4qZfMkayVrQkGjw8dKf2Cr_93-bxr8Dp4A2vY669xXZ8oa9-B4Tgo6YppbqpPURZpdiuHmgl2xVKTfy_pUCB8oJMTVF6K5bxz89O74oOkZvF7NaI0LoFZaCbqLwtMGGIpqsUgoJ3uMfSVk1GDPy3MUC-43FPQVNriG7aFVZeIJgYE6SLTibxEmEZX1xhhJKnMI98_7B5OTRUYE2TQuH5PbEald7bxIFV78Cis2ifKKXBCNZU9l-8UzUhlU50jFIcGhc_EhBM1MRCB2zrslEw_7wnaIF9vwLqPM5jkLPsR0ahQ4aP745xXYOa9O5lzGQYcma6tLKSk85-cWLKbte8se6S5CF45XJiyuUIX78NJI74GKH3FTA8SbvLB-99tiHMDde2WUXevfw419Wp-u-NWC-pcWaKS3fJLQqGCJG_3TPR238my7qP3Nd9EzWabQoEPYrkTvd0qNCHpX12O6D51KA7PYJrQh-UEzvxJ0MVJyn3WJ7XowhG2SoHFXt273rNj0CYuhuf4CeJB5Dx-Zo3mOxWoMNMBmMT2y5OFbteI9RGFqL_jCHxm13BlCeqF_JxSbz83FZjo5qsr9S9lRqC1Z1KJcDpOdzpYCdiW-1W75F078NZPuGZjoguni2evZjp9mHMOV9mwtVc6SNZja2hIstepHZDokJ3ncDu8GlmX8Q-UwPWTuS4H-Q4FFtPJZ9nCPrQnBpzPeHcQSflPwIi_GNm00]--></g></svg>