<?xml version="1.0" encoding="us-ascii" standalone="no"?><svg xmlns="http://www.w3.org/2000/svg" xmlns:xlink="http://www.w3.org/1999/xlink" contentStyleType="text/css" height="487px" preserveAspectRatio="none" style="width:351px;height:487px;background:#FFFFFF;" version="1.1" viewBox="0 0 351 487" width="351px" zoomAndPan="magnify"><defs/><g><!--class RE--><g id="elem_RE"><rect codeLine="9" fill="#F1F1F1" height="86.0996" id="RE" rx="2.5" ry="2.5" style="stroke:#181818;stroke-width:0.5;" width="180" x="31" y="7"/><ellipse cx="86.25" cy="31.0679" fill="#A9DCDF" rx="11" ry="11" style="stroke:#181818;stroke-width:1.0;"/><path d="M81.4219,36.8179 L84.7656,24.6304 L87.9063,24.6304 L91.2813,36.8179 L88.8125,36.8179 L88.0781,33.8023 L84.5625,33.8023 L83.8125,36.8179 L81.4219,36.8179 Z M85.8281,28.771 L85.0781,31.771 L87.5938,31.771 L86.875,28.771 Q86.7344,28.1929 86.6094,27.646 Q86.4844,27.0835 86.3438,26.5054 Q86.2344,27.0835 86.0938,27.646 Q85.9531,28.1929 85.8281,28.771 Z " fill="#000000"/><text fill="#000000" font-family="sans-serif" font-size="14" font-style="italic" lengthAdjust="spacing" textLength="61" x="106.75" y="26.9659">Expresi&#243;n</text><text fill="#000000" font-family="sans-serif" font-size="14" font-style="italic" lengthAdjust="spacing" textLength="49" x="112.75" y="46.0339">Regular</text><line style="stroke:#181818;stroke-width:0.5;" x1="32" x2="210" y1="55.1358" y2="55.1358"/><text fill="#000000" font-family="sans-serif" font-size="11" lengthAdjust="spacing" textLength="168" x="37" y="70.8947">Patr&#243;n de b&#250;squeda compuesto</text><text fill="#000000" font-family="sans-serif" font-size="11" lengthAdjust="spacing" textLength="154" x="37" y="85.8766">por literales y metacaracteres</text></g><!--class ANCHOR--><g id="elem_ANCHOR"><rect codeLine="14" fill="#F1F1F1" height="69.9638" id="ANCHOR" rx="2.5" ry="2.5" style="stroke:#181818;stroke-width:0.5;" width="135" x="124.5" y="245.1"/><ellipse cx="167.85" cy="261.1" fill="#A9DCDF" rx="11" ry="11" style="stroke:#181818;stroke-width:1.0;"/><path d="M163.0219,266.85 L166.3656,254.6625 L169.5063,254.6625 L172.8813,266.85 L170.4125,266.85 L169.6781,263.8344 L166.1625,263.8344 L165.4125,266.85 L163.0219,266.85 Z M167.4281,258.8031 L166.6781,261.8031 L169.1938,261.8031 L168.475,258.8031 Q168.3344,258.225 168.2094,257.6781 Q168.0844,257.1156 167.9438,256.5375 Q167.8344,257.1156 167.6938,257.6781 Q167.5531,258.225 167.4281,258.8031 Z " fill="#000000"/><text fill="#000000" font-family="sans-serif" font-size="14" font-style="italic" lengthAdjust="spacing" textLength="40" x="188.15" y="266.532">Anclas</text><line style="stroke:#181818;stroke-width:0.5;" x1="125.5" x2="258.5" y1="277.1" y2="277.1"/><text fill="#000000" font-family="sans-serif" font-size="11" lengthAdjust="spacing" textLength="105" x="130.5" y="292.8589">Posici&#243;n en el texto,</text><text fill="#000000" font-family="sans-serif" font-size="11" lengthAdjust="spacing" textLength="123" x="130.5" y="307.8408">sin consumir caracteres</text></g><!--class LIT--><g id="elem_LIT"><rect codeLine="19" fill="#F1F1F1" height="32" id="LIT" rx="2.5" ry="2.5" style="stroke:#181818;stroke-width:0.5;" width="86" x="7" y="153.1"/><ellipse cx="22" cy="169.1" fill="#A9DCDF" rx="11" ry="11" style="stroke:#181818;stroke-width:1.0;"/><path d="M17.1719,174.85 L20.5156,162.6625 L23.6563,162.6625 L27.0313,174.85 L24.5625,174.85 L23.8281,171.8344 L20.3125,171.8344 L19.5625,174.85 L17.1719,174.85 Z M21.5781,166.8031 L20.8281,169.8031 L23.3438,169.8031 L22.625,166.8031 Q22.4844,166.225 22.3594,165.6781 Q22.2344,165.1156 22.0938,164.5375 Q21.9844,165.1156 21.8438,165.6781 Q21.7031,166.225 21.5781,166.8031 Z " fill="#000000"/><text fill="#000000" font-family="sans-serif" font-size="14" font-style="italic" lengthAdjust="spacing" textLength="54" x="36" y="174.532">Literales</text></g><!--class META--><g id="elem_META"><rect codeLine="20" fill="#F1F1F1" height="32" id="META" rx="2.5" ry="2.5" style="stroke:#181818;stroke-width:0.5;" width="129" x="127.5" y="153.1"/><ellipse cx="142.5" cy="169.1" fill="#A9DCDF" rx="11" ry="11" style="stroke:#181818;stroke-width:1.0;"/><path d="M137.6719,174.85 L141.0156,162.6625 L144.1563,162.6625 L147.5313,174.85 L145.0625,174.85 L144.3281,171.8344 L140.8125,171.8344 L140.0625,174.85 L137.6719,174.85 Z M142.0781,166.8031 L141.3281,169.8031 L143.8438,169.8031 L143.125,166.8031 Q142.9844,166.225 142.8594,165.6781 Q142.7344,165.1156 142.5938,164.5375 Q142.4844,165.1156 142.3438,165.6781 Q142.2031,166.225 142.0781,166.8031 Z " fill="#000000"/><text fill="#000000" font-family="sans-serif" font-size="14" font-style="italic" lengthAdjust="spacing" textLength="97" x="156.5" y="174.532">Metacaracteres</text></g><!--class POS--><g id="elem_POS"><rect codeLine="22" fill="#F1F1F1" height="105.2038" id="POS" rx="2.5" ry="2.5" style="stroke:#181818;stroke-width:0.5;" width="164" x="21" y="375.07"/><ellipse cx="63.9" cy="391.07" fill="#ADD1B2" rx="11" ry="11" style="stroke:#181818;stroke-width:1.0;"/><path d="M63.3688,397.9919 Q61.6188,397.9919 60.4781,397.2575 Q59.3531,396.5075 58.7906,395.1638 Q58.2438,393.8044 58.2438,392.0075 Q58.2438,389.9763 58.9,388.5231 Q59.5563,387.07 60.8375,386.2888 Q62.1188,385.5075 63.9938,385.5075 Q64.8844,385.5075 65.5563,385.695 Q66.2281,385.8669 66.9156,386.2106 L66.1031,388.2263 Q65.4781,387.9138 64.9313,387.7888 Q64.4,387.6638 63.9156,387.6638 Q62.7438,387.6638 62.0406,388.195 Q61.3375,388.7263 61.0406,389.6794 Q60.7438,390.6325 60.7438,391.8981 Q60.7438,393.9138 61.4625,394.8825 Q62.1813,395.8356 63.775,395.8356 Q64.3688,395.8356 64.9938,395.6794 Q65.6188,395.5231 66.4469,395.1481 L66.4469,397.3669 Q65.7125,397.6794 64.9156,397.8356 Q64.1344,397.9919 63.3688,397.9919 Z " fill="#000000"/><text fill="#000000" font-family="sans-serif" font-size="14" lengthAdjust="spacing" textLength="70" x="84.1" y="396.502">Inicio / Fin</text><line style="stroke:#181818;stroke-width:0.5;" x1="22" x2="184" y1="407.07" y2="407.07"/><text fill="#000000" font-family="monospace" font-size="14" lengthAdjust="spacing" textLength="48" x="27" y="426.0359">\A&#160;&#160;\Z</text><line style="stroke:#181818;stroke-width:0.5;" x1="22" x2="184" y1="434.1379" y2="434.1379"/><text fill="#000000" font-family="monospace" font-size="14" lengthAdjust="spacing" textLength="152" x="27" y="453.1039">^&#160;(inicio&#160;de&#160;l&#237;nea)</text><text fill="#000000" font-family="monospace" font-size="14" lengthAdjust="spacing" textLength="128" x="27" y="472.1718">$&#160;(fin&#160;de&#160;l&#237;nea)</text></g><!--class BOUND--><g id="elem_BOUND"><rect codeLine="28" fill="#F1F1F1" height="94.2717" id="BOUND" rx="2.5" ry="2.5" style="stroke:#181818;stroke-width:0.5;" width="124" x="220" y="380.53"/><ellipse cx="248.5" cy="404.5979" fill="#ADD1B2" rx="11" ry="11" style="stroke:#181818;stroke-width:1.0;"/><path d="M247.9688,411.5198 Q246.2188,411.5198 245.0781,410.7854 Q243.9531,410.0354 243.3906,408.6917 Q242.8438,407.3323 242.8438,405.5354 Q242.8438,403.5042 243.5,402.051 Q244.1563,400.5979 245.4375,399.8167 Q246.7188,399.0354 248.5938,399.0354 Q249.4844,399.0354 250.1563,399.2229 Q250.8281,399.3948 251.5156,399.7385 L250.7031,401.7542 Q250.0781,401.4417 249.5313,401.3167 Q249,401.1917 248.5156,401.1917 Q247.3438,401.1917 246.6406,401.7229 Q245.9375,402.2542 245.6406,403.2073 Q245.3438,404.1604 245.3438,405.426 Q245.3438,407.4417 246.0625,408.4104 Q246.7813,409.3635 248.375,409.3635 Q248.9688,409.3635 249.5938,409.2073 Q250.2188,409.051 251.0469,408.676 L251.0469,410.8948 Q250.3125,411.2073 249.5156,411.3635 Q248.7344,411.5198 247.9688,411.5198 Z " fill="#000000"/><text fill="#000000" font-family="sans-serif" font-size="14" lengthAdjust="spacing" textLength="62" x="265.5" y="400.4959">L&#237;mite de</text><text fill="#000000" font-family="sans-serif" font-size="14" lengthAdjust="spacing" textLength="52" x="270.5" y="419.5639">palabra</text><line style="stroke:#181818;stroke-width:0.5;" x1="221" x2="343" y1="428.6658" y2="428.6658"/><text fill="#000000" font-family="monospace" font-size="14" lengthAdjust="spacing" textLength="88" x="226" y="447.6318">\b&#160;(l&#237;mite)</text><text fill="#000000" font-family="monospace" font-size="14" lengthAdjust="spacing" textLength="112" x="226" y="466.6997">\B&#160;(no&#160;l&#237;mite)</text></g><!--reverse link RE to LIT--><g id="link_RE_LIT"><path codeLine="33" d="M86.0348,108.7001 C73.4848,129.3901 68.48,137.64 59.34,152.71 " fill="none" id="RE-backto-LIT" style="stroke:#181818;stroke-width:1.0;"/><polygon fill="none" points="95.37,93.31,80.9048,105.5883,91.1648,111.8118,95.37,93.31" style="stroke:#181818;stroke-width:1.0;"/></g><!--reverse link RE to META--><g id="link_RE_META"><path codeLine="34" d="M155.9652,108.7001 C168.5152,129.3901 173.52,137.64 182.66,152.71 " fill="none" id="RE-backto-META" style="stroke:#181818;stroke-width:1.0;"/><polygon fill="none" points="146.63,93.31,150.8352,111.8118,161.0952,105.5883,146.63,93.31" style="stroke:#181818;stroke-width:1.0;"/></g><!--link LIT to META--><!--reverse link META to ANCHOR--><g id="link_META_ANCHOR"><path codeLine="38" d="M192,203.26 C192,218.58 192,224.79 192,244.78 " fill="none" id="META-backto-ANCHOR" style="stroke:#181818;stroke-width:1.0;"/><polygon fill="none" points="192,185.26,186,203.26,198,203.26,192,185.26" style="stroke:#181818;stroke-width:1.0;"/></g><!--reverse link ANCHOR to POS--><g id="link_ANCHOR_POS"><path codeLine="40" d="M161.7407,330.5771 C150.9007,348.3071 146.82,355 134.72,374.79 " fill="none" id="ANCHOR-backto-POS" style="stroke:#181818;stroke-width:1.0;"/><polygon fill="none" points="171.13,315.22,156.6217,327.4474,166.8598,333.7069,171.13,315.22" style="stroke:#181818;stroke-width:1.0;"/></g><!--reverse link ANCHOR to BOUND--><g id="link_ANCHOR_BOUND"><path codeLine="41" d="M222.5651,330.5305 C234.5151,349.8605 240.17,359 253.2,380.07 " fill="none" id="ANCHOR-backto-BOUND" style="stroke:#181818;stroke-width:1.0;"/><polygon fill="none" points="213.1,315.22,217.4616,333.6855,227.6686,327.3755,213.1,315.22" style="stroke:#181818;stroke-width:1.0;"/></g><!--link POS to BOUND--><!--SRC=[ZPBFQXin4CRlUeh11En2ZUzXCMnQXmGSExZffNKBixlZH4H_jj8inBHzf9nwwzKlrf4sJkn2Is2rIADlFdwVf66yrwx5W1QCTiJRbg3rPfiMQcXemy0UWhwzOsXqe9grTsfufnk2MeVQaCfpiYrlmPAjAAWNpzfWZ2Lpq5N7TEuTBz0IMEzyRB6cvc_jioIYY-D8GM-KmYfom9fXC7je0qMz- -NMRaMtdS4m08omci5t1L1ifFtqfNLQnAwQNYC7wG31h7Q_uxUE6eJQsxQZoBwO94qnIQtJVtgqFiW1CGKq524bPQmnGP407NlyF2GkNSgL8Sl5kulbwd-WFkewXGEIpm3J0_kthmECsaac5pkh0xoARBwFa-7cbpS7UrT7yRBWQdPJAfKl2GQNJa0zJE1SkxnxlVoGWts5aUxtvBJDxj4Hlf7o2OmssXtNrgMCJudfoNI-UxJ29AgrF0c3LS3iVRRyk7YVtTSLZ4oloWvdC78UdYjY9G-X-34UvpZxUKyk5HX_biVQaFiIzjNqxrNzxIZrT4kv9gcErfb4gHJsqAel_m40]--></g></svg>