<?xml version="1.0" encoding="us-ascii" standalone="no"?><svg xmlns="http://www.w3.org/2000/svg" xmlns:xlink="http://www.w3.org/1999/xlink" contentStyleType="text/css" height="464px" preserveAspectRatio="none" style="width:534px;height:464px;background:#FFFFFF;" version="1.1" viewBox="0 0 534 464" width="534px" zoomAndPan="magnify"><defs/><g><!--class RE--><g id="elem_RE"><rect codeLine="9" fill="#F1F1F1" height="86.0996" id="RE" rx="2.5" ry="2.5" style="stroke:#181818;stroke-width:0.5;" width="180" x="135" y="7"/><ellipse cx="190.25" cy="31.0679" fill="#A9DCDF" rx="11" ry="11" style="stroke:#181818;stroke-width:1.0;"/><path d="M185.4219,36.8179 L188.7656,24.6304 L191.9063,24.6304 L195.2813,36.8179 L192.8125,36.8179 L192.0781,33.8023 L188.5625,33.8023 L187.8125,36.8179 L185.4219,36.8179 Z M189.8281,28.771 L189.0781,31.771 L191.5938,31.771 L190.875,28.771 Q190.7344,28.1929 190.6094,27.646 Q190.4844,27.0835 190.3438,26.5054 Q190.2344,27.0835 190.0938,27.646 Q189.9531,28.1929 189.8281,28.771 Z " fill="#000000"/><text fill="#000000" font-family="sans-serif" font-size="14" font-style="italic" lengthAdjust="spacing" textLength="61" x="210.75" y="26.9659">Expresi&#243;n</text><text fill="#000000" font-family="sans-serif" font-size="14" font-style="italic" lengthAdjust="spacing" textLength="49" x="216.75" y="46.0339">Regular</text><line style="stroke:#181818;stroke-width:0.5;" x1="136" x2="314" y1="55.1358" y2="55.1358"/><text fill="#000000" font-family="sans-serif" font-size="11" lengthAdjust="spacing" textLength="168" x="141" y="70.8947">Patr&#243;n de b&#250;squeda compuesto</text><text fill="#000000" font-family="sans-serif" font-size="11" lengthAdjust="spacing" textLength="154" x="141" y="85.8766">por literales y metacaracteres</text></g><!--class FLAGS--><g id="elem_FLAGS"><rect codeLine="14" fill="#F1F1F1" height="69.9638" id="FLAGS" rx="2.5" ry="2.5" style="stroke:#181818;stroke-width:0.5;" width="177" x="207.5" y="245.1"/><ellipse cx="275.25" cy="261.1" fill="#A9DCDF" rx="11" ry="11" style="stroke:#181818;stroke-width:1.0;"/><path d="M270.4219,266.85 L273.7656,254.6625 L276.9063,254.6625 L280.2813,266.85 L277.8125,266.85 L277.0781,263.8344 L273.5625,263.8344 L272.8125,266.85 L270.4219,266.85 Z M274.8281,258.8031 L274.0781,261.8031 L276.5938,261.8031 L275.875,258.8031 Q275.7344,258.225 275.6094,257.6781 Q275.4844,257.1156 275.3438,256.5375 Q275.2344,257.1156 275.0938,257.6781 Q274.9531,258.225 274.8281,258.8031 Z " fill="#000000"/><text fill="#000000" font-family="sans-serif" font-size="14" font-style="italic" lengthAdjust="spacing" textLength="33" x="295.75" y="266.532">Flags</text><line style="stroke:#181818;stroke-width:0.5;" x1="208.5" x2="383.5" y1="277.1" y2="277.1"/><text fill="#000000" font-family="sans-serif" font-size="11" lengthAdjust="spacing" textLength="122" x="213.5" y="292.8589">Modificadores globales</text><text fill="#000000" font-family="sans-serif" font-size="11" lengthAdjust="spacing" textLength="165" x="213.5" y="307.8408">del comportamiento del patr&#243;n</text></g><!--class LIT--><g id="elem_LIT"><rect codeLine="19" fill="#F1F1F1" height="32" id="LIT" rx="2.5" ry="2.5" style="stroke:#181818;stroke-width:0.5;" width="86" x="111" y="153.1"/><ellipse cx="126" cy="169.1" fill="#A9DCDF" rx="11" ry="11" style="stroke:#181818;stroke-width:1.0;"/><path d="M121.1719,174.85 L124.5156,162.6625 L127.6563,162.6625 L131.0313,174.85 L128.5625,174.85 L127.8281,171.8344 L124.3125,171.8344 L123.5625,174.85 L121.1719,174.85 Z M125.5781,166.8031 L124.8281,169.8031 L127.3438,169.8031 L126.625,166.8031 Q126.4844,166.225 126.3594,165.6781 Q126.2344,165.1156 126.0938,164.5375 Q125.9844,165.1156 125.8438,165.6781 Q125.7031,166.225 125.5781,166.8031 Z " fill="#000000"/><text fill="#000000" font-family="sans-serif" font-size="14" font-style="italic" lengthAdjust="spacing" textLength="54" x="140" y="174.532">Literales</text></g><!--class META--><g id="elem_META"><rect codeLine="20" fill="#F1F1F1" height="32" id="META" rx="2.5" ry="2.5" style="stroke:#181818;stroke-width:0.5;" width="129" x="231.5" y="153.1"/><ellipse cx="246.5" cy="169.1" fill="#A9DCDF" rx="11" ry="11" style="stroke:#181818;stroke-width:1.0;"/><path d="M241.6719,174.85 L245.0156,162.6625 L248.1563,162.6625 L251.5313,174.85 L249.0625,174.85 L248.3281,171.8344 L244.8125,171.8344 L244.0625,174.85 L241.6719,174.85 Z M246.0781,166.8031 L245.3281,169.8031 L247.8438,169.8031 L247.125,166.8031 Q246.9844,166.225 246.8594,165.6781 Q246.7344,165.1156 246.5938,164.5375 Q246.4844,165.1156 246.3438,165.6781 Q246.2031,166.225 246.0781,166.8031 Z " fill="#000000"/><text fill="#000000" font-family="sans-serif" font-size="14" font-style="italic" lengthAdjust="spacing" textLength="97" x="260.5" y="174.532">Metacaracteres</text></g><!--class FLAG_I--><g id="elem_FLAG_I"><rect codeLine="22" fill="#F1F1F1" height="75.2038" id="FLAG_I" rx="2.5" ry="2.5" style="stroke:#181818;stroke-width:0.5;" width="114" x="7" y="378.48"/><ellipse cx="22" cy="402.5479" fill="#ADD1B2" rx="11" ry="11" style="stroke:#181818;stroke-width:1.0;"/><path d="M21.4688,409.4698 Q19.7188,409.4698 18.5781,408.7354 Q17.4531,407.9854 16.8906,406.6417 Q16.3438,405.2823 16.3438,403.4854 Q16.3438,401.4542 17,400.001 Q17.6563,398.5479 18.9375,397.7667 Q20.2188,396.9854 22.0938,396.9854 Q22.9844,396.9854 23.6563,397.1729 Q24.3281,397.3448 25.0156,397.6885 L24.2031,399.7042 Q23.5781,399.3917 23.0313,399.2667 Q22.5,399.1417 22.0156,399.1417 Q20.8438,399.1417 20.1406,399.6729 Q19.4375,400.2042 19.1406,401.1573 Q18.8438,402.1104 18.8438,403.376 Q18.8438,405.3917 19.5625,406.3604 Q20.2813,407.3135 21.875,407.3135 Q22.4688,407.3135 23.0938,407.1573 Q23.7188,407.001 24.5469,406.626 L24.5469,408.8448 Q23.8125,409.1573 23.0156,409.3135 Q22.2344,409.4698 21.4688,409.4698 Z " fill="#000000"/><text fill="#000000" font-family="sans-serif" font-size="14" lengthAdjust="spacing" textLength="82" x="36" y="398.4459">Insensible a</text><text fill="#000000" font-family="sans-serif" font-size="14" lengthAdjust="spacing" textLength="79" x="37.5" y="417.5139">may&#250;sculas</text><line style="stroke:#181818;stroke-width:0.5;" x1="8" x2="120" y1="426.6158" y2="426.6158"/><text fill="#000000" font-family="monospace" font-size="14" lengthAdjust="spacing" textLength="8" x="13" y="445.5818">i</text></g><!--class FLAG_G--><g id="elem_FLAG_G"><rect codeLine="26" fill="#F1F1F1" height="82.0498" id="FLAG_G" rx="2.5" ry="2.5" style="stroke:#181818;stroke-width:0.5;" width="130" x="156" y="375.06"/><ellipse cx="195.75" cy="391.06" fill="#ADD1B2" rx="11" ry="11" style="stroke:#181818;stroke-width:1.0;"/><path d="M195.2188,397.9819 Q193.4688,397.9819 192.3281,397.2475 Q191.2031,396.4975 190.6406,395.1538 Q190.0938,393.7944 190.0938,391.9975 Q190.0938,389.9663 190.75,388.5131 Q191.4063,387.06 192.6875,386.2788 Q193.9688,385.4975 195.8438,385.4975 Q196.7344,385.4975 197.4063,385.685 Q198.0781,385.8569 198.7656,386.2006 L197.9531,388.2163 Q197.3281,387.9038 196.7813,387.7788 Q196.25,387.6538 195.7656,387.6538 Q194.5938,387.6538 193.8906,388.185 Q193.1875,388.7163 192.8906,389.6694 Q192.5938,390.6225 192.5938,391.8881 Q192.5938,393.9038 193.3125,394.8725 Q194.0313,395.8256 195.625,395.8256 Q196.2188,395.8256 196.8438,395.6694 Q197.4688,395.5131 198.2969,395.1381 L198.2969,397.3569 Q197.5625,397.6694 196.7656,397.8256 Q195.9844,397.9819 195.2188,397.9819 Z " fill="#000000"/><text fill="#000000" font-family="sans-serif" font-size="14" lengthAdjust="spacing" textLength="43" x="215.25" y="396.492">Global</text><line style="stroke:#181818;stroke-width:0.5;" x1="157" x2="285" y1="407.06" y2="407.06"/><text fill="#000000" font-family="monospace" font-size="14" lengthAdjust="spacing" textLength="8" x="162" y="426.0259">g</text><line style="stroke:#181818;stroke-width:1.0;" x1="157" x2="285" y1="434.1279" y2="434.1279"/><text fill="#000000" font-family="sans-serif" font-size="11" lengthAdjust="spacing" textLength="118" x="162" y="449.8868">todas las coincidencias</text></g><!--class FLAG_M--><g id="elem_FLAG_M"><rect codeLine="32" fill="#F1F1F1" height="82.0498" id="FLAG_M" rx="2.5" ry="2.5" style="stroke:#181818;stroke-width:0.5;" width="100" x="321" y="375.06"/><ellipse cx="336" cy="391.06" fill="#ADD1B2" rx="11" ry="11" style="stroke:#181818;stroke-width:1.0;"/><path d="M335.4688,397.9819 Q333.7188,397.9819 332.5781,397.2475 Q331.4531,396.4975 330.8906,395.1538 Q330.3438,393.7944 330.3438,391.9975 Q330.3438,389.9663 331,388.5131 Q331.6563,387.06 332.9375,386.2788 Q334.2188,385.4975 336.0938,385.4975 Q336.9844,385.4975 337.6563,385.685 Q338.3281,385.8569 339.0156,386.2006 L338.2031,388.2163 Q337.5781,387.9038 337.0313,387.7788 Q336.5,387.6538 336.0156,387.6538 Q334.8438,387.6538 334.1406,388.185 Q333.4375,388.7163 333.1406,389.6694 Q332.8438,390.6225 332.8438,391.8881 Q332.8438,393.9038 333.5625,394.8725 Q334.2813,395.8256 335.875,395.8256 Q336.4688,395.8256 337.0938,395.6694 Q337.7188,395.5131 338.5469,395.1381 L338.5469,397.3569 Q337.8125,397.6694 337.0156,397.8256 Q336.2344,397.9819 335.4688,397.9819 Z " fill="#000000"/><text fill="#000000" font-family="sans-serif" font-size="14" lengthAdjust="spacing" textLength="68" x="350" y="396.492">Multil&#237;nea</text><line style="stroke:#181818;stroke-width:0.5;" x1="322" x2="420" y1="407.06" y2="407.06"/><text fill="#000000" font-family="monospace" font-size="14" lengthAdjust="spacing" textLength="8" x="327" y="426.0259">m</text><line style="stroke:#181818;stroke-width:1.0;" x1="322" x2="420" y1="434.1279" y2="434.1279"/><text fill="#000000" font-family="sans-serif" font-size="11" lengthAdjust="spacing" textLength="74" x="327" y="449.8868">^ y $ por l&#237;nea</text></g><!--class FLAG_S--><g id="elem_FLAG_S"><rect codeLine="38" fill="#F1F1F1" height="82.0498" id="FLAG_S" rx="2.5" ry="2.5" style="stroke:#181818;stroke-width:0.5;" width="71" x="456.5" y="375.06"/><ellipse cx="471.5" cy="391.06" fill="#ADD1B2" rx="11" ry="11" style="stroke:#181818;stroke-width:1.0;"/><path d="M470.9688,397.9819 Q469.2188,397.9819 468.0781,397.2475 Q466.9531,396.4975 466.3906,395.1538 Q465.8438,393.7944 465.8438,391.9975 Q465.8438,389.9663 466.5,388.5131 Q467.1563,387.06 468.4375,386.2788 Q469.7188,385.4975 471.5938,385.4975 Q472.4844,385.4975 473.1563,385.685 Q473.8281,385.8569 474.5156,386.2006 L473.7031,388.2163 Q473.0781,387.9038 472.5313,387.7788 Q472,387.6538 471.5156,387.6538 Q470.3438,387.6538 469.6406,388.185 Q468.9375,388.7163 468.6406,389.6694 Q468.3438,390.6225 468.3438,391.8881 Q468.3438,393.9038 469.0625,394.8725 Q469.7813,395.8256 471.375,395.8256 Q471.9688,395.8256 472.5938,395.6694 Q473.2188,395.5131 474.0469,395.1381 L474.0469,397.3569 Q473.3125,397.6694 472.5156,397.8256 Q471.7344,397.9819 470.9688,397.9819 Z " fill="#000000"/><text fill="#000000" font-family="sans-serif" font-size="14" lengthAdjust="spacing" textLength="39" x="485.5" y="396.492">Dotall</text><line style="stroke:#181818;stroke-width:0.5;" x1="457.5" x2="526.5" y1="407.06" y2="407.06"/><text fill="#000000" font-family="monospace" font-size="14" lengthAdjust="spacing" textLength="8" x="462.5" y="426.0259">s</text><line style="stroke:#181818;stroke-width:1.0;" x1="457.5" x2="526.5" y1="434.1279" y2="434.1279"/><text fill="#000000" font-family="sans-serif" font-size="11" lengthAdjust="spacing" textLength="57" x="462.5" y="449.8868">. incluye \n</text></g><!--reverse link RE to LIT--><g id="link_RE_LIT"><path codeLine="44" d="M190.0381,108.6921 C177.4881,129.3921 172.48,137.64 163.34,152.7 " fill="none" id="RE-backto-LIT" style="stroke:#181818;stroke-width:1.0;"/><polygon fill="none" points="199.37,93.3,184.9074,105.5814,195.1688,111.8027,199.37,93.3" style="stroke:#181818;stroke-width:1.0;"/></g><!--reverse link RE to META--><g id="link_RE_META"><path codeLine="45" d="M259.9619,108.6921 C272.5119,129.3921 277.52,137.64 286.66,152.7 " fill="none" id="RE-backto-META" style="stroke:#181818;stroke-width:1.0;"/><polygon fill="none" points="250.63,93.3,254.8312,111.8027,265.0926,105.5814,250.63,93.3" style="stroke:#181818;stroke-width:1.0;"/></g><!--link LIT to META--><!--reverse link META to FLAGS--><g id="link_META_FLAGS"><path codeLine="49" d="M296,203.25 C296,218.57 296,224.78 296,244.77 " fill="none" id="META-backto-FLAGS" style="stroke:#181818;stroke-width:1.0;"/><polygon fill="none" points="296,185.25,290,203.25,302,203.25,296,185.25" style="stroke:#181818;stroke-width:1.0;"/></g><!--reverse link FLAGS to FLAG_I--><g id="link_FLAGS_FLAG_I"><path codeLine="51" d="M220.974,324.4143 C185.524,344.8943 156.34,361.75 121.29,381.99 " fill="none" id="FLAGS-backto-FLAG_I" style="stroke:#181818;stroke-width:1.0;"/><polygon fill="none" points="236.56,315.41,217.9726,319.2189,223.9754,329.6096,236.56,315.41" style="stroke:#181818;stroke-width:1.0;"/></g><!--reverse link FLAGS to FLAG_G--><g id="link_FLAGS_FLAG_G"><path codeLine="52" d="M268.0878,330.9466 C257.9278,349.0966 254.18,355.8 243.55,374.79 " fill="none" id="FLAGS-backto-FLAG_G" style="stroke:#181818;stroke-width:1.0;"/><polygon fill="none" points="276.88,315.24,262.8522,328.0158,273.3233,333.8773,276.88,315.24" style="stroke:#181818;stroke-width:1.0;"/></g><!--reverse link FLAGS to FLAG_M--><g id="link_FLAGS_FLAG_M"><path codeLine="53" d="M323.9122,330.9466 C334.0722,349.0966 337.82,355.8 348.45,374.79 " fill="none" id="FLAGS-backto-FLAG_M" style="stroke:#181818;stroke-width:1.0;"/><polygon fill="none" points="315.12,315.24,318.6767,333.8773,329.1478,328.0158,315.12,315.24" style="stroke:#181818;stroke-width:1.0;"/></g><!--reverse link FLAGS to FLAG_S--><g id="link_FLAGS_FLAG_S"><path codeLine="54" d="M365.3168,325.2816 C392.2968,342.7216 410.11,354.69 439,375.06 C444.56,378.98 450.37,383.22 456.03,387.42 " fill="none" id="FLAGS-backto-FLAG_S" style="stroke:#181818;stroke-width:1.0;"/><polygon fill="none" points="350.2,315.51,362.0596,330.3205,368.574,320.2426,350.2,315.51" style="stroke:#181818;stroke-width:1.0;"/></g><!--link FLAG_I to FLAG_G--><!--link FLAG_G to FLAG_M--><!--link FLAG_M to FLAG_S--><!--SRC=[ZLF1Rjim3BthAuYWG4vUxuKH8C2I840y36rlorRGCkCAaoLFae4PspvffzrspO-DbfFQhP5s1misnKU-nqVF_LTbQdHOWLQ6GbiJr5QttOUOQpe421QSAXy35CgH3CeQCNzK1O5KJceIyPsgEhHGKPMJ4qDDgT7xPGXEvKsWjJNX0rO4bJNMroYfU9dxbEBH-CIJKmSXCFV1eGmmMtsl7Nbr_6FsvfRAHgER0NguNS4F0P0U67upG1UfR_B5HmoE4S0qy-DV_wsX0a7Qgcx81vjUTpdfTGTTNAnHMyS32kHGauTEQK297IbYGizh_1epNciiVUIutYqtTw_Gp6oX3afYORaYbDhcNQ__erUGZegi2rWfCknP5wfxvQ_GsvqrHOgxxVteBdkcCIPag_kb4D4fc6sD9-DLhWbmRofiURYIBHdaFcoZNjNrF84sKTUGiOaP9Jz9abpK5sp10Ax0AfMHl75yu7JkfoPPeuFInz-6SEYKnKxL6vs-iBbN4EsE-4ijtjk0UgIZTzQ_KVqTC7lTj0Jx_TGMtkBqPv946yxl_SGv0iad_jDO-6TtZdPddnLtIuX-nPuY3zj9P3E9P9F8gH2RDsuvWhDfavk-30zvSdCd_W40]--></g></svg>