<?xml version="1.0" encoding="us-ascii" standalone="no"?><svg xmlns="http://www.w3.org/2000/svg" xmlns:xlink="http://www.w3.org/1999/xlink" contentStyleType="text/css" height="1392px" preserveAspectRatio="none" style="width:1705px;height:1392px;background:#FFFFFF;" version="1.1" viewBox="0 0 1705 1392" width="1705px" zoomAndPan="magnify"><defs/><g><!--cluster Literales--><g id="cluster_Literales"><path d="M513.5,104.21 L573.5,104.21 A3.75,3.75 0 0 1 576,106.71 L583,129.2779 L856.5,129.2779 A2.5,2.5 0 0 1 859,131.7779 L859,476.72 A2.5,2.5 0 0 1 856.5,479.22 L513.5,479.22 A2.5,2.5 0 0 1 511,476.72 L511,106.71 A2.5,2.5 0 0 1 513.5,104.21 " fill="none" style="stroke:#000000;stroke-width:1.5;"/><line style="stroke:#000000;stroke-width:1.5;" x1="511" x2="583" y1="129.2779" y2="129.2779"/><text fill="#000000" font-family="sans-serif" font-size="14" font-weight="bold" lengthAdjust="spacing" textLength="59" x="515" y="121.1759">Literales</text></g><!--cluster Cuantificadores--><g id="cluster_Cuantificadores"><path d="M8.5,559.75 L117.5,559.75 A3.75,3.75 0 0 1 120,562.25 L127,584.8179 L439.5,584.8179 A2.5,2.5 0 0 1 442,587.3179 L442,918.73 A2.5,2.5 0 0 1 439.5,921.23 L8.5,921.23 A2.5,2.5 0 0 1 6,918.73 L6,562.25 A2.5,2.5 0 0 1 8.5,559.75 " fill="none" style="stroke:#000000;stroke-width:1.5;"/><line style="stroke:#000000;stroke-width:1.5;" x1="6" x2="127" y1="584.8179" y2="584.8179"/><text fill="#000000" font-family="sans-serif" font-size="14" font-weight="bold" lengthAdjust="spacing" textLength="108" x="10" y="576.7159">Cuantificadores</text></g><!--cluster Anclas--><g id="cluster_Anclas"><path d="M468.5,569.29 L514.5,569.29 A3.75,3.75 0 0 1 517,571.79 L524,594.3579 L673.5,594.3579 A2.5,2.5 0 0 1 676,596.8579 L676,918.73 A2.5,2.5 0 0 1 673.5,921.23 L468.5,921.23 A2.5,2.5 0 0 1 466,918.73 L466,571.79 A2.5,2.5 0 0 1 468.5,569.29 " fill="none" style="stroke:#000000;stroke-width:1.5;"/><line style="stroke:#000000;stroke-width:1.5;" x1="466" x2="524" y1="594.3579" y2="594.3579"/><text fill="#000000" font-family="sans-serif" font-size="14" font-weight="bold" lengthAdjust="spacing" textLength="45" x="470" y="586.2559">Anclas</text></g><!--cluster Clases de caracteres--><g id="cluster_Clases de caracteres"><path d="M473.5,1043.36 L613.5,1043.36 A3.75,3.75 0 0 1 616,1045.86 L623,1068.4279 L927.5,1068.4279 A2.5,2.5 0 0 1 930,1070.9279 L930,1383.27 A2.5,2.5 0 0 1 927.5,1385.77 L473.5,1385.77 A2.5,2.5 0 0 1 471,1383.27 L471,1045.86 A2.5,2.5 0 0 1 473.5,1043.36 " fill="none" style="stroke:#000000;stroke-width:1.5;"/><line style="stroke:#000000;stroke-width:1.5;" x1="471" x2="623" y1="1068.4279" y2="1068.4279"/><text fill="#000000" font-family="sans-serif" font-size="14" font-weight="bold" lengthAdjust="spacing" textLength="139" x="475" y="1060.3259">Clases de caracteres</text></g><!--cluster Agrupaci?n y captura--><g id="cluster_Agrupaci&#243;n y captura"><path d="M956.5,1043.36 L1106.5,1043.36 A3.75,3.75 0 0 1 1109,1045.86 L1116,1068.4279 L1346.5,1068.4279 A2.5,2.5 0 0 1 1349,1070.9279 L1349,1383.27 A2.5,2.5 0 0 1 1346.5,1385.77 L956.5,1385.77 A2.5,2.5 0 0 1 954,1383.27 L954,1045.86 A2.5,2.5 0 0 1 956.5,1043.36 " fill="none" style="stroke:#000000;stroke-width:1.5;"/><line style="stroke:#000000;stroke-width:1.5;" x1="954" x2="1116" y1="1068.4279" y2="1068.4279"/><text fill="#000000" font-family="sans-serif" font-size="14" font-weight="bold" lengthAdjust="spacing" textLength="149" x="958" y="1060.3259">Agrupaci&#243;n y captura</text></g><!--cluster Lookaround--><g id="cluster_Lookaround"><path d="M1375.5,811.09 L1461.5,811.09 A3.75,3.75 0 0 1 1464,813.59 L1471,836.1579 L1695.5,836.1579 A2.5,2.5 0 0 1 1698,838.6579 L1698,1151 A2.5,2.5 0 0 1 1695.5,1153.5 L1375.5,1153.5 A2.5,2.5 0 0 1 1373,1151 L1373,813.59 A2.5,2.5 0 0 1 1375.5,811.09 " fill="none" style="stroke:#000000;stroke-width:1.5;"/><line style="stroke:#000000;stroke-width:1.5;" x1="1373" x2="1471" y1="836.1579" y2="836.1579"/><text fill="#000000" font-family="sans-serif" font-size="14" font-weight="bold" lengthAdjust="spacing" textLength="85" x="1377" y="828.0559">Lookaround</text></g><!--cluster Flags--><g id="cluster_Flags"><path d="M702.5,569.29 L739.5,569.29 A3.75,3.75 0 0 1 742,571.79 L749,594.3579 L1038.5,594.3579 A2.5,2.5 0 0 1 1041,596.8579 L1041,905.19 A2.5,2.5 0 0 1 1038.5,907.69 L702.5,907.69 A2.5,2.5 0 0 1 700,905.19 L700,571.79 A2.5,2.5 0 0 1 702.5,569.29 " fill="none" style="stroke:#000000;stroke-width:1.5;"/><line style="stroke:#000000;stroke-width:1.5;" x1="700" x2="749" y1="594.3579" y2="594.3579"/><text fill="#000000" font-family="sans-serif" font-size="14" font-weight="bold" lengthAdjust="spacing" textLength="36" x="704" y="586.2559">Flags</text></g><!--class LIT--><g id="elem_LIT"><rect codeLine="13" fill="#F1F1F1" height="75.2038" id="LIT" rx="2.5" ry="2.5" style="stroke:#181818;stroke-width:0.5;" width="220" x="590" y="142.21"/><text fill="#000000" font-family="sans-serif" font-size="14" lengthAdjust="spacing" textLength="57" x="671.5" y="162.1759">Literales</text><line style="stroke:#181818;stroke-width:0.5;" x1="591" x2="809" y1="171.2779" y2="171.2779"/><text fill="#000000" font-family="sans-serif" font-size="14" lengthAdjust="spacing" textLength="208" x="596" y="190.2439">Caracteres que se representan</text><text fill="#000000" font-family="sans-serif" font-size="14" lengthAdjust="spacing" textLength="165" x="596" y="209.3118">a s&#237; mismos en el patr&#243;n</text></g><!--class ALFA--><g id="elem_ALFA"><rect codeLine="18" fill="#F1F1F1" height="56.1358" id="ALFA" rx="2.5" ry="2.5" style="stroke:#181818;stroke-width:0.5;" width="103" x="527.5" y="277.41"/><text fill="#000000" font-family="sans-serif" font-size="14" lengthAdjust="spacing" textLength="97" x="530.5" y="297.3759">Alfanum&#233;ricos</text><line style="stroke:#181818;stroke-width:0.5;" x1="528.5" x2="629.5" y1="306.4779" y2="306.4779"/><text fill="#000000" font-family="sans-serif" font-size="14" lengthAdjust="spacing" textLength="53" x="533.5" y="325.4439">hola123</text></g><!--class ESC_META--><g id="elem_ESC_META"><rect codeLine="22" fill="#F1F1F1" height="56.1358" id="ESC_META" rx="2.5" ry="2.5" style="stroke:#181818;stroke-width:0.5;" width="185" x="574.5" y="407.08"/><text fill="#000000" font-family="sans-serif" font-size="14" lengthAdjust="spacing" textLength="179" x="577.5" y="427.0459">Metacaracteres escapados</text><line style="stroke:#181818;stroke-width:0.5;" x1="575.5" x2="758.5" y1="436.1479" y2="436.1479"/><text fill="#000000" font-family="sans-serif" font-size="14" lengthAdjust="spacing" textLength="84" x="580.5" y="455.1139">\. \* \+ \? \( \)</text></g><!--class ESC_SP--><g id="elem_ESC_SP"><rect codeLine="26" fill="#F1F1F1" height="56.1358" id="ESC_SP" rx="2.5" ry="2.5" style="stroke:#181818;stroke-width:0.5;" width="139" x="703.5" y="277.41"/><text fill="#000000" font-family="sans-serif" font-size="14" lengthAdjust="spacing" textLength="133" x="706.5" y="297.3759">Espacios escapados</text><line style="stroke:#181818;stroke-width:0.5;" x1="704.5" x2="841.5" y1="306.4779" y2="306.4779"/><text fill="#000000" font-family="sans-serif" font-size="14" lengthAdjust="spacing" textLength="53" x="709.5" y="325.4439">\&#964;  \n  \r</text></g><!--class QUANT--><g id="elem_QUANT"><rect codeLine="37" fill="#F1F1F1" height="75.2038" id="QUANT" rx="2.5" ry="2.5" style="stroke:#181818;stroke-width:0.5;" width="181" x="205.5" y="597.75"/><text fill="#000000" font-family="sans-serif" font-size="14" lengthAdjust="spacing" textLength="106" x="243" y="617.7159">Cuantificadores</text><line style="stroke:#181818;stroke-width:0.5;" x1="206.5" x2="385.5" y1="626.8179" y2="626.8179"/><text fill="#000000" font-family="sans-serif" font-size="14" lengthAdjust="spacing" textLength="153" x="211.5" y="645.7839">Controlan repeticiones</text><text fill="#000000" font-family="sans-serif" font-size="14" lengthAdjust="spacing" textLength="169" x="211.5" y="664.8518">del elemento precedente</text></g><!--class GREEDY--><g id="elem_GREEDY"><rect codeLine="42" fill="#F1F1F1" height="56.1358" id="GREEDY" rx="2.5" ry="2.5" style="stroke:#181818;stroke-width:0.5;" width="200" x="22" y="732.96"/><text fill="#000000" font-family="sans-serif" font-size="14" lengthAdjust="spacing" textLength="111" x="66.5" y="752.9259">Voraces (greedy)</text><line style="stroke:#181818;stroke-width:0.5;" x1="23" x2="221" y1="762.0279" y2="762.0279"/><text fill="#000000" font-family="sans-serif" font-size="14" lengthAdjust="spacing" textLength="188" x="28" y="780.9939">&#8727; (0+)  + (1+)  ? (0 o 1)  {n,m}</text></g><!--class LAZY--><g id="elem_LAZY"><rect codeLine="46" fill="#F1F1F1" height="56.1358" id="LAZY" rx="2.5" ry="2.5" style="stroke:#181818;stroke-width:0.5;" width="124" x="196" y="849.09"/><text fill="#000000" font-family="sans-serif" font-size="14" lengthAdjust="spacing" textLength="105" x="205.5" y="869.0559">Perezosos (lazy)</text><line style="stroke:#181818;stroke-width:0.5;" x1="197" x2="319" y1="878.1579" y2="878.1579"/><text fill="#000000" font-family="sans-serif" font-size="14" lengthAdjust="spacing" textLength="112" x="202" y="897.1239">&#8727;?  +?  ??  {n,m}?</text></g><!--class POSS--><g id="elem_POSS"><rect codeLine="50" fill="#F1F1F1" height="56.1358" id="POSS" rx="2.5" ry="2.5" style="stroke:#181818;stroke-width:0.5;" width="132" x="294" y="732.96"/><text fill="#000000" font-family="sans-serif" font-size="14" lengthAdjust="spacing" textLength="64" x="328" y="752.9259">Posesivos</text><line style="stroke:#181818;stroke-width:0.5;" x1="295" x2="425" y1="762.0279" y2="762.0279"/><text fill="#000000" font-family="sans-serif" font-size="14" lengthAdjust="spacing" textLength="120" x="300" y="780.9939">&#8727;+  ++  ?+  {n,m}+</text></g><!--class ANCHOR--><g id="elem_ANCHOR"><rect codeLine="57" fill="#F1F1F1" height="56.1358" id="ANCHOR" rx="2.5" ry="2.5" style="stroke:#181818;stroke-width:0.5;" width="179" x="481.5" y="607.29"/><text fill="#000000" font-family="sans-serif" font-size="14" lengthAdjust="spacing" textLength="44" x="549" y="627.2559">Anclas</text><line style="stroke:#181818;stroke-width:0.5;" x1="482.5" x2="659.5" y1="636.3579" y2="636.3579"/><text fill="#000000" font-family="sans-serif" font-size="14" lengthAdjust="spacing" textLength="167" x="487.5" y="655.3239">No consumen caracteres</text></g><!--class POS--><g id="elem_POS"><rect codeLine="61" fill="#F1F1F1" height="56.1358" id="POS" rx="2.5" ry="2.5" style="stroke:#181818;stroke-width:0.5;" width="79" x="482.5" y="732.96"/><text fill="#000000" font-family="sans-serif" font-size="14" lengthAdjust="spacing" textLength="70" x="487" y="752.9259">Inicio / Fin</text><line style="stroke:#181818;stroke-width:0.5;" x1="483.5" x2="560.5" y1="762.0279" y2="762.0279"/><text fill="#000000" font-family="sans-serif" font-size="14" lengthAdjust="spacing" textLength="67" x="488.5" y="780.9939">^  $  \A  \Z</text></g><!--class BOUND--><g id="elem_BOUND"><rect codeLine="65" fill="#F1F1F1" height="56.1358" id="BOUND" rx="2.5" ry="2.5" style="stroke:#181818;stroke-width:0.5;" width="124" x="535" y="849.09"/><text fill="#000000" font-family="sans-serif" font-size="14" lengthAdjust="spacing" textLength="118" x="538" y="869.0559">L&#237;mite de palabra</text><line style="stroke:#181818;stroke-width:0.5;" x1="536" x2="658" y1="878.1579" y2="878.1579"/><text fill="#000000" font-family="sans-serif" font-size="14" lengthAdjust="spacing" textLength="36" x="541" y="897.1239">\b  \B</text></g><!--class CCLASS--><g id="elem_CCLASS"><rect codeLine="71" fill="#F1F1F1" height="56.1358" id="CCLASS" rx="2.5" ry="2.5" style="stroke:#181818;stroke-width:0.5;" width="256" x="524" y="1081.36"/><text fill="#000000" font-family="sans-serif" font-size="14" lengthAdjust="spacing" textLength="138" x="583" y="1101.3259">Clases de caracteres</text><line style="stroke:#181818;stroke-width:0.5;" x1="525" x2="779" y1="1110.4279" y2="1110.4279"/><text fill="#000000" font-family="sans-serif" font-size="14" lengthAdjust="spacing" textLength="244" x="530" y="1129.3939">Conjuntos v&#225;lidos para una posici&#243;n</text></g><!--class PREDEF--><g id="elem_PREDEF"><rect codeLine="75" fill="#F1F1F1" height="56.1358" id="PREDEF" rx="2.5" ry="2.5" style="stroke:#181818;stroke-width:0.5;" width="91" x="487.5" y="1197.5"/><text fill="#000000" font-family="sans-serif" font-size="14" lengthAdjust="spacing" textLength="85" x="490.5" y="1217.4659">Predefinidas</text><line style="stroke:#181818;stroke-width:0.5;" x1="488.5" x2="577.5" y1="1226.5679" y2="1226.5679"/><text fill="#000000" font-family="sans-serif" font-size="14" lengthAdjust="spacing" textLength="58" x="493.5" y="1245.5339">\d  \w  \s</text></g><!--class NEG--><g id="elem_NEG"><rect codeLine="79" fill="#F1F1F1" height="56.1358" id="NEG" rx="2.5" ry="2.5" style="stroke:#181818;stroke-width:0.5;" width="74" x="532" y="1313.63"/><text fill="#000000" font-family="sans-serif" font-size="14" lengthAdjust="spacing" textLength="60" x="539" y="1333.5959">Negadas</text><line style="stroke:#181818;stroke-width:0.5;" x1="533" x2="605" y1="1342.6979" y2="1342.6979"/><text fill="#000000" font-family="sans-serif" font-size="14" lengthAdjust="spacing" textLength="62" x="538" y="1361.6639">\D  \W  \S</text></g><!--class CUSTOM--><g id="elem_CUSTOM"><rect codeLine="83" fill="#F1F1F1" height="56.1358" id="CUSTOM" rx="2.5" ry="2.5" style="stroke:#181818;stroke-width:0.5;" width="148" x="641" y="1313.63"/><text fill="#000000" font-family="sans-serif" font-size="14" lengthAdjust="spacing" textLength="119" x="655.5" y="1333.5959">Personalizadas [ ]</text><line style="stroke:#181818;stroke-width:0.5;" x1="642" x2="788" y1="1342.6979" y2="1342.6979"/><text fill="#000000" font-family="sans-serif" font-size="14" lengthAdjust="spacing" textLength="136" x="647" y="1361.6639">[aeiou]  [0-9]  [^abc]</text></g><!--class DOT--><g id="elem_DOT"><rect codeLine="87" fill="#F1F1F1" height="56.1358" id="DOT" rx="2.5" ry="2.5" style="stroke:#181818;stroke-width:0.5;" width="225" x="688.5" y="1197.5"/><text fill="#000000" font-family="sans-serif" font-size="14" lengthAdjust="spacing" textLength="60" x="771" y="1217.4659">Comod&#237;n</text><line style="stroke:#181818;stroke-width:0.5;" x1="689.5" x2="912.5" y1="1226.5679" y2="1226.5679"/><text fill="#000000" font-family="sans-serif" font-size="14" lengthAdjust="spacing" textLength="213" x="694.5" y="1245.5339">. (cualquier car&#225;cter excepto \n)</text></g><!--class GROUP--><g id="elem_GROUP"><rect codeLine="93" fill="#F1F1F1" height="56.1358" id="GROUP" rx="2.5" ry="2.5" style="stroke:#181818;stroke-width:0.5;" width="210" x="1044" y="1081.36"/><text fill="#000000" font-family="sans-serif" font-size="14" lengthAdjust="spacing" textLength="145" x="1076.5" y="1101.3259">Agrupaci&#243;n y captura</text><line style="stroke:#181818;stroke-width:0.5;" x1="1045" x2="1253" y1="1110.4279" y2="1110.4279"/><text fill="#000000" font-family="sans-serif" font-size="14" lengthAdjust="spacing" textLength="198" x="1050" y="1129.3939">Subexpresiones y referencias</text></g><!--class CAP--><g id="elem_CAP"><rect codeLine="97" fill="#F1F1F1" height="56.1358" id="CAP" rx="2.5" ry="2.5" style="stroke:#181818;stroke-width:0.5;" width="125" x="969.5" y="1197.5"/><text fill="#000000" font-family="sans-serif" font-size="14" lengthAdjust="spacing" textLength="119" x="972.5" y="1217.4659">Grupo de captura</text><line style="stroke:#181818;stroke-width:0.5;" x1="970.5" x2="1093.5" y1="1226.5679" y2="1226.5679"/><text fill="#000000" font-family="sans-serif" font-size="14" lengthAdjust="spacing" textLength="32" x="975.5" y="1245.5339">(abc)</text></g><!--class NOCAP--><g id="elem_NOCAP"><rect codeLine="101" fill="#F1F1F1" height="56.1358" id="NOCAP" rx="2.5" ry="2.5" style="stroke:#181818;stroke-width:0.5;" width="128" x="1003" y="1313.63"/><text fill="#000000" font-family="sans-serif" font-size="14" lengthAdjust="spacing" textLength="122" x="1006" y="1333.5959">Grupo sin captura</text><line style="stroke:#181818;stroke-width:0.5;" x1="1004" x2="1130" y1="1342.6979" y2="1342.6979"/><text fill="#000000" font-family="sans-serif" font-size="14" lengthAdjust="spacing" textLength="42" x="1009" y="1361.6639">(?:abc)</text></g><!--class NAMED--><g id="elem_NAMED"><rect codeLine="105" fill="#F1F1F1" height="56.1358" id="NAMED" rx="2.5" ry="2.5" style="stroke:#181818;stroke-width:0.5;" width="133" x="1166.5" y="1313.63"/><text fill="#000000" font-family="sans-serif" font-size="14" lengthAdjust="spacing" textLength="127" x="1169.5" y="1333.5959">Grupo con nombre</text><line style="stroke:#181818;stroke-width:0.5;" x1="1167.5" x2="1298.5" y1="1342.6979" y2="1342.6979"/><text fill="#000000" font-family="sans-serif" font-size="14" lengthAdjust="spacing" textLength="107" x="1172.5" y="1361.6639">(?&lt;nombre&gt;abc)</text></g><!--class BACKREF--><g id="elem_BACKREF"><rect codeLine="109" fill="#F1F1F1" height="56.1358" id="BACKREF" rx="2.5" ry="2.5" style="stroke:#181818;stroke-width:0.5;" width="131" x="1202.5" y="1197.5"/><text fill="#000000" font-family="sans-serif" font-size="14" lengthAdjust="spacing" textLength="125" x="1205.5" y="1217.4659">Referencia inversa</text><line style="stroke:#181818;stroke-width:0.5;" x1="1203.5" x2="1332.5" y1="1226.5679" y2="1226.5679"/><text fill="#000000" font-family="sans-serif" font-size="14" lengthAdjust="spacing" textLength="102" x="1208.5" y="1245.5339">\1  \k&lt;nombre&gt;</text></g><!--class LOOK--><g id="elem_LOOK"><rect codeLine="120" fill="#F1F1F1" height="56.1358" id="LOOK" rx="2.5" ry="2.5" style="stroke:#181818;stroke-width:0.5;" width="174" x="1428" y="849.09"/><text fill="#000000" font-family="sans-serif" font-size="14" lengthAdjust="spacing" textLength="79" x="1475.5" y="869.0559">Lookaround</text><line style="stroke:#181818;stroke-width:0.5;" x1="1429" x2="1601" y1="878.1579" y2="878.1579"/><text fill="#000000" font-family="sans-serif" font-size="14" lengthAdjust="spacing" textLength="162" x="1434" y="897.1239">Aserciones sin consumo</text></g><!--class LA_POS--><g id="elem_LA_POS"><rect codeLine="124" fill="#F1F1F1" height="56.1358" id="LA_POS" rx="2.5" ry="2.5" style="stroke:#181818;stroke-width:0.5;" width="90" x="1389" y="965.23"/><text fill="#000000" font-family="sans-serif" font-size="14" lengthAdjust="spacing" textLength="84" x="1392" y="985.1959">Lookahead +</text><line style="stroke:#181818;stroke-width:0.5;" x1="1390" x2="1478" y1="994.2979" y2="994.2979"/><text fill="#000000" font-family="sans-serif" font-size="14" lengthAdjust="spacing" textLength="38" x="1395" y="1013.2639">X(?=Y)</text></g><!--class LA_NEG--><g id="elem_LA_NEG"><rect codeLine="128" fill="#F1F1F1" height="56.1358" id="LA_NEG" rx="2.5" ry="2.5" style="stroke:#181818;stroke-width:0.5;" width="87" x="1426.5" y="1081.36"/><text fill="#000000" font-family="sans-serif" font-size="14" lengthAdjust="spacing" textLength="81" x="1429.5" y="1101.3259">Lookahead -</text><line style="stroke:#181818;stroke-width:0.5;" x1="1427.5" x2="1512.5" y1="1110.4279" y2="1110.4279"/><text fill="#000000" font-family="sans-serif" font-size="14" lengthAdjust="spacing" textLength="34" x="1432.5" y="1129.3939">X(?!Y)</text></g><!--class LB_POS--><g id="elem_LB_POS"><rect codeLine="132" fill="#F1F1F1" height="56.1358" id="LB_POS" rx="2.5" ry="2.5" style="stroke:#181818;stroke-width:0.5;" width="96" x="1548" y="1081.36"/><text fill="#000000" font-family="sans-serif" font-size="14" lengthAdjust="spacing" textLength="90" x="1551" y="1101.3259">Lookbehind +</text><line style="stroke:#181818;stroke-width:0.5;" x1="1549" x2="1643" y1="1110.4279" y2="1110.4279"/><text fill="#000000" font-family="sans-serif" font-size="14" lengthAdjust="spacing" textLength="46" x="1554" y="1129.3939">(?&lt;=Y)X</text></g><!--class LB_NEG--><g id="elem_LB_NEG"><rect codeLine="136" fill="#F1F1F1" height="56.1358" id="LB_NEG" rx="2.5" ry="2.5" style="stroke:#181818;stroke-width:0.5;" width="93" x="1588.5" y="965.23"/><text fill="#000000" font-family="sans-serif" font-size="14" lengthAdjust="spacing" textLength="87" x="1591.5" y="985.1959">Lookbehind -</text><line style="stroke:#181818;stroke-width:0.5;" x1="1589.5" x2="1680.5" y1="994.2979" y2="994.2979"/><text fill="#000000" font-family="sans-serif" font-size="14" lengthAdjust="spacing" textLength="42" x="1594.5" y="1013.2639">(?&lt;!Y)X</text></g><!--class FLAGS--><g id="elem_FLAGS"><rect codeLine="142" fill="#F1F1F1" height="56.1358" id="FLAGS" rx="2.5" ry="2.5" style="stroke:#181818;stroke-width:0.5;" width="171" x="833.5" y="607.29"/><text fill="#000000" font-family="sans-serif" font-size="14" lengthAdjust="spacing" textLength="144" x="847" y="627.2559">Flags / Modificadores</text><line style="stroke:#181818;stroke-width:0.5;" x1="834.5" x2="1003.5" y1="636.3579" y2="636.3579"/><text fill="#000000" font-family="sans-serif" font-size="14" lengthAdjust="spacing" textLength="159" x="839.5" y="655.3239">Comportamiento global</text></g><!--class F_I--><g id="elem_F_I"><rect codeLine="146" fill="#F1F1F1" height="29.0679" id="F_I" rx="2.5" ry="2.5" style="stroke:#181818;stroke-width:0.5;" width="131" x="715.5" y="746.49"/><text fill="#000000" font-family="sans-serif" font-size="14" lengthAdjust="spacing" textLength="125" x="718.5" y="766.4559">i - Case insensitive</text></g><!--class F_M--><g id="elem_F_M"><rect codeLine="149" fill="#F1F1F1" height="29.0679" id="F_M" rx="2.5" ry="2.5" style="stroke:#181818;stroke-width:0.5;" width="92" x="795" y="862.62"/><text fill="#000000" font-family="sans-serif" font-size="14" lengthAdjust="spacing" textLength="86" x="798" y="882.5859">m - Multiline</text></g><!--class F_S--><g id="elem_F_S"><rect codeLine="152" fill="#F1F1F1" height="29.0679" id="F_S" rx="2.5" ry="2.5" style="stroke:#181818;stroke-width:0.5;" width="65" x="922.5" y="862.62"/><text fill="#000000" font-family="sans-serif" font-size="14" lengthAdjust="spacing" textLength="59" x="925.5" y="882.5859">s - Dotall</text></g><!--class F_G--><g id="elem_F_G"><rect codeLine="155" fill="#F1F1F1" height="29.0679" id="F_G" rx="2.5" ry="2.5" style="stroke:#181818;stroke-width:0.5;" width="71" x="954.5" y="746.49"/><text fill="#000000" font-family="sans-serif" font-size="14" lengthAdjust="spacing" textLength="65" x="957.5" y="766.4559">g - Global</text></g><!--class RE--><g id="elem_RE"><rect codeLine="7" fill="#F1F1F1" height="75.2038" id="RE" rx="2.5" ry="2.5" style="stroke:#181818;stroke-width:0.5;" width="227" x="726.5" y="7"/><text fill="#000000" font-family="sans-serif" font-size="14" lengthAdjust="spacing" textLength="123" x="778.5" y="26.9659">Expresi&#243;n Regular</text><line style="stroke:#181818;stroke-width:0.5;" x1="727.5" x2="952.5" y1="36.0679" y2="36.0679"/><text fill="#000000" font-family="sans-serif" font-size="14" lengthAdjust="spacing" textLength="215" x="732.5" y="55.0339">Patr&#243;n de b&#250;squeda compuesto</text><text fill="#000000" font-family="sans-serif" font-size="14" lengthAdjust="spacing" textLength="200" x="732.5" y="74.1018">por literales y metacaracteres</text></g><!--class META--><g id="elem_META"><rect codeLine="32" fill="#F1F1F1" height="56.1358" id="META" rx="2.5" ry="2.5" style="stroke:#181818;stroke-width:0.5;" width="249" x="874.5" y="407.08"/><text fill="#000000" font-family="sans-serif" font-size="14" lengthAdjust="spacing" textLength="104" x="947" y="427.0459">Metacaracteres</text><line style="stroke:#181818;stroke-width:0.5;" x1="875.5" x2="1122.5" y1="436.1479" y2="436.1479"/><text fill="#000000" font-family="sans-serif" font-size="14" lengthAdjust="spacing" textLength="237" x="880.5" y="455.1139">Caracteres con significado especial</text></g><!--class ALT--><g id="elem_ALT"><rect codeLine="114" fill="#F1F1F1" height="83.2038" id="ALT" rx="2.5" ry="2.5" style="stroke:#181818;stroke-width:0.5;" width="118" x="1158" y="393.55"/><text fill="#000000" font-family="sans-serif" font-size="14" lengthAdjust="spacing" textLength="77" x="1178.5" y="413.5159">Alternancia</text><line style="stroke:#181818;stroke-width:0.5;" x1="1159" x2="1275" y1="422.6179" y2="422.6179"/><text fill="#000000" font-family="sans-serif" font-size="14" lengthAdjust="spacing" textLength="75" x="1164" y="441.5839">gato|perro</text><line style="stroke:#181818;stroke-width:0.5;" x1="1159" x2="1275" y1="449.6858" y2="449.6858"/><text fill="#000000" font-family="sans-serif" font-size="14" lengthAdjust="spacing" textLength="106" x="1164" y="468.6518">| (operador OR)</text></g><!--reverse link RE to LIT--><g id="link_RE_LIT"><path codeLine="159" d="M788.3304,94.7684 C768.9104,113.2484 758.46,123.19 738.99,141.72 " fill="none" id="RE-backto-LIT" style="stroke:#181818;stroke-width:1.0;"/><polygon fill="none" points="801.37,82.36,784.1943,90.4219,792.4666,99.115,801.37,82.36" style="stroke:#181818;stroke-width:1.0;"/></g><!--reverse link RE to META--><g id="link_RE_META"><path codeLine="160" d="M861.9179,99.1688 C893.6279,176.6488 959.68,338.07 987.72,406.59 " fill="none" id="RE-backto-META" style="stroke:#181818;stroke-width:1.0;"/><polygon fill="none" points="855.1,82.51,856.365,101.4415,867.4708,96.8962,855.1,82.51" style="stroke:#181818;stroke-width:1.0;"/></g><!--reverse link LIT to ESC_SP--><g id="link_LIT_ESC_SP"><path codeLine="163" d="M730.8544,233.0783 C742.1244,252.1583 746.49,259.58 756.83,277.08 " fill="none" id="LIT-backto-ESC_SP" style="stroke:#181818;stroke-width:1.0;"/><polygon fill="none" points="721.7,217.58,725.6883,236.1298,736.0205,230.0268,721.7,217.58" style="stroke:#181818;stroke-width:1.0;"/></g><!--reverse link LIT to ALFA--><g id="link_LIT_ALFA"><path codeLine="164" d="M651.4311,230.4454 C632.7611,249.5254 622.93,259.58 605.8,277.08 " fill="none" id="LIT-backto-ALFA" style="stroke:#181818;stroke-width:1.0;"/><polygon fill="none" points="664.02,217.58,647.1426,226.2491,655.7195,234.6417,664.02,217.58" style="stroke:#181818;stroke-width:1.0;"/></g><!--reverse link LIT to ESC_META--><g id="link_LIT_ESC_META"><path codeLine="165" d="M691.8543,235.2875 C689.1943,253.3275 688.64,257.59 686,277.41 C679.98,322.65 673.75,375.35 670.14,406.66 " fill="none" id="LIT-backto-ESC_META" style="stroke:#181818;stroke-width:1.0;"/><polygon fill="none" points="694.48,217.48,685.9185,234.4122,697.7901,236.1627,694.48,217.48" style="stroke:#181818;stroke-width:1.0;"/></g><!--reverse link META to ALT--><g id="link_META_ALT"><path codeLine="168" d="M1141.75,435.15 C1153.05,435.15 1146.34,435.15 1157.63,435.15 " fill="none" id="META-backto-ALT" style="stroke:#181818;stroke-width:1.0;"/><polygon fill="none" points="1123.75,435.15,1141.75,441.15,1141.75,429.15,1123.75,435.15" style="stroke:#181818;stroke-width:1.0;"/></g><!--reverse link META to QUANT--><g id="link_META_QUANT"><path codeLine="169" d="M914.5879,469.9783 C891.8579,478.4683 883.03,480.92 859,487.22 C687.77,532.08 634.7,498.17 466,551.75 C429.88,563.22 391.75,581.16 360.77,597.39 " fill="none" id="META-backto-QUANT" style="stroke:#181818;stroke-width:1.0;"/><polygon fill="none" points="931.45,463.68,912.4884,464.3576,916.6873,475.599,931.45,463.68" style="stroke:#181818;stroke-width:1.0;"/></g><!--reverse link META to LOOK--><g id="link_META_LOOK"><path codeLine="170" d="M1071.6572,471.9011 C1107.3772,490.3811 1137.65,508.25 1175,536.75 C1307.27,637.7 1439.87,787.44 1491.95,848.61 " fill="none" id="META-backto-LOOK" style="stroke:#181818;stroke-width:1.0;"/><polygon fill="none" points="1055.67,463.63,1068.9001,477.2301,1074.4142,466.572,1055.67,463.63" style="stroke:#181818;stroke-width:1.0;"/></g><!--reverse link META to GROUP--><g id="link_META_GROUP"><path codeLine="171" d="M1053.0431,474.6961 C1097.4831,509.0361 1149,561.21 1149,634.35 C1149,634.35 1149,634.35 1149,878.16 C1149,951.52 1149,1038.02 1149,1081.14 " fill="none" id="META-backto-GROUP" style="stroke:#181818;stroke-width:1.0;"/><polygon fill="none" points="1038.8,463.69,1049.3744,479.4438,1056.7118,469.9483,1038.8,463.69" style="stroke:#181818;stroke-width:1.0;"/></g><!--reverse link META to CCLASS--><g id="link_META_CCLASS"><path codeLine="172" d="M1027.3183,478.8774 C1050.6783,515.9374 1078,569.53 1078,634.35 C1078,634.35 1078,634.35 1078,878.16 C1078,954.61 862.98,1038.66 738.46,1080.92 " fill="none" id="META-backto-CCLASS" style="stroke:#181818;stroke-width:1.0;"/><polygon fill="none" points="1017.72,463.65,1022.2425,482.0768,1032.3941,475.678,1017.72,463.65" style="stroke:#181818;stroke-width:1.0;"/></g><!--reverse link META to ANCHOR--><g id="link_META_ANCHOR"><path codeLine="173" d="M905.9831,469.777 C831.3431,497.047 740.02,531.46 700,551.75 C668.22,567.87 634.36,589.74 609.31,606.93 " fill="none" id="META-backto-ANCHOR" style="stroke:#181818;stroke-width:1.0;"/><polygon fill="none" points="922.89,463.6,903.9241,464.1414,908.0421,475.4127,922.89,463.6" style="stroke:#181818;stroke-width:1.0;"/></g><!--reverse link META to FLAGS--><g id="link_META_FLAGS"><path codeLine="174" d="M981.141,480.4009 C965.851,518.2709 945.26,569.28 930.03,607.03 " fill="none" id="META-backto-FLAGS" style="stroke:#181818;stroke-width:1.0;"/><polygon fill="none" points="987.88,463.71,975.5774,478.1546,986.7047,482.6472,987.88,463.71" style="stroke:#181818;stroke-width:1.0;"/></g><!--reverse link QUANT to GREEDY--><g id="link_QUANT_GREEDY"><path codeLine="176" d="M229.5999,683.5502 C202.7499,702.6402 185.18,715.12 160.55,732.63 " fill="none" id="QUANT-backto-GREEDY" style="stroke:#181818;stroke-width:1.0;"/><polygon fill="none" points="244.27,673.12,226.1232,678.6602,233.0767,688.4402,244.27,673.12" style="stroke:#181818;stroke-width:1.0;"/></g><!--reverse link QUANT to LAZY--><g id="link_QUANT_LAZY"><path codeLine="177" d="M284.5519,691.0467 C280.8919,708.9867 280.25,713.22 277,732.96 C270.4,773.05 264.55,819.74 261.14,848.63 " fill="none" id="QUANT-backto-LAZY" style="stroke:#181818;stroke-width:1.0;"/><polygon fill="none" points="288.15,673.41,278.673,689.8473,290.4308,692.2461,288.15,673.41" style="stroke:#181818;stroke-width:1.0;"/></g><!--reverse link QUANT to POSS--><g id="link_QUANT_POSS"><path codeLine="178" d="M323.2969,689.1093 C333.1669,708.1993 336.76,715.12 345.82,732.63 " fill="none" id="QUANT-backto-POSS" style="stroke:#181818;stroke-width:1.0;"/><polygon fill="none" points="315.03,673.12,317.9671,691.865,328.6267,686.3537,315.03,673.12" style="stroke:#181818;stroke-width:1.0;"/></g><!--reverse link ANCHOR to POS--><g id="link_ANCHOR_POS"><path codeLine="180" d="M553.4985,680.5339 C545.3785,701.0239 540.96,712.18 532.84,732.65 " fill="none" id="ANCHOR-backto-POS" style="stroke:#181818;stroke-width:1.0;"/><polygon fill="none" points="560.13,663.8,547.9205,678.3234,559.0765,682.7444,560.13,663.8" style="stroke:#181818;stroke-width:1.0;"/></g><!--reverse link ANCHOR to BOUND--><g id="link_ANCHOR_BOUND"><path codeLine="181" d="M575.9192,681.7552 C580.9192,727.8952 589.01,802.44 594.01,848.6 " fill="none" id="ANCHOR-backto-BOUND" style="stroke:#181818;stroke-width:1.0;"/><polygon fill="none" points="573.98,663.86,569.9542,682.4016,581.8843,681.1088,573.98,663.86" style="stroke:#181818;stroke-width:1.0;"/></g><!--reverse link CCLASS to PREDEF--><g id="link_CCLASS_PREDEF"><path codeLine="183" d="M610.5075,1150.2278 C591.7975,1168.1678 580.42,1179.08 561.68,1197.06 " fill="none" id="CCLASS-backto-PREDEF" style="stroke:#181818;stroke-width:1.0;"/><polygon fill="none" points="623.5,1137.77,606.3549,1145.8969,614.6601,1154.5586,623.5,1137.77" style="stroke:#181818;stroke-width:1.0;"/></g><!--reverse link CCLASS to NEG--><g id="link_CCLASS_NEG"><path codeLine="184" d="M636.048,1154.6842 C620.078,1199.0042 594.8,1269.12 578.83,1313.42 " fill="none" id="CCLASS-backto-NEG" style="stroke:#181818;stroke-width:1.0;"/><polygon fill="none" points="642.15,1137.75,630.4033,1152.6502,641.6928,1156.7182,642.15,1137.75" style="stroke:#181818;stroke-width:1.0;"/></g><!--reverse link CCLASS to CUSTOM--><g id="link_CCLASS_CUSTOM"><path codeLine="185" d="M653.9025,1155.9032 C655.5025,1185.1732 658.92,1214.58 671,1253.63 C677.5,1274.67 688.75,1296.79 698.24,1313.48 " fill="none" id="CCLASS-backto-CUSTOM" style="stroke:#181818;stroke-width:1.0;"/><polygon fill="none" points="652.92,1137.93,647.9114,1156.2307,659.8935,1155.5757,652.92,1137.93" style="stroke:#181818;stroke-width:1.0;"/></g><!--reverse link CCLASS to DOT--><g id="link_CCLASS_DOT"><path codeLine="186" d="M701.9794,1148.7159 C725.3994,1166.6559 741.62,1179.08 765.09,1197.06 " fill="none" id="CCLASS-backto-DOT" style="stroke:#181818;stroke-width:1.0;"/><polygon fill="none" points="687.69,1137.77,698.3308,1153.479,705.6281,1143.9527,687.69,1137.77" style="stroke:#181818;stroke-width:1.0;"/></g><!--reverse link GROUP to CAP--><g id="link_GROUP_CAP"><path codeLine="188" d="M1108.0954,1150.3393 C1089.7054,1168.2793 1078.63,1179.08 1060.2,1197.06 " fill="none" id="GROUP-backto-CAP" style="stroke:#181818;stroke-width:1.0;"/><polygon fill="none" points="1120.98,1137.77,1103.9056,1146.0444,1112.2852,1154.6342,1120.98,1137.77" style="stroke:#181818;stroke-width:1.0;"/></g><!--reverse link GROUP to NOCAP--><g id="link_GROUP_NOCAP"><path codeLine="189" d="M1140.2162,1155.5576 C1134.2562,1184.8076 1126.94,1214.54 1112,1253.63 C1104.11,1274.3 1092.62,1296.43 1083.24,1313.21 " fill="none" id="GROUP-backto-NOCAP" style="stroke:#181818;stroke-width:1.0;"/><polygon fill="none" points="1143.81,1137.92,1134.337,1154.3596,1146.0953,1156.7555,1143.81,1137.92" style="stroke:#181818;stroke-width:1.0;"/></g><!--reverse link GROUP to NAMED--><g id="link_GROUP_NAMED"><path codeLine="190" d="M1157.0272,1155.4179 C1162.5572,1184.7279 1169.65,1214.63 1185,1253.63 C1193.22,1274.51 1205.47,1296.64 1215.54,1313.36 " fill="none" id="GROUP-backto-NAMED" style="stroke:#181818;stroke-width:1.0;"/><polygon fill="none" points="1153.69,1137.73,1151.1313,1156.5303,1162.9232,1154.3055,1153.69,1137.73" style="stroke:#181818;stroke-width:1.0;"/></g><!--reverse link GROUP to BACKREF--><g id="link_GROUP_BACKREF"><path codeLine="191" d="M1190.4925,1150.2278 C1209.2025,1168.1678 1220.58,1179.08 1239.32,1197.06 " fill="none" id="GROUP-backto-BACKREF" style="stroke:#181818;stroke-width:1.0;"/><polygon fill="none" points="1177.5,1137.77,1186.3399,1154.5586,1194.6451,1145.8969,1177.5,1137.77" style="stroke:#181818;stroke-width:1.0;"/></g><!--reverse link LOOK to LA_POS--><g id="link_LOOK_LA_POS"><path codeLine="193" d="M1485.1834,920.1798 C1472.4534,938.1198 1466.28,946.81 1453.52,964.78 " fill="none" id="LOOK-backto-LA_POS" style="stroke:#181818;stroke-width:1.0;"/><polygon fill="none" points="1495.6,905.5,1480.2902,916.7076,1490.0767,923.6519,1495.6,905.5" style="stroke:#181818;stroke-width:1.0;"/></g><!--reverse link LOOK to LA_NEG--><g id="link_LOOK_LA_NEG"><path codeLine="194" d="M1511.4747,923.5261 C1509.0247,952.5261 1505.6,981.56 1497,1021.36 C1492.62,1041.63 1485.65,1063.95 1479.89,1080.92 " fill="none" id="LOOK-backto-LA_NEG" style="stroke:#181818;stroke-width:1.0;"/><polygon fill="none" points="1512.99,905.59,1505.496,923.021,1517.4534,924.0312,1512.99,905.59" style="stroke:#181818;stroke-width:1.0;"/></g><!--reverse link LOOK to LB_POS--><g id="link_LOOK_LB_POS"><path codeLine="195" d="M1530.5829,922.4601 C1546.1729,966.7801 1570.82,1036.85 1586.4,1081.15 " fill="none" id="LOOK-backto-LB_POS" style="stroke:#181818;stroke-width:1.0;"/><polygon fill="none" points="1524.61,905.48,1524.9229,924.4511,1536.243,920.4691,1524.61,905.48" style="stroke:#181818;stroke-width:1.0;"/></g><!--reverse link LOOK to LB_NEG--><g id="link_LOOK_LB_NEG"><path codeLine="196" d="M1556.782,917.9058 C1575.642,935.8458 1587.18,946.81 1606.08,964.78 " fill="none" id="LOOK-backto-LB_NEG" style="stroke:#181818;stroke-width:1.0;"/><polygon fill="none" points="1543.74,905.5,1552.6468,922.2532,1560.9173,913.5585,1543.74,905.5" style="stroke:#181818;stroke-width:1.0;"/></g><!--reverse link FLAGS to F_I--><g id="link_FLAGS_F_I"><path codeLine="198" d="M874.9678,675.8158 C846.5478,701.2958 818.78,726.17 796.58,746.06 " fill="none" id="FLAGS-backto-F_I" style="stroke:#181818;stroke-width:1.0;"/><polygon fill="none" points="888.37,663.8,870.9625,671.3484,878.973,680.2832,888.37,663.8" style="stroke:#181818;stroke-width:1.0;"/></g><!--reverse link FLAGS to F_M--><g id="link_FLAGS_F_M"><path codeLine="199" d="M904.4842,680.9779 C887.8042,732.2779 858.06,823.72 845.53,862.24 " fill="none" id="FLAGS-backto-F_M" style="stroke:#181818;stroke-width:1.0;"/><polygon fill="none" points="910.05,663.86,898.7782,679.1226,910.1901,682.8331,910.05,663.86" style="stroke:#181818;stroke-width:1.0;"/></g><!--reverse link FLAGS to F_S--><g id="link_FLAGS_F_S"><path codeLine="200" d="M923.2466,681.686 C926.2166,712.326 929.93,745.47 937,789.09 C941.22,815.15 947.83,845.24 951.76,862.35 " fill="none" id="FLAGS-backto-F_S" style="stroke:#181818;stroke-width:1.0;"/><polygon fill="none" points="921.51,663.77,917.2746,682.2649,929.2186,681.1071,921.51,663.77" style="stroke:#181818;stroke-width:1.0;"/></g><!--reverse link FLAGS to F_G--><g id="link_FLAGS_F_G"><path codeLine="201" d="M943.7182,679.4125 C958.3382,704.8925 970.56,726.17 981.98,746.06 " fill="none" id="FLAGS-backto-F_G" style="stroke:#181818;stroke-width:1.0;"/><polygon fill="none" points="934.76,663.8,938.514,682.3986,948.9224,676.4264,934.76,663.8" style="stroke:#181818;stroke-width:1.0;"/></g><!--SRC=[TLRDSjis4BxpAJQUpaIkgZHkJ-sarT2Ih6QY7rUos_mv6OY4PSGam12a6oVshOU-GSyvzk1JRxtg0VeEVPBk0Y05qlQ18B7SRtUnltYepuNCMCvII8JanMN68LF99Ms2Xma_BQ1Ga8lrMG6no7bK22M3Cn5pY4GU9Tn-ypGhBY7bwOhdGH0bJ6lO6Nt8Sgx5vcy92xuk4vRl0DEm6C6d0E2G5JdzGlHgyuz-N_AOGQJIhEIwKCYGgHnjAdZE4gw1f1SiGaiZ974TN0T1ng9pjkOmgRb8iDDU4utIoTCZynDWK8i0r0cQGyx9JYuB9Wq70xsvWLJeL6dW4dW2cJKMVwFQMaMOd39Pffk_SX4fgoUS78HEqPbAsDuttxOmqyOfWEk8PInswD5oy7OwEgeal7xz29ylyUdYqyUdWy-kaGYmbJdIw0cXxfAsFAnb_VixhPAMt1frNOUgQPL1rtPu3ekK12tMKfoA2DMWlen7WYL-C0ObauLZo9iXQVqoQdu-3cTrQ9GiSlIQf93mGk2P94QQViKO19xm5AEa0CCLyHW_USkvloWq5NLsrZddyUMkqJ1UZ4R35qx5Vt_y2Pt7tLs0BdJswDt7FIZOmyzFyglqkYNo40_-KMbqRYTX7vt8IVZI4zX7OVZq-qv2lor2QIo32nULm_bokSLs4OjFl-kmtJeobJztGaboTdn7LYHAkDdWf_d22Pmf2f4kqKtWbKhJdAUI70jVmu6GbKKE_mRW2ygFa9QNBTnaSvDYJL71PYnXgvmPzFxyU3Qiasn5oxv1-cSOe0YC2tKDBylyrBYJ0SKF1fEmTXWcoBiICq33nUPp8Z3HWNeNb99Xkz1uhjj5UfXZgfmAAMBdiSF5Q3Wwg2sEQVcDbhQZPdpDAj1iDAuHGrf-fMLvErcqaYmH7ma8h-34dk5uUJIVElmhneKgJ_3ZSUyxUhrXg-Ya9MYWKXLlRcnyXlEgG1v19ofPyhuKF2T7RJwJfu1_Y7Y6TO7LlNlBzU4wBwazKA-zH51Mb1GvFvlkvZ2bCp-k6iYoN77RqAaeaJ7dfnWbYVNVTjmOvIaRowsiGLX9wk21T- -4Q24RcDdSG_M_lnT7VKcgT9Lp2mkdes4DUsB__7W7Ub4V0OIymE2vb0u7pnPUYkpHSbx9gJnS3m4CWMGan4q06wqhwAWC9n2sEfWlIFEQ5UeAIRbg16YYr3dBLIdZHbHyChMS-VoPCoZKFBUjqJhCLBngLol1ppYBeUjQrjjjdJ_lz7zuiNilebSXjbcFY0Tt8bRyJCXQoRwd13sFIfxVZ-bLcAqQn3oeCBwF3XAsRZOCGy4cDbLnQw8SJCBnjc6aU8qeM2hCu5WdQeNJgccHW1xEEBm728cN02qASM7JwE3jKoF6PqwHULecXQ0BakEQtkBIo3LK1KiInxAynR96bh4nnx6C7GiouGtfoLMlHvUMwXjtD9238A2RZFbhn_jsJrUFUjUhxn88CQCSgPIRzGPPpEpr2AGIqwn1GPhf0csYxSk-D3k9V8g9H13O4MzijBFOe_JCBFLPQ3u6WHjh5SNVz-p82G8t6YoFQUe-gKSzkqcmVRY1mzuQ1BRDcJts6s_RinseIQ7cuaDSjy38K8dQm9bYsn9whfWQbFqcZok48B3vQqYOWTwMzjFMVjba7mV_0m00]--></g></svg>