<?xml version="1.0" encoding="us-ascii" standalone="no"?><svg xmlns="http://www.w3.org/2000/svg" xmlns:xlink="http://www.w3.org/1999/xlink" contentStyleType="text/css" height="607px" preserveAspectRatio="none" style="width:504px;height:607px;background:#FFFFFF;" version="1.1" viewBox="0 0 504 607" width="504px" zoomAndPan="magnify"><defs/><g><!--class RE--><g id="elem_RE"><rect codeLine="9" fill="#F1F1F1" height="86.0996" id="RE" rx="2.5" ry="2.5" style="stroke:#181818;stroke-width:0.5;" width="180" x="94" y="7"/><ellipse cx="149.25" cy="31.0679" fill="#A9DCDF" rx="11" ry="11" style="stroke:#181818;stroke-width:1.0;"/><path d="M144.4219,36.8179 L147.7656,24.6304 L150.9063,24.6304 L154.2813,36.8179 L151.8125,36.8179 L151.0781,33.8023 L147.5625,33.8023 L146.8125,36.8179 L144.4219,36.8179 Z M148.8281,28.771 L148.0781,31.771 L150.5938,31.771 L149.875,28.771 Q149.7344,28.1929 149.6094,27.646 Q149.4844,27.0835 149.3438,26.5054 Q149.2344,27.0835 149.0938,27.646 Q148.9531,28.1929 148.8281,28.771 Z " fill="#000000"/><text fill="#000000" font-family="sans-serif" font-size="14" font-style="italic" lengthAdjust="spacing" textLength="61" x="169.75" y="26.9659">Expresi&#243;n</text><text fill="#000000" font-family="sans-serif" font-size="14" font-style="italic" lengthAdjust="spacing" textLength="49" x="175.75" y="46.0339">Regular</text><line style="stroke:#181818;stroke-width:0.5;" x1="95" x2="273" y1="55.1358" y2="55.1358"/><text fill="#000000" font-family="sans-serif" font-size="11" lengthAdjust="spacing" textLength="168" x="100" y="70.8947">Patr&#243;n de b&#250;squeda compuesto</text><text fill="#000000" font-family="sans-serif" font-size="11" lengthAdjust="spacing" textLength="154" x="100" y="85.8766">por literales y metacaracteres</text></g><!--class GROUP--><g id="elem_GROUP"><rect codeLine="14" fill="#F1F1F1" height="86.0996" id="GROUP" rx="2.5" ry="2.5" style="stroke:#181818;stroke-width:0.5;" width="163" x="173.5" y="245.1"/><ellipse cx="215.05" cy="269.1679" fill="#A9DCDF" rx="11" ry="11" style="stroke:#181818;stroke-width:1.0;"/><path d="M210.2219,274.9179 L213.5656,262.7304 L216.7063,262.7304 L220.0813,274.9179 L217.6125,274.9179 L216.8781,271.9023 L213.3625,271.9023 L212.6125,274.9179 L210.2219,274.9179 Z M214.6281,266.871 L213.8781,269.871 L216.3938,269.871 L215.675,266.871 Q215.5344,266.2929 215.4094,265.746 Q215.2844,265.1835 215.1438,264.6054 Q215.0344,265.1835 214.8938,265.746 Q214.7531,266.2929 214.6281,266.871 Z " fill="#000000"/><text fill="#000000" font-family="sans-serif" font-size="14" font-style="italic" lengthAdjust="spacing" textLength="56" x="242.95" y="265.0659">Grupos y</text><text fill="#000000" font-family="sans-serif" font-size="14" font-style="italic" lengthAdjust="spacing" textLength="72" x="234.95" y="284.1339">alternancia</text><line style="stroke:#181818;stroke-width:0.5;" x1="174.5" x2="335.5" y1="293.2358" y2="293.2358"/><text fill="#000000" font-family="sans-serif" font-size="11" lengthAdjust="spacing" textLength="115" x="179.5" y="308.9947">Agrupan subpatrones</text><text fill="#000000" font-family="sans-serif" font-size="11" lengthAdjust="spacing" textLength="151" x="179.5" y="323.9766">o seleccionan entre opciones</text></g><!--class LIT--><g id="elem_LIT"><rect codeLine="19" fill="#F1F1F1" height="32" id="LIT" rx="2.5" ry="2.5" style="stroke:#181818;stroke-width:0.5;" width="86" x="70" y="153.1"/><ellipse cx="85" cy="169.1" fill="#A9DCDF" rx="11" ry="11" style="stroke:#181818;stroke-width:1.0;"/><path d="M80.1719,174.85 L83.5156,162.6625 L86.6563,162.6625 L90.0313,174.85 L87.5625,174.85 L86.8281,171.8344 L83.3125,171.8344 L82.5625,174.85 L80.1719,174.85 Z M84.5781,166.8031 L83.8281,169.8031 L86.3438,169.8031 L85.625,166.8031 Q85.4844,166.225 85.3594,165.6781 Q85.2344,165.1156 85.0938,164.5375 Q84.9844,165.1156 84.8438,165.6781 Q84.7031,166.225 84.5781,166.8031 Z " fill="#000000"/><text fill="#000000" font-family="sans-serif" font-size="14" font-style="italic" lengthAdjust="spacing" textLength="54" x="99" y="174.532">Literales</text></g><!--class META--><g id="elem_META"><rect codeLine="20" fill="#F1F1F1" height="32" id="META" rx="2.5" ry="2.5" style="stroke:#181818;stroke-width:0.5;" width="129" x="190.5" y="153.1"/><ellipse cx="205.5" cy="169.1" fill="#A9DCDF" rx="11" ry="11" style="stroke:#181818;stroke-width:1.0;"/><path d="M200.6719,174.85 L204.0156,162.6625 L207.1563,162.6625 L210.5313,174.85 L208.0625,174.85 L207.3281,171.8344 L203.8125,171.8344 L203.0625,174.85 L200.6719,174.85 Z M205.0781,166.8031 L204.3281,169.8031 L206.8438,169.8031 L206.125,166.8031 Q205.9844,166.225 205.8594,165.6781 Q205.7344,165.1156 205.5938,164.5375 Q205.4844,165.1156 205.3438,165.6781 Q205.2031,166.225 205.0781,166.8031 Z " fill="#000000"/><text fill="#000000" font-family="sans-serif" font-size="14" font-style="italic" lengthAdjust="spacing" textLength="97" x="219.5" y="174.532">Metacaracteres</text></g><!--class CAP--><g id="elem_CAP"><rect codeLine="22" fill="#F1F1F1" height="59.0679" id="CAP" rx="2.5" ry="2.5" style="stroke:#181818;stroke-width:0.5;" width="86" x="7" y="399.26"/><ellipse cx="22" cy="415.26" fill="#ADD1B2" rx="11" ry="11" style="stroke:#181818;stroke-width:1.0;"/><path d="M21.4688,422.1819 Q19.7188,422.1819 18.5781,421.4475 Q17.4531,420.6975 16.8906,419.3538 Q16.3438,417.9944 16.3438,416.1975 Q16.3438,414.1663 17,412.7131 Q17.6563,411.26 18.9375,410.4788 Q20.2188,409.6975 22.0938,409.6975 Q22.9844,409.6975 23.6563,409.885 Q24.3281,410.0569 25.0156,410.4006 L24.2031,412.4163 Q23.5781,412.1038 23.0313,411.9788 Q22.5,411.8538 22.0156,411.8538 Q20.8438,411.8538 20.1406,412.385 Q19.4375,412.9163 19.1406,413.8694 Q18.8438,414.8225 18.8438,416.0881 Q18.8438,418.1038 19.5625,419.0725 Q20.2813,420.0256 21.875,420.0256 Q22.4688,420.0256 23.0938,419.8694 Q23.7188,419.7131 24.5469,419.3381 L24.5469,421.5569 Q23.8125,421.8694 23.0156,422.0256 Q22.2344,422.1819 21.4688,422.1819 Z " fill="#000000"/><text fill="#000000" font-family="sans-serif" font-size="14" lengthAdjust="spacing" textLength="54" x="36" y="420.692">Captura</text><line style="stroke:#181818;stroke-width:0.5;" x1="8" x2="92" y1="431.26" y2="431.26"/><text fill="#000000" font-family="monospace" font-size="14" lengthAdjust="spacing" textLength="64" x="13" y="450.2259">(patr&#243;n)</text></g><!--class NOCAP--><g id="elem_NOCAP"><rect codeLine="26" fill="#F1F1F1" height="59.0679" id="NOCAP" rx="2.5" ry="2.5" style="stroke:#181818;stroke-width:0.5;" width="107" x="127.5" y="399.26"/><ellipse cx="142.5" cy="415.26" fill="#ADD1B2" rx="11" ry="11" style="stroke:#181818;stroke-width:1.0;"/><path d="M141.9688,422.1819 Q140.2188,422.1819 139.0781,421.4475 Q137.9531,420.6975 137.3906,419.3538 Q136.8438,417.9944 136.8438,416.1975 Q136.8438,414.1663 137.5,412.7131 Q138.1563,411.26 139.4375,410.4788 Q140.7188,409.6975 142.5938,409.6975 Q143.4844,409.6975 144.1563,409.885 Q144.8281,410.0569 145.5156,410.4006 L144.7031,412.4163 Q144.0781,412.1038 143.5313,411.9788 Q143,411.8538 142.5156,411.8538 Q141.3438,411.8538 140.6406,412.385 Q139.9375,412.9163 139.6406,413.8694 Q139.3438,414.8225 139.3438,416.0881 Q139.3438,418.1038 140.0625,419.0725 Q140.7813,420.0256 142.375,420.0256 Q142.9688,420.0256 143.5938,419.8694 Q144.2188,419.7131 145.0469,419.3381 L145.0469,421.5569 Q144.3125,421.8694 143.5156,422.0256 Q142.7344,422.1819 141.9688,422.1819 Z " fill="#000000"/><text fill="#000000" font-family="sans-serif" font-size="14" lengthAdjust="spacing" textLength="75" x="156.5" y="420.692">No captura</text><line style="stroke:#181818;stroke-width:0.5;" x1="128.5" x2="233.5" y1="431.26" y2="431.26"/><text fill="#000000" font-family="monospace" font-size="14" lengthAdjust="spacing" textLength="80" x="133.5" y="450.2259">(?:patr&#243;n)</text></g><!--class REF--><g id="elem_REF"><rect codeLine="30" fill="#F1F1F1" height="75.2038" id="REF" rx="2.5" ry="2.5" style="stroke:#181818;stroke-width:0.5;" width="120" x="270" y="391.2"/><ellipse cx="285" cy="415.2679" fill="#ADD1B2" rx="11" ry="11" style="stroke:#181818;stroke-width:1.0;"/><path d="M284.4688,422.1898 Q282.7188,422.1898 281.5781,421.4554 Q280.4531,420.7054 279.8906,419.3617 Q279.3438,418.0023 279.3438,416.2054 Q279.3438,414.1742 280,412.721 Q280.6563,411.2679 281.9375,410.4867 Q283.2188,409.7054 285.0938,409.7054 Q285.9844,409.7054 286.6563,409.8929 Q287.3281,410.0648 288.0156,410.4085 L287.2031,412.4242 Q286.5781,412.1117 286.0313,411.9867 Q285.5,411.8617 285.0156,411.8617 Q283.8438,411.8617 283.1406,412.3929 Q282.4375,412.9242 282.1406,413.8773 Q281.8438,414.8304 281.8438,416.096 Q281.8438,418.1117 282.5625,419.0804 Q283.2813,420.0335 284.875,420.0335 Q285.4688,420.0335 286.0938,419.8773 Q286.7188,419.721 287.5469,419.346 L287.5469,421.5648 Q286.8125,421.8773 286.0156,422.0335 Q285.2344,422.1898 284.4688,422.1898 Z " fill="#000000"/><text fill="#000000" font-family="sans-serif" font-size="14" lengthAdjust="spacing" textLength="72" x="307" y="411.1659">Referencia</text><text fill="#000000" font-family="sans-serif" font-size="14" lengthAdjust="spacing" textLength="88" x="299" y="430.2339">retrospectiva</text><line style="stroke:#181818;stroke-width:0.5;" x1="271" x2="389" y1="439.3358" y2="439.3358"/><text fill="#000000" font-family="monospace" font-size="14" lengthAdjust="spacing" textLength="80" x="276" y="458.3018">\1&#160;&#160;\2&#160;&#160;\3</text></g><!--class ALT--><g id="elem_ALT"><rect codeLine="34" fill="#F1F1F1" height="74.0498" id="ALT" rx="2.5" ry="2.5" style="stroke:#181818;stroke-width:0.5;" width="109" x="388.5" y="526.4"/><ellipse cx="403.5" cy="542.4" fill="#ADD1B2" rx="11" ry="11" style="stroke:#181818;stroke-width:1.0;"/><path d="M402.9688,549.3219 Q401.2188,549.3219 400.0781,548.5875 Q398.9531,547.8375 398.3906,546.4938 Q397.8438,545.1344 397.8438,543.3375 Q397.8438,541.3063 398.5,539.8531 Q399.1563,538.4 400.4375,537.6188 Q401.7188,536.8375 403.5938,536.8375 Q404.4844,536.8375 405.1563,537.025 Q405.8281,537.1969 406.5156,537.5406 L405.7031,539.5563 Q405.0781,539.2438 404.5313,539.1188 Q404,538.9938 403.5156,538.9938 Q402.3438,538.9938 401.6406,539.525 Q400.9375,540.0563 400.6406,541.0094 Q400.3438,541.9625 400.3438,543.2281 Q400.3438,545.2438 401.0625,546.2125 Q401.7813,547.1656 403.375,547.1656 Q403.9688,547.1656 404.5938,547.0094 Q405.2188,546.8531 406.0469,546.4781 L406.0469,548.6969 Q405.3125,549.0094 404.5156,549.1656 Q403.7344,549.3219 402.9688,549.3219 Z " fill="#000000"/><text fill="#000000" font-family="sans-serif" font-size="14" lengthAdjust="spacing" textLength="77" x="417.5" y="547.832">Alternancia</text><line style="stroke:#181818;stroke-width:0.5;" x1="389.5" x2="496.5" y1="558.4" y2="558.4"/><text fill="#000000" font-family="monospace" font-size="14" lengthAdjust="spacing" textLength="24" x="394.5" y="577.3659">a|b</text><text fill="#000000" font-family="sans-serif" font-size="11" lengthAdjust="spacing" textLength="57" x="394.5" y="593.2268">uno u otro</text></g><!--reverse link RE to LIT--><g id="link_RE_LIT"><path codeLine="39" d="M149.0381,108.6921 C136.4881,129.3921 131.48,137.64 122.34,152.7 " fill="none" id="RE-backto-LIT" style="stroke:#181818;stroke-width:1.0;"/><polygon fill="none" points="158.37,93.3,143.9074,105.5814,154.1688,111.8027,158.37,93.3" style="stroke:#181818;stroke-width:1.0;"/></g><!--reverse link RE to META--><g id="link_RE_META"><path codeLine="40" d="M218.9619,108.6921 C231.5119,129.3921 236.52,137.64 245.66,152.7 " fill="none" id="RE-backto-META" style="stroke:#181818;stroke-width:1.0;"/><polygon fill="none" points="209.63,93.3,213.8312,111.8027,224.0926,105.5814,209.63,93.3" style="stroke:#181818;stroke-width:1.0;"/></g><!--link LIT to META--><!--reverse link META to GROUP--><g id="link_META_GROUP"><path codeLine="44" d="M255,203.4 C255,218.4 255,223.95 255,244.61 " fill="none" id="META-backto-GROUP" style="stroke:#181818;stroke-width:1.0;"/><polygon fill="none" points="255,185.4,249,203.4,261,203.4,255,185.4" style="stroke:#181818;stroke-width:1.0;"/></g><!--reverse link GROUP to CAP--><g id="link_GROUP_CAP"><path codeLine="46" d="M177.1896,341.7736 C144.9396,363.5836 121.42,379.49 92.66,398.94 " fill="none" id="GROUP-backto-CAP" style="stroke:#181818;stroke-width:1.0;"/><polygon fill="none" points="192.1,331.69,173.8284,336.8035,180.5508,346.7438,192.1,331.69" style="stroke:#181818;stroke-width:1.0;"/></g><!--reverse link GROUP to NOCAP--><g id="link_GROUP_NOCAP"><path codeLine="47" d="M223.9222,347.3785 C212.2722,369.1985 206.85,379.37 196.44,398.86 " fill="none" id="GROUP-backto-NOCAP" style="stroke:#181818;stroke-width:1.0;"/><polygon fill="none" points="232.4,331.5,218.6294,344.5526,229.2151,350.2044,232.4,331.5" style="stroke:#181818;stroke-width:1.0;"/></g><!--reverse link GROUP to ALT--><g id="link_GROUP_ALT"><path codeLine="48" d="M352.1091,336.7661 C378.5691,352.9361 390.27,364.84 408,391.2 C435.26,431.73 442.08,489.01 443.38,525.93 " fill="none" id="GROUP-backto-ALT" style="stroke:#181818;stroke-width:1.0;"/><polygon fill="none" points="336.75,327.38,348.9804,341.8858,355.2378,331.6464,336.75,327.38" style="stroke:#181818;stroke-width:1.0;"/></g><!--reverse link GROUP to REF--><g id="link_GROUP_REF"><path codeLine="49" d="M286.4737,347.3324 C296.7237,366.2824 300.14,372.59 310.02,390.86 " fill="none" id="GROUP-backto-REF" style="stroke:#181818;stroke-width:1.0;"/><polygon fill="none" points="277.91,331.5,281.1962,350.1869,291.7511,344.4778,277.91,331.5" style="stroke:#181818;stroke-width:1.0;"/></g><!--SRC=[VLF1JXin4BtxAqQvf3si4EqDhLAjK42LGa1HUceup7edmS9h6zkB6fL-LM-zycCTUmaiWN3ObJtxdkUzDzvnk5N6eSSMj38Kjux0MRrD6p7Mj8uGBNYrkOdGA4yoAcl4-4Or159vgKdaDRKkRg6bjYOlNiwK6aEeOlIgxYATMHFds1AqrjZWK5ApZts613IX2EJLMWYiG_Ge8uoclvode1x_cfLPqARJw4U00HPJ-2q0oZNJJrweap9qzUGAesS6iCpwyL-uwwX1aBPr7OLeowE4AOyITNBm36Sz1nJ9ewO0oMb4YKaKiQ3NP_mPAZxtdRFCM1dKZ3LefCAi-Nnn-UFg0zdLXgbeWDUE7LYpt-SGqK8WJLBof9XE9de2wzBsGwMpdRsiRlPzEVXsySfk1bnCbvKGUMWmEaKNEz_xEgrwLvzSd_ldrEO9DxSW1z3vvJFusyaxy0MjkLzAR6KySGR1fHjuZqz3FylSrJ4_N_ZvEg1MUsbNisK6uqDzCBZEMEZ0SfytCV45An-A8iUoM_S9S0MAd_mJD6Ik_QwQtZqgZrc8Vjgvmfw7snp2e50ahKC0-nJ_0G00]--></g></svg>