<?xml version="1.0" encoding="us-ascii" standalone="no"?><svg xmlns="http://www.w3.org/2000/svg" xmlns:xlink="http://www.w3.org/1999/xlink" contentStyleType="text/css" height="599px" preserveAspectRatio="none" style="width:493px;height:599px;background:#FFFFFF;" version="1.1" viewBox="0 0 493 599" width="493px" zoomAndPan="magnify"><defs/><g><!--class RE--><g id="elem_RE"><rect codeLine="9" fill="#F1F1F1" height="86.0996" id="RE" rx="2.5" ry="2.5" style="stroke:#181818;stroke-width:0.5;" width="180" x="66.5" y="7"/><ellipse cx="121.75" cy="31.0679" fill="#A9DCDF" rx="11" ry="11" style="stroke:#181818;stroke-width:1.0;"/><path d="M116.9219,36.8179 L120.2656,24.6304 L123.4063,24.6304 L126.7813,36.8179 L124.3125,36.8179 L123.5781,33.8023 L120.0625,33.8023 L119.3125,36.8179 L116.9219,36.8179 Z M121.3281,28.771 L120.5781,31.771 L123.0938,31.771 L122.375,28.771 Q122.2344,28.1929 122.1094,27.646 Q121.9844,27.0835 121.8438,26.5054 Q121.7344,27.0835 121.5938,27.646 Q121.4531,28.1929 121.3281,28.771 Z " fill="#000000"/><text fill="#000000" font-family="sans-serif" font-size="14" font-style="italic" lengthAdjust="spacing" textLength="61" x="142.25" y="26.9659">Expresi&#243;n</text><text fill="#000000" font-family="sans-serif" font-size="14" font-style="italic" lengthAdjust="spacing" textLength="49" x="148.25" y="46.0339">Regular</text><line style="stroke:#181818;stroke-width:0.5;" x1="67.5" x2="245.5" y1="55.1358" y2="55.1358"/><text fill="#000000" font-family="sans-serif" font-size="11" lengthAdjust="spacing" textLength="168" x="72.5" y="70.8947">Patr&#243;n de b&#250;squeda compuesto</text><text fill="#000000" font-family="sans-serif" font-size="11" lengthAdjust="spacing" textLength="154" x="72.5" y="85.8766">por literales y metacaracteres</text></g><!--class CCLASS--><g id="elem_CCLASS"><rect codeLine="14" fill="#F1F1F1" height="71.1177" id="CCLASS" rx="2.5" ry="2.5" style="stroke:#181818;stroke-width:0.5;" width="203" x="126" y="245.1"/><ellipse cx="190.75" cy="269.1679" fill="#A9DCDF" rx="11" ry="11" style="stroke:#181818;stroke-width:1.0;"/><path d="M185.9219,274.9179 L189.2656,262.7304 L192.4063,262.7304 L195.7813,274.9179 L193.3125,274.9179 L192.5781,271.9023 L189.0625,271.9023 L188.3125,274.9179 L185.9219,274.9179 Z M190.3281,266.871 L189.5781,269.871 L192.0938,269.871 L191.375,266.871 Q191.2344,266.2929 191.1094,265.746 Q190.9844,265.1835 190.8438,264.6054 Q190.7344,265.1835 190.5938,265.746 Q190.4531,266.2929 190.3281,266.871 Z " fill="#000000"/><text fill="#000000" font-family="sans-serif" font-size="14" font-style="italic" lengthAdjust="spacing" textLength="58" x="214.75" y="265.0659">Clases de</text><text fill="#000000" font-family="sans-serif" font-size="14" font-style="italic" lengthAdjust="spacing" textLength="65" x="211.25" y="284.1339">caracteres</text><line style="stroke:#181818;stroke-width:0.5;" x1="127" x2="328" y1="293.2358" y2="293.2358"/><text fill="#000000" font-family="sans-serif" font-size="11" lengthAdjust="spacing" textLength="191" x="132" y="308.9947">Conjuntos v&#225;lidos para una posici&#243;n</text></g><!--class LIT--><g id="elem_LIT"><rect codeLine="18" fill="#F1F1F1" height="32" id="LIT" rx="2.5" ry="2.5" style="stroke:#181818;stroke-width:0.5;" width="86" x="42.5" y="153.1"/><ellipse cx="57.5" cy="169.1" fill="#A9DCDF" rx="11" ry="11" style="stroke:#181818;stroke-width:1.0;"/><path d="M52.6719,174.85 L56.0156,162.6625 L59.1563,162.6625 L62.5313,174.85 L60.0625,174.85 L59.3281,171.8344 L55.8125,171.8344 L55.0625,174.85 L52.6719,174.85 Z M57.0781,166.8031 L56.3281,169.8031 L58.8438,169.8031 L58.125,166.8031 Q57.9844,166.225 57.8594,165.6781 Q57.7344,165.1156 57.5938,164.5375 Q57.4844,165.1156 57.3438,165.6781 Q57.2031,166.225 57.0781,166.8031 Z " fill="#000000"/><text fill="#000000" font-family="sans-serif" font-size="14" font-style="italic" lengthAdjust="spacing" textLength="54" x="71.5" y="174.532">Literales</text></g><!--class META--><g id="elem_META"><rect codeLine="19" fill="#F1F1F1" height="32" id="META" rx="2.5" ry="2.5" style="stroke:#181818;stroke-width:0.5;" width="129" x="163" y="153.1"/><ellipse cx="178" cy="169.1" fill="#A9DCDF" rx="11" ry="11" style="stroke:#181818;stroke-width:1.0;"/><path d="M173.1719,174.85 L176.5156,162.6625 L179.6563,162.6625 L183.0313,174.85 L180.5625,174.85 L179.8281,171.8344 L176.3125,171.8344 L175.5625,174.85 L173.1719,174.85 Z M177.5781,166.8031 L176.8281,169.8031 L179.3438,169.8031 L178.625,166.8031 Q178.4844,166.225 178.3594,165.6781 Q178.2344,165.1156 178.0938,164.5375 Q177.9844,165.1156 177.8438,165.6781 Q177.7031,166.225 177.5781,166.8031 Z " fill="#000000"/><text fill="#000000" font-family="sans-serif" font-size="14" font-style="italic" lengthAdjust="spacing" textLength="97" x="192" y="174.532">Metacaracteres</text></g><!--class PREDEF--><g id="elem_PREDEF"><rect codeLine="21" fill="#F1F1F1" height="59.0679" id="PREDEF" rx="2.5" ry="2.5" style="stroke:#181818;stroke-width:0.5;" width="117" x="99" y="533.42"/><ellipse cx="114" cy="549.42" fill="#ADD1B2" rx="11" ry="11" style="stroke:#181818;stroke-width:1.0;"/><path d="M113.4688,556.3419 Q111.7188,556.3419 110.5781,555.6075 Q109.4531,554.8575 108.8906,553.5138 Q108.3438,552.1544 108.3438,550.3575 Q108.3438,548.3263 109,546.8731 Q109.6563,545.42 110.9375,544.6388 Q112.2188,543.8575 114.0938,543.8575 Q114.9844,543.8575 115.6563,544.045 Q116.3281,544.2169 117.0156,544.5606 L116.2031,546.5763 Q115.5781,546.2638 115.0313,546.1388 Q114.5,546.0138 114.0156,546.0138 Q112.8438,546.0138 112.1406,546.545 Q111.4375,547.0763 111.1406,548.0294 Q110.8438,548.9825 110.8438,550.2481 Q110.8438,552.2638 111.5625,553.2325 Q112.2813,554.1856 113.875,554.1856 Q114.4688,554.1856 115.0938,554.0294 Q115.7188,553.8731 116.5469,553.4981 L116.5469,555.7169 Q115.8125,556.0294 115.0156,556.1856 Q114.2344,556.3419 113.4688,556.3419 Z " fill="#000000"/><text fill="#000000" font-family="sans-serif" font-size="14" lengthAdjust="spacing" textLength="85" x="128" y="554.852">Predefinidas</text><line style="stroke:#181818;stroke-width:0.5;" x1="100" x2="215" y1="565.42" y2="565.42"/><text fill="#000000" font-family="monospace" font-size="14" lengthAdjust="spacing" textLength="80" x="105" y="584.3859">\d&#160;&#160;\w&#160;&#160;\s</text></g><!--class NEGAD--><g id="elem_NEGAD"><rect codeLine="25" fill="#F1F1F1" height="59.0679" id="NEGAD" rx="2.5" ry="2.5" style="stroke:#181818;stroke-width:0.5;" width="92" x="251.5" y="533.42"/><ellipse cx="266.5" cy="549.42" fill="#ADD1B2" rx="11" ry="11" style="stroke:#181818;stroke-width:1.0;"/><path d="M265.9688,556.3419 Q264.2188,556.3419 263.0781,555.6075 Q261.9531,554.8575 261.3906,553.5138 Q260.8438,552.1544 260.8438,550.3575 Q260.8438,548.3263 261.5,546.8731 Q262.1563,545.42 263.4375,544.6388 Q264.7188,543.8575 266.5938,543.8575 Q267.4844,543.8575 268.1563,544.045 Q268.8281,544.2169 269.5156,544.5606 L268.7031,546.5763 Q268.0781,546.2638 267.5313,546.1388 Q267,546.0138 266.5156,546.0138 Q265.3438,546.0138 264.6406,546.545 Q263.9375,547.0763 263.6406,548.0294 Q263.3438,548.9825 263.3438,550.2481 Q263.3438,552.2638 264.0625,553.2325 Q264.7813,554.1856 266.375,554.1856 Q266.9688,554.1856 267.5938,554.0294 Q268.2188,553.8731 269.0469,553.4981 L269.0469,555.7169 Q268.3125,556.0294 267.5156,556.1856 Q266.7344,556.3419 265.9688,556.3419 Z " fill="#000000"/><text fill="#000000" font-family="sans-serif" font-size="14" lengthAdjust="spacing" textLength="60" x="280.5" y="554.852">Negadas</text><line style="stroke:#181818;stroke-width:0.5;" x1="252.5" x2="342.5" y1="565.42" y2="565.42"/><text fill="#000000" font-family="monospace" font-size="14" lengthAdjust="spacing" textLength="80" x="257.5" y="584.3859">\D&#160;&#160;\W&#160;&#160;\S</text></g><!--class CUSTOM--><g id="elem_CUSTOM"><rect codeLine="29" fill="#F1F1F1" height="97.2038" id="CUSTOM" rx="2.5" ry="2.5" style="stroke:#181818;stroke-width:0.5;" width="133" x="7" y="376.22"/><ellipse cx="22" cy="392.22" fill="#ADD1B2" rx="11" ry="11" style="stroke:#181818;stroke-width:1.0;"/><path d="M21.4688,399.1419 Q19.7188,399.1419 18.5781,398.4075 Q17.4531,397.6575 16.8906,396.3138 Q16.3438,394.9544 16.3438,393.1575 Q16.3438,391.1263 17,389.6731 Q17.6563,388.22 18.9375,387.4388 Q20.2188,386.6575 22.0938,386.6575 Q22.9844,386.6575 23.6563,386.845 Q24.3281,387.0169 25.0156,387.3606 L24.2031,389.3763 Q23.5781,389.0638 23.0313,388.9388 Q22.5,388.8138 22.0156,388.8138 Q20.8438,388.8138 20.1406,389.345 Q19.4375,389.8763 19.1406,390.8294 Q18.8438,391.7825 18.8438,393.0481 Q18.8438,395.0638 19.5625,396.0325 Q20.2813,396.9856 21.875,396.9856 Q22.4688,396.9856 23.0938,396.8294 Q23.7188,396.6731 24.5469,396.2981 L24.5469,398.5169 Q23.8125,398.8294 23.0156,398.9856 Q22.2344,399.1419 21.4688,399.1419 Z " fill="#000000"/><text fill="#000000" font-family="sans-serif" font-size="14" lengthAdjust="spacing" textLength="101" x="36" y="397.652">Personalizadas</text><line style="stroke:#181818;stroke-width:0.5;" x1="8" x2="139" y1="408.22" y2="408.22"/><text fill="#000000" font-family="monospace" font-size="14" lengthAdjust="spacing" textLength="56" x="13" y="427.1859">[aeiou]</text><text fill="#000000" font-family="monospace" font-size="14" lengthAdjust="spacing" textLength="40" x="13" y="446.2539">[0-9]</text><text fill="#000000" font-family="monospace" font-size="14" lengthAdjust="spacing" textLength="48" x="13" y="465.3218">[^abc]</text></g><!--class DOT--><g id="elem_DOT"><rect codeLine="35" fill="#F1F1F1" height="82.0498" id="DOT" rx="2.5" ry="2.5" style="stroke:#181818;stroke-width:0.5;" width="170" x="316.5" y="383.8"/><ellipse cx="367.25" cy="399.8" fill="#ADD1B2" rx="11" ry="11" style="stroke:#181818;stroke-width:1.0;"/><path d="M366.7188,406.7219 Q364.9688,406.7219 363.8281,405.9875 Q362.7031,405.2375 362.1406,403.8938 Q361.5938,402.5344 361.5938,400.7375 Q361.5938,398.7063 362.25,397.2531 Q362.9063,395.8 364.1875,395.0188 Q365.4688,394.2375 367.3438,394.2375 Q368.2344,394.2375 368.9063,394.425 Q369.5781,394.5969 370.2656,394.9406 L369.4531,396.9563 Q368.8281,396.6438 368.2813,396.5188 Q367.75,396.3938 367.2656,396.3938 Q366.0938,396.3938 365.3906,396.925 Q364.6875,397.4563 364.3906,398.4094 Q364.0938,399.3625 364.0938,400.6281 Q364.0938,402.6438 364.8125,403.6125 Q365.5313,404.5656 367.125,404.5656 Q367.7188,404.5656 368.3438,404.4094 Q368.9688,404.2531 369.7969,403.8781 L369.7969,406.0969 Q369.0625,406.4094 368.2656,406.5656 Q367.4844,406.7219 366.7188,406.7219 Z " fill="#000000"/><text fill="#000000" font-family="sans-serif" font-size="14" lengthAdjust="spacing" textLength="60" x="387.75" y="405.232">Comod&#237;n</text><line style="stroke:#181818;stroke-width:0.5;" x1="317.5" x2="485.5" y1="415.8" y2="415.8"/><text fill="#000000" font-family="monospace" font-size="14" lengthAdjust="spacing" textLength="8" x="322.5" y="434.7659">.</text><line style="stroke:#181818;stroke-width:0.5;" x1="317.5" x2="485.5" y1="442.8679" y2="442.8679"/><text fill="#000000" font-family="sans-serif" font-size="11" lengthAdjust="spacing" textLength="158" x="322.5" y="458.6268">(cualquier car&#225;cter excepto \n)</text></g><!--reverse link RE to LIT--><g id="link_RE_LIT"><path codeLine="40" d="M121.5348,108.7001 C108.9848,129.3901 103.98,137.64 94.84,152.71 " fill="none" id="RE-backto-LIT" style="stroke:#181818;stroke-width:1.0;"/><polygon fill="none" points="130.87,93.31,116.4048,105.5883,126.6648,111.8118,130.87,93.31" style="stroke:#181818;stroke-width:1.0;"/></g><!--reverse link RE to META--><g id="link_RE_META"><path codeLine="41" d="M191.4652,108.7001 C204.0152,129.3901 209.02,137.64 218.16,152.71 " fill="none" id="RE-backto-META" style="stroke:#181818;stroke-width:1.0;"/><polygon fill="none" points="182.13,93.31,186.3352,111.8118,196.5952,105.5883,182.13,93.31" style="stroke:#181818;stroke-width:1.0;"/></g><!--link LIT to META--><!--reverse link META to CCLASS--><g id="link_META_CCLASS"><path codeLine="45" d="M227.5,203.33 C227.5,218.62 227.5,224.71 227.5,244.71 " fill="none" id="META-backto-CCLASS" style="stroke:#181818;stroke-width:1.0;"/><polygon fill="none" points="227.5,185.33,221.5,203.33,233.5,203.33,227.5,185.33" style="stroke:#181818;stroke-width:1.0;"/></g><!--reverse link CCLASS to DOT--><g id="link_CCLASS_DOT"><path codeLine="47" d="M284.0095,327.8282 C308.7595,348.0482 326.12,362.24 351.98,383.36 " fill="none" id="CCLASS-backto-DOT" style="stroke:#181818;stroke-width:1.0;"/><polygon fill="none" points="270.07,316.44,280.2135,332.4747,287.8056,323.1817,270.07,316.44" style="stroke:#181818;stroke-width:1.0;"/></g><!--reverse link CCLASS to PREDEF--><g id="link_CCLASS_PREDEF"><path codeLine="48" d="M214.4173,334.0533 C200.4473,389.9733 177.7,481.07 164.74,532.97 " fill="none" id="CCLASS-backto-PREDEF" style="stroke:#181818;stroke-width:1.0;"/><polygon fill="none" points="218.78,316.59,208.5962,332.5991,220.2384,335.5075,218.78,316.59" style="stroke:#181818;stroke-width:1.0;"/></g><!--reverse link CCLASS to NEGAD--><g id="link_CCLASS_NEGAD"><path codeLine="49" d="M240.5827,334.0533 C254.5527,389.9733 277.3,481.07 290.26,532.97 " fill="none" id="CCLASS-backto-NEGAD" style="stroke:#181818;stroke-width:1.0;"/><polygon fill="none" points="236.22,316.59,234.7616,335.5075,246.4038,332.5991,236.22,316.59" style="stroke:#181818;stroke-width:1.0;"/></g><!--reverse link CCLASS to CUSTOM--><g id="link_CCLASS_CUSTOM"><path codeLine="50" d="M176.6046,328.6502 C157.1946,346.5702 146.44,356.48 125.32,375.99 " fill="none" id="CCLASS-backto-CUSTOM" style="stroke:#181818;stroke-width:1.0;"/><polygon fill="none" points="189.83,316.44,172.5345,324.2417,180.6746,333.0586,189.83,316.44" style="stroke:#181818;stroke-width:1.0;"/></g><!--link CUSTOM to PREDEF--><!--link DOT to NEGAD--><!--link PREDEF to NEGAD--><!--SRC=[VL9DRnCn4BtxLuno2HosvGgA8aMRBK9AqYW9uj2aqgmzIGsxzjRsGWFqn_G7SEB6DNyCsvkF3QWzU7SyVc_yvesxzejK5HeieP2AtBOYg7In3HlMBMZjm6amSdFdG4X3t4cjMFTE2W8k3I-8nPZAocsXf38dmqurUO7M3fmpCgyTNMdb9bWIb5ffMo4dyI_s2B6eR6B9o3LZc5jda3leP0-L8IjtlzLIpMXJ5sWwW1Pc6VnW0BsrfxyxKVizM-VzAJhZ6U1bvhi_zhucWS1rMTLadUvT1aplCb3xpzQejF46EJ9Oa8NGgKEEGHHvGUSr7jkAKz-LPmXQgXC-QaxJqM0-Vq5tgjNdMZbjuUlkgP321y4fg1Nw6Ld9WmylN3qww8tNZJuiMcVZC_qHCCuM0yRY5A0pDIHeBPKKs9nEPzamkufgbyAlRtxPSD-UCA4D7h2JxFrWs427VdtoQzw2JibOhR2Gtu-CzEDySJsEb1iagUjLYDuaR-F_5dE-QXL8TQd5xfUArE7r8l8kdlNn5Q-nkAyb6V0jxvv2pq0Fd2h_j9TBzVe_3_rpwlrCakZP8MxiyHb8RloJ5wHMvf0DtmRL39Mn_N1ZpYjixvEzb-UvwDaPhV74bsgyQT-wBn1QFwR5eSP-KcryS_0N]--></g></svg>