<?xml version="1.0" encoding="us-ascii" standalone="no"?><svg xmlns="http://www.w3.org/2000/svg" xmlns:xlink="http://www.w3.org/1999/xlink" contentStyleType="text/css" height="556px" preserveAspectRatio="none" style="width:500px;height:556px;background:#FFFFFF;" version="1.1" viewBox="0 0 500 556" width="500px" zoomAndPan="magnify"><defs/><g><!--class RE--><g id="elem_RE"><rect codeLine="9" fill="#F1F1F1" height="86.0996" id="RE" rx="2.5" ry="2.5" style="stroke:#181818;stroke-width:0.5;" width="180" x="86.5" y="7"/><ellipse cx="141.75" cy="31.0679" fill="#A9DCDF" rx="11" ry="11" style="stroke:#181818;stroke-width:1.0;"/><path d="M136.9219,36.8179 L140.2656,24.6304 L143.4063,24.6304 L146.7813,36.8179 L144.3125,36.8179 L143.5781,33.8023 L140.0625,33.8023 L139.3125,36.8179 L136.9219,36.8179 Z M141.3281,28.771 L140.5781,31.771 L143.0938,31.771 L142.375,28.771 Q142.2344,28.1929 142.1094,27.646 Q141.9844,27.0835 141.8438,26.5054 Q141.7344,27.0835 141.5938,27.646 Q141.4531,28.1929 141.3281,28.771 Z " fill="#000000"/><text fill="#000000" font-family="sans-serif" font-size="14" font-style="italic" lengthAdjust="spacing" textLength="61" x="162.25" y="26.9659">Expresi&#243;n</text><text fill="#000000" font-family="sans-serif" font-size="14" font-style="italic" lengthAdjust="spacing" textLength="49" x="168.25" y="46.0339">Regular</text><line style="stroke:#181818;stroke-width:0.5;" x1="87.5" x2="265.5" y1="55.1358" y2="55.1358"/><text fill="#000000" font-family="sans-serif" font-size="11" lengthAdjust="spacing" textLength="168" x="92.5" y="70.8947">Patr&#243;n de b&#250;squeda compuesto</text><text fill="#000000" font-family="sans-serif" font-size="11" lengthAdjust="spacing" textLength="154" x="92.5" y="85.8766">por literales y metacaracteres</text></g><!--class LOOK--><g id="elem_LOOK"><rect codeLine="14" fill="#F1F1F1" height="69.9638" id="LOOK" rx="2.5" ry="2.5" style="stroke:#181818;stroke-width:0.5;" width="135" x="180" y="245.1"/><ellipse cx="207.15" cy="261.1" fill="#A9DCDF" rx="11" ry="11" style="stroke:#181818;stroke-width:1.0;"/><path d="M202.3219,266.85 L205.6656,254.6625 L208.8063,254.6625 L212.1813,266.85 L209.7125,266.85 L208.9781,263.8344 L205.4625,263.8344 L204.7125,266.85 L202.3219,266.85 Z M206.7281,258.8031 L205.9781,261.8031 L208.4938,261.8031 L207.775,258.8031 Q207.6344,258.225 207.5094,257.6781 Q207.3844,257.1156 207.2438,256.5375 Q207.1344,257.1156 206.9938,257.6781 Q206.8531,258.225 206.7281,258.8031 Z " fill="#000000"/><text fill="#000000" font-family="sans-serif" font-size="14" font-style="italic" lengthAdjust="spacing" textLength="76" x="223.85" y="266.532">Lookaround</text><line style="stroke:#181818;stroke-width:0.5;" x1="181" x2="314" y1="277.1" y2="277.1"/><text fill="#000000" font-family="sans-serif" font-size="11" lengthAdjust="spacing" textLength="121" x="186" y="292.8589">Condici&#243;n de contexto,</text><text fill="#000000" font-family="sans-serif" font-size="11" lengthAdjust="spacing" textLength="123" x="186" y="307.8408">sin consumir caracteres</text></g><!--class LIT--><g id="elem_LIT"><rect codeLine="19" fill="#F1F1F1" height="32" id="LIT" rx="2.5" ry="2.5" style="stroke:#181818;stroke-width:0.5;" width="86" x="62.5" y="153.1"/><ellipse cx="77.5" cy="169.1" fill="#A9DCDF" rx="11" ry="11" style="stroke:#181818;stroke-width:1.0;"/><path d="M72.6719,174.85 L76.0156,162.6625 L79.1563,162.6625 L82.5313,174.85 L80.0625,174.85 L79.3281,171.8344 L75.8125,171.8344 L75.0625,174.85 L72.6719,174.85 Z M77.0781,166.8031 L76.3281,169.8031 L78.8438,169.8031 L78.125,166.8031 Q77.9844,166.225 77.8594,165.6781 Q77.7344,165.1156 77.5938,164.5375 Q77.4844,165.1156 77.3438,165.6781 Q77.2031,166.225 77.0781,166.8031 Z " fill="#000000"/><text fill="#000000" font-family="sans-serif" font-size="14" font-style="italic" lengthAdjust="spacing" textLength="54" x="91.5" y="174.532">Literales</text></g><!--class META--><g id="elem_META"><rect codeLine="20" fill="#F1F1F1" height="32" id="META" rx="2.5" ry="2.5" style="stroke:#181818;stroke-width:0.5;" width="129" x="183" y="153.1"/><ellipse cx="198" cy="169.1" fill="#A9DCDF" rx="11" ry="11" style="stroke:#181818;stroke-width:1.0;"/><path d="M193.1719,174.85 L196.5156,162.6625 L199.6563,162.6625 L203.0313,174.85 L200.5625,174.85 L199.8281,171.8344 L196.3125,171.8344 L195.5625,174.85 L193.1719,174.85 Z M197.5781,166.8031 L196.8281,169.8031 L199.3438,169.8031 L198.625,166.8031 Q198.4844,166.225 198.3594,165.6781 Q198.2344,165.1156 198.0938,164.5375 Q197.9844,165.1156 197.8438,165.6781 Q197.7031,166.225 197.5781,166.8031 Z " fill="#000000"/><text fill="#000000" font-family="sans-serif" font-size="14" font-style="italic" lengthAdjust="spacing" textLength="97" x="212" y="174.532">Metacaracteres</text></g><!--class AHEAD--><g id="elem_AHEAD"><rect codeLine="22" fill="#F1F1F1" height="54.9819" id="AHEAD" rx="2.5" ry="2.5" style="stroke:#181818;stroke-width:0.5;" width="141" x="86" y="375.06"/><ellipse cx="119" cy="391.06" fill="#A9DCDF" rx="11" ry="11" style="stroke:#181818;stroke-width:1.0;"/><path d="M114.1719,396.81 L117.5156,384.6225 L120.6563,384.6225 L124.0313,396.81 L121.5625,396.81 L120.8281,393.7944 L117.3125,393.7944 L116.5625,396.81 L114.1719,396.81 Z M118.5781,388.7631 L117.8281,391.7631 L120.3438,391.7631 L119.625,388.7631 Q119.4844,388.185 119.3594,387.6381 Q119.2344,387.0756 119.0938,386.4975 Q118.9844,387.0756 118.8438,387.6381 Q118.7031,388.185 118.5781,388.7631 Z " fill="#000000"/><text fill="#000000" font-family="sans-serif" font-size="14" font-style="italic" lengthAdjust="spacing" textLength="69" x="137" y="396.492">Lookahead</text><line style="stroke:#181818;stroke-width:0.5;" x1="87" x2="226" y1="407.06" y2="407.06"/><text fill="#000000" font-family="sans-serif" font-size="11" lengthAdjust="spacing" textLength="129" x="92" y="422.8189">Comprueba lo que sigue</text></g><!--class BEHIND--><g id="elem_BEHIND"><rect codeLine="26" fill="#F1F1F1" height="54.9819" id="BEHIND" rx="2.5" ry="2.5" style="stroke:#181818;stroke-width:0.5;" width="155" x="262" y="375.06"/><ellipse cx="299.5" cy="391.06" fill="#A9DCDF" rx="11" ry="11" style="stroke:#181818;stroke-width:1.0;"/><path d="M294.6719,396.81 L298.0156,384.6225 L301.1563,384.6225 L304.5313,396.81 L302.0625,396.81 L301.3281,393.7944 L297.8125,393.7944 L297.0625,396.81 L294.6719,396.81 Z M299.0781,388.7631 L298.3281,391.7631 L300.8438,391.7631 L300.125,388.7631 Q299.9844,388.185 299.8594,387.6381 Q299.7344,387.0756 299.5938,386.4975 Q299.4844,387.0756 299.3438,387.6381 Q299.2031,388.185 299.0781,388.7631 Z " fill="#000000"/><text fill="#000000" font-family="sans-serif" font-size="14" font-style="italic" lengthAdjust="spacing" textLength="73" x="318.5" y="396.492">Lookbehind</text><line style="stroke:#181818;stroke-width:0.5;" x1="263" x2="416" y1="407.06" y2="407.06"/><text fill="#000000" font-family="sans-serif" font-size="11" lengthAdjust="spacing" textLength="143" x="268" y="422.8189">Comprueba lo que precede</text></g><!--class AHEAD_POS--><g id="elem_AHEAD_POS"><rect codeLine="30" fill="#F1F1F1" height="59.0679" id="AHEAD_POS" rx="2.5" ry="2.5" style="stroke:#181818;stroke-width:0.5;" width="83" x="7" y="490.04"/><ellipse cx="22" cy="506.04" fill="#ADD1B2" rx="11" ry="11" style="stroke:#181818;stroke-width:1.0;"/><path d="M21.4688,512.9619 Q19.7188,512.9619 18.5781,512.2275 Q17.4531,511.4775 16.8906,510.1337 Q16.3438,508.7744 16.3438,506.9775 Q16.3438,504.9462 17,503.4931 Q17.6563,502.04 18.9375,501.2587 Q20.2188,500.4775 22.0938,500.4775 Q22.9844,500.4775 23.6563,500.665 Q24.3281,500.8369 25.0156,501.1806 L24.2031,503.1962 Q23.5781,502.8837 23.0313,502.7587 Q22.5,502.6337 22.0156,502.6337 Q20.8438,502.6337 20.1406,503.165 Q19.4375,503.6962 19.1406,504.6494 Q18.8438,505.6025 18.8438,506.8681 Q18.8438,508.8837 19.5625,509.8525 Q20.2813,510.8056 21.875,510.8056 Q22.4688,510.8056 23.0938,510.6494 Q23.7188,510.4931 24.5469,510.1181 L24.5469,512.3369 Q23.8125,512.6494 23.0156,512.8056 Q22.2344,512.9619 21.4688,512.9619 Z " fill="#000000"/><text fill="#000000" font-family="sans-serif" font-size="14" lengthAdjust="spacing" textLength="51" x="36" y="511.472">Positivo</text><line style="stroke:#181818;stroke-width:0.5;" x1="8" x2="89" y1="522.04" y2="522.04"/><text fill="#000000" font-family="monospace" font-size="14" lengthAdjust="spacing" textLength="48" x="13" y="541.0059">X(?=Y)</text></g><!--class AHEAD_NEG--><g id="elem_AHEAD_NEG"><rect codeLine="34" fill="#F1F1F1" height="59.0679" id="AHEAD_NEG" rx="2.5" ry="2.5" style="stroke:#181818;stroke-width:0.5;" width="92" x="125.5" y="490.04"/><ellipse cx="140.5" cy="506.04" fill="#ADD1B2" rx="11" ry="11" style="stroke:#181818;stroke-width:1.0;"/><path d="M139.9688,512.9619 Q138.2188,512.9619 137.0781,512.2275 Q135.9531,511.4775 135.3906,510.1337 Q134.8438,508.7744 134.8438,506.9775 Q134.8438,504.9462 135.5,503.4931 Q136.1563,502.04 137.4375,501.2587 Q138.7188,500.4775 140.5938,500.4775 Q141.4844,500.4775 142.1563,500.665 Q142.8281,500.8369 143.5156,501.1806 L142.7031,503.1962 Q142.0781,502.8837 141.5313,502.7587 Q141,502.6337 140.5156,502.6337 Q139.3438,502.6337 138.6406,503.165 Q137.9375,503.6962 137.6406,504.6494 Q137.3438,505.6025 137.3438,506.8681 Q137.3438,508.8837 138.0625,509.8525 Q138.7813,510.8056 140.375,510.8056 Q140.9688,510.8056 141.5938,510.6494 Q142.2188,510.4931 143.0469,510.1181 L143.0469,512.3369 Q142.3125,512.6494 141.5156,512.8056 Q140.7344,512.9619 139.9688,512.9619 Z " fill="#000000"/><text fill="#000000" font-family="sans-serif" font-size="14" lengthAdjust="spacing" textLength="60" x="154.5" y="511.472">Negativo</text><line style="stroke:#181818;stroke-width:0.5;" x1="126.5" x2="216.5" y1="522.04" y2="522.04"/><text fill="#000000" font-family="monospace" font-size="14" lengthAdjust="spacing" textLength="48" x="131.5" y="541.0059">X(?!Y)</text></g><!--class BEHIND_POS--><g id="elem_BEHIND_POS"><rect codeLine="38" fill="#F1F1F1" height="59.0679" id="BEHIND_POS" rx="2.5" ry="2.5" style="stroke:#181818;stroke-width:0.5;" width="83" x="283" y="490.04"/><ellipse cx="298" cy="506.04" fill="#ADD1B2" rx="11" ry="11" style="stroke:#181818;stroke-width:1.0;"/><path d="M297.4688,512.9619 Q295.7188,512.9619 294.5781,512.2275 Q293.4531,511.4775 292.8906,510.1337 Q292.3438,508.7744 292.3438,506.9775 Q292.3438,504.9462 293,503.4931 Q293.6563,502.04 294.9375,501.2587 Q296.2188,500.4775 298.0938,500.4775 Q298.9844,500.4775 299.6563,500.665 Q300.3281,500.8369 301.0156,501.1806 L300.2031,503.1962 Q299.5781,502.8837 299.0313,502.7587 Q298.5,502.6337 298.0156,502.6337 Q296.8438,502.6337 296.1406,503.165 Q295.4375,503.6962 295.1406,504.6494 Q294.8438,505.6025 294.8438,506.8681 Q294.8438,508.8837 295.5625,509.8525 Q296.2813,510.8056 297.875,510.8056 Q298.4688,510.8056 299.0938,510.6494 Q299.7188,510.4931 300.5469,510.1181 L300.5469,512.3369 Q299.8125,512.6494 299.0156,512.8056 Q298.2344,512.9619 297.4688,512.9619 Z " fill="#000000"/><text fill="#000000" font-family="sans-serif" font-size="14" lengthAdjust="spacing" textLength="51" x="312" y="511.472">Positivo</text><line style="stroke:#181818;stroke-width:0.5;" x1="284" x2="365" y1="522.04" y2="522.04"/><text fill="#000000" font-family="monospace" font-size="14" lengthAdjust="spacing" textLength="56" x="289" y="541.0059">X(?&lt;=Y)</text></g><!--class BEHIND_NEG--><g id="elem_BEHIND_NEG"><rect codeLine="42" fill="#F1F1F1" height="59.0679" id="BEHIND_NEG" rx="2.5" ry="2.5" style="stroke:#181818;stroke-width:0.5;" width="92" x="401.5" y="490.04"/><ellipse cx="416.5" cy="506.04" fill="#ADD1B2" rx="11" ry="11" style="stroke:#181818;stroke-width:1.0;"/><path d="M415.9688,512.9619 Q414.2188,512.9619 413.0781,512.2275 Q411.9531,511.4775 411.3906,510.1337 Q410.8438,508.7744 410.8438,506.9775 Q410.8438,504.9462 411.5,503.4931 Q412.1563,502.04 413.4375,501.2587 Q414.7188,500.4775 416.5938,500.4775 Q417.4844,500.4775 418.1563,500.665 Q418.8281,500.8369 419.5156,501.1806 L418.7031,503.1962 Q418.0781,502.8837 417.5313,502.7587 Q417,502.6337 416.5156,502.6337 Q415.3438,502.6337 414.6406,503.165 Q413.9375,503.6962 413.6406,504.6494 Q413.3438,505.6025 413.3438,506.8681 Q413.3438,508.8837 414.0625,509.8525 Q414.7813,510.8056 416.375,510.8056 Q416.9688,510.8056 417.5938,510.6494 Q418.2188,510.4931 419.0469,510.1181 L419.0469,512.3369 Q418.3125,512.6494 417.5156,512.8056 Q416.7344,512.9619 415.9688,512.9619 Z " fill="#000000"/><text fill="#000000" font-family="sans-serif" font-size="14" lengthAdjust="spacing" textLength="60" x="430.5" y="511.472">Negativo</text><line style="stroke:#181818;stroke-width:0.5;" x1="402.5" x2="492.5" y1="522.04" y2="522.04"/><text fill="#000000" font-family="monospace" font-size="14" lengthAdjust="spacing" textLength="56" x="407.5" y="541.0059">X(?&lt;!Y)</text></g><!--reverse link RE to LIT--><g id="link_RE_LIT"><path codeLine="46" d="M141.5381,108.6921 C128.9881,129.3921 123.98,137.64 114.84,152.7 " fill="none" id="RE-backto-LIT" style="stroke:#181818;stroke-width:1.0;"/><polygon fill="none" points="150.87,93.3,136.4074,105.5814,146.6688,111.8027,150.87,93.3" style="stroke:#181818;stroke-width:1.0;"/></g><!--reverse link RE to META--><g id="link_RE_META"><path codeLine="47" d="M211.4619,108.6921 C224.0119,129.3921 229.02,137.64 238.16,152.7 " fill="none" id="RE-backto-META" style="stroke:#181818;stroke-width:1.0;"/><polygon fill="none" points="202.13,93.3,206.3312,111.8027,216.5926,105.5814,202.13,93.3" style="stroke:#181818;stroke-width:1.0;"/></g><!--link LIT to META--><!--reverse link META to LOOK--><g id="link_META_LOOK"><path codeLine="51" d="M247.5,203.25 C247.5,218.57 247.5,224.78 247.5,244.77 " fill="none" id="META-backto-LOOK" style="stroke:#181818;stroke-width:1.0;"/><polygon fill="none" points="247.5,185.25,241.5,203.25,253.5,203.25,247.5,185.25" style="stroke:#181818;stroke-width:1.0;"/></g><!--reverse link LOOK to AHEAD--><g id="link_LOOK_AHEAD"><path codeLine="53" d="M210.8166,329.6398 C196.5166,348.5598 189.88,357.37 176.61,374.93 " fill="none" id="LOOK-backto-AHEAD" style="stroke:#181818;stroke-width:1.0;"/><polygon fill="none" points="221.67,315.28,206.03,326.022,215.6033,333.2576,221.67,315.28" style="stroke:#181818;stroke-width:1.0;"/></g><!--reverse link LOOK to BEHIND--><g id="link_LOOK_BEHIND"><path codeLine="54" d="M284.5454,329.5851 C298.9954,348.5051 305.76,357.37 319.17,374.93 " fill="none" id="LOOK-backto-BEHIND" style="stroke:#181818;stroke-width:1.0;"/><polygon fill="none" points="273.62,315.28,279.777,333.2269,289.3138,325.9433,273.62,315.28" style="stroke:#181818;stroke-width:1.0;"/></g><!--reverse link AHEAD to AHEAD_POS--><g id="link_AHEAD_AHEAD_POS"><path codeLine="56" d="M118.8602,443.6434 C102.1502,461.4434 92.6,471.61 75.55,489.77 " fill="none" id="AHEAD-backto-AHEAD_POS" style="stroke:#181818;stroke-width:1.0;"/><polygon fill="none" points="131.18,430.52,114.4858,439.5368,123.2347,447.75,131.18,430.52" style="stroke:#181818;stroke-width:1.0;"/></g><!--reverse link AHEAD to AHEAD_NEG--><g id="link_AHEAD_AHEAD_NEG"><path codeLine="57" d="M162.3464,448.369 C164.6664,466.169 165.37,471.61 167.74,489.77 " fill="none" id="AHEAD-backto-AHEAD_NEG" style="stroke:#181818;stroke-width:1.0;"/><polygon fill="none" points="160.02,430.52,156.3967,449.1445,168.2961,447.5936,160.02,430.52" style="stroke:#181818;stroke-width:1.0;"/></g><!--reverse link BEHIND to BEHIND_POS--><g id="link_BEHIND_BEHIND_POS"><path codeLine="59" d="M333.6536,448.369 C331.3336,466.169 330.63,471.61 328.26,489.77 " fill="none" id="BEHIND-backto-BEHIND_POS" style="stroke:#181818;stroke-width:1.0;"/><polygon fill="none" points="335.98,430.52,327.7039,447.5936,339.6033,449.1445,335.98,430.52" style="stroke:#181818;stroke-width:1.0;"/></g><!--reverse link BEHIND to BEHIND_NEG--><g id="link_BEHIND_BEHIND_NEG"><path codeLine="60" d="M377.1398,443.6434 C393.8498,461.4434 403.4,471.61 420.45,489.77 " fill="none" id="BEHIND-backto-BEHIND_NEG" style="stroke:#181818;stroke-width:1.0;"/><polygon fill="none" points="364.82,430.52,372.7653,447.75,381.5142,439.5368,364.82,430.52" style="stroke:#181818;stroke-width:1.0;"/></g><!--link AHEAD to BEHIND--><!--link AHEAD_POS to AHEAD_NEG--><!--link BEHIND_POS to BEHIND_NEG--><!--SRC=[bLDDRnCn4BtxLmov12IYtj4IbC92AzeaAZrGGOLclPF4wgvjR2zgHFbLtBZsZs5xDrsdQKEvhEpnUs_UVEpGNWcfqM0DbP3arff0gseTBcnOqSA1Ks34SkMW58Qu4qgouKgK15mONX6BPwgrMqDDTK66zPgyGcidpXbHD8xUA-ccM1FKIYghaLDv7ti7iIZjo98H2yQmiCuWTp38hxKXAsv_ow_oZ9PDXMO0QE4iXvyC85ju-gkUEiviKupdw8ndWBTPtFwntnig4RYgTKFMgUmWOBA3G1q_gg6LyGroPB0Y2w5IXno3AVA6jZL-fOvFbBf2enfPHgCdizd7FLRVAbaABZgtt4FesgcNJ_DeXGmKszJ2mDFCRIfglHsV9s-dMnL6m6b-FjcfRKNObZOvoYVlzjPMQzDGWL0fy4C0AvOD_QDr1Qr4rxh3_EXu-by9_Axu5TjD4JSD1dDbXHC_LE_-stpsAIRu_FpDwuiN2NPAIxo7dUOVDjXdMzWjtTPrAfpjKUxGYNJMQViDpsv6epYapRcTXu_0w8l_2qkIbsOJ3T-EuLVEeyBYnNjqdzpRd8ory-iXmVDkq5jZh1j5Ge_W1y8Htega7hkSVTFJnpvHqhnTTaJy1G00]--></g></svg>