<?xml version="1.0" encoding="us-ascii" standalone="no"?><svg xmlns="http://www.w3.org/2000/svg" xmlns:xlink="http://www.w3.org/1999/xlink" contentStyleType="text/css" height="392px" preserveAspectRatio="none" style="width:650px;height:392px;background:#FFFFFF;" version="1.1" viewBox="0 0 650 392" width="650px" zoomAndPan="magnify"><defs/><g><g id="Raw"><rect fill="#F1F1F1" height="58.1358" rx="12.5" ry="12.5" style="stroke:#181818;stroke-width:0.5;" width="87" x="67.5" y="18.239"/><line style="stroke:#181818;stroke-width:0.5;" x1="67.5" x2="154.5" y1="66.3748" y2="66.3748"/><text fill="#000000" font-family="sans-serif" font-size="14" lengthAdjust="spacing" textLength="55" x="83.5" y="38.2049">CORPUS</text><text fill="#000000" font-family="sans-serif" font-size="14" lengthAdjust="spacing" textLength="67" x="77.5" y="57.2729">ORIGINAL</text></g><g id="Clean"><rect fill="#F1F1F1" height="58.1358" rx="12.5" ry="12.5" style="stroke:#181818;stroke-width:0.5;" width="75" x="382.5" y="18.239"/><line style="stroke:#181818;stroke-width:0.5;" x1="382.5" x2="457.5" y1="66.3748" y2="66.3748"/><text fill="#000000" font-family="sans-serif" font-size="14" lengthAdjust="spacing" textLength="55" x="392.5" y="38.2049">CORPUS</text><text fill="#000000" font-family="sans-serif" font-size="14" lengthAdjust="spacing" textLength="49" x="395.5" y="57.2729">LIMPIO</text></g><g id="Terms"><rect fill="#F1F1F1" height="58.1358" rx="12.5" ry="12.5" style="stroke:#181818;stroke-width:0.5;" width="96" x="372" y="173.379"/><line style="stroke:#181818;stroke-width:0.5;" x1="372" x2="468" y1="221.5148" y2="221.5148"/><text fill="#000000" font-family="sans-serif" font-size="14" lengthAdjust="spacing" textLength="73" x="383.5" y="193.3449">T&#201;RMINOS</text><text fill="#000000" font-family="sans-serif" font-size="14" lengthAdjust="spacing" textLength="76" x="382" y="212.4129">EXTRA&#205;DOS</text></g><g id="Draft"><rect fill="#F1F1F1" height="58.1358" rx="12.5" ry="12.5" style="stroke:#181818;stroke-width:0.5;" width="104" x="7" y="173.379"/><line style="stroke:#181818;stroke-width:0.5;" x1="7" x2="111" y1="221.5148" y2="221.5148"/><text fill="#000000" font-family="sans-serif" font-size="14" lengthAdjust="spacing" textLength="76" x="21" y="193.3449">EJERCICIOS</text><text fill="#000000" font-family="sans-serif" font-size="14" lengthAdjust="spacing" textLength="84" x="17" y="212.4129">GENERADOS</text></g><g id="Published"><rect fill="#F1F1F1" height="58.1358" rx="12.5" ry="12.5" style="stroke:#181818;stroke-width:0.5;" width="97" x="10.5" y="328.509"/><line style="stroke:#181818;stroke-width:0.5;" x1="10.5" x2="107.5" y1="376.6448" y2="376.6448"/><text fill="#000000" font-family="sans-serif" font-size="14" lengthAdjust="spacing" textLength="76" x="21" y="348.4749">EJERCICIOS</text><text fill="#000000" font-family="sans-serif" font-size="14" lengthAdjust="spacing" textLength="77" x="20.5" y="367.5429">VALIDADOS</text></g><ellipse cx="23" cy="47.309" fill="#222222" rx="10" ry="10" style="stroke:#222222;stroke-width:1.0;"/><ellipse cx="154" cy="357.579" fill="none" rx="11" ry="11" style="stroke:#222222;stroke-width:1.0;"/><ellipse cx="154" cy="357.579" fill="#222222" rx="6" ry="6" style="stroke:#222222;stroke-width:1.0;"/><!--link *start* to Raw--><g id="link_*start*_Raw"><path d="M33.31,47.309 C44.64,47.309 49.97,47.309 61.3,47.309 " fill="none" id="*start*-to-Raw" style="stroke:#181818;stroke-width:1.0;"/><polygon fill="#181818" points="67.3,47.309,58.3,43.309,62.3,47.309,58.3,51.309,67.3,47.309" style="stroke:#181818;stroke-width:1.0;"/></g><!--link Raw to Clean--><g id="link_Raw_Clean"><path d="M154.94,47.309 C215.76,47.309 318.57,47.309 376.04,47.309 " fill="none" id="Raw-to-Clean" style="stroke:#181818;stroke-width:1.0;"/><polygon fill="#181818" points="382.04,47.309,373.04,43.309,377.04,47.309,373.04,51.309,382.04,47.309" style="stroke:#181818;stroke-width:1.0;"/><text fill="#000000" font-family="sans-serif" font-size="13" lengthAdjust="spacing" textLength="42" x="247.5" y="22.206">regex()</text><text fill="#000000" font-family="sans-serif" font-size="13" lengthAdjust="spacing" textLength="191" x="173" y="39.912">limpiar metadatos, URLs y ruido</text></g><!--link Clean to Terms--><g id="link_Clean_Terms"><path d="M420,76.759 C420,104.169 420,139.439 420,166.889 " fill="none" id="Clean-to-Terms" style="stroke:#181818;stroke-width:1.0;"/><polygon fill="#181818" points="420,172.889,424,163.889,420,167.889,416,163.889,420,172.889" style="stroke:#181818;stroke-width:1.0;"/><text fill="#000000" font-family="sans-serif" font-size="13" lengthAdjust="spacing" textLength="27" x="518" y="121.276">pln()</text><text fill="#000000" font-family="sans-serif" font-size="13" lengthAdjust="spacing" textLength="221" x="421" y="138.982">extraer lemas, entidades y categor&#237;as</text></g><!--reverse link Draft to Terms--><g id="link_Draft_Terms"><path d="M117.49,202.449 C187.4,202.449 304.09,202.449 371.78,202.449 " fill="none" id="Draft-backto-Terms" style="stroke:#181818;stroke-width:1.0;"/><polygon fill="#181818" points="111.49,202.449,120.49,206.449,116.49,202.449,120.49,198.449,111.49,202.449" style="stroke:#181818;stroke-width:1.0;"/><text fill="#000000" font-family="sans-serif" font-size="13" lengthAdjust="spacing" textLength="88" x="197.5" y="177.346">ia_generativa()</text><text fill="#000000" font-family="sans-serif" font-size="13" lengthAdjust="spacing" textLength="225" x="129" y="195.052">generar ejercicios a partir de t&#233;rminos</text></g><!--link Draft to Published--><g id="link_Draft_Published"><path d="M59,231.889 C59,259.309 59,294.579 59,322.029 " fill="none" id="Draft-to-Published" style="stroke:#181818;stroke-width:1.0;"/><polygon fill="#181818" points="59,328.029,63,319.029,59,323.029,55,319.029,59,328.029" style="stroke:#181818;stroke-width:1.0;"/><text fill="#000000" font-family="sans-serif" font-size="13" lengthAdjust="spacing" textLength="124" x="74.5" y="276.406">validacion_humana()</text><text fill="#000000" font-family="sans-serif" font-size="13" lengthAdjust="spacing" textLength="153" x="60" y="294.112">corregir, refinar y publicar</text></g><!--link Published to *end*--><g id="link_Published_*end*"><path d="M107.98,357.579 C119.61,357.579 125.23,357.579 136.86,357.579 " fill="none" id="Published-to-*end*" style="stroke:#181818;stroke-width:1.0;"/><polygon fill="#181818" points="142.86,357.579,133.86,353.579,137.86,357.579,133.86,361.579,142.86,357.579" style="stroke:#181818;stroke-width:1.0;"/></g><!--SRC=[RP11QiCm44NtEiNGLLlY2tHHC8u9AauSbAGKcXAczYHHiMKpKjBa25tq85tq5BbOPPca5BeH3FFVr_zZ7Jg2goHNqyLiQN8bHt8IPrU05XI-2_jtdydnLEPXcrI4vhoVdpxKM4voBqcVvYe-VGxpMP3DYMjxbgKFgKfa8ZlTA9saAZxBXenhzv_iCSxay2ARxbuhRRTK2l5y-m8HH_SXfl1FFuLOS0TC6pfStonDfUjM8qDD3ajqZHt0GcKMZi0xNJQY1wBIio6hPzlAT2GT72CnL5IZfyWuNM997Lhud9k6JzzeHKz5bJS8BRo1njM6334wlSVEgfyOw8suq8LkB22qo4upb0JkzCMrDeqLlKD8S-dg3VTO-RyzPrRRNOqcc1OD-vQQ1xxiMXjlVuIsWmfa8NxnA1p6tqly0000]--></g></svg>