<?xml version="1.0" encoding="us-ascii" standalone="no"?><svg xmlns="http://www.w3.org/2000/svg" xmlns:xlink="http://www.w3.org/1999/xlink" contentStyleType="text/css" height="455px" preserveAspectRatio="none" style="width:1168px;height:455px;background:#FFFFFF;" version="1.1" viewBox="0 0 1168 455" width="1168px" zoomAndPan="magnify"><defs/><g><!--class IL--><g id="elem_IL"><rect codeLine="6" fill="#F1F1F1" height="29.0679" id="IL" rx="2.5" ry="2.5" style="stroke:#181818;stroke-width:0.5;" width="151" x="638" y="7"/><text fill="#000000" font-family="sans-serif" font-size="14" font-weight="bold" lengthAdjust="spacing" textLength="145" x="641" y="26.9659">Ingenier&#237;a ling&#252;&#237;stica</text></g><!--class PT--><g id="elem_PT"><rect codeLine="7" fill="#D4EDDA" height="29.0679" id="PT" rx="2.5" ry="2.5" style="stroke:#181818;stroke-width:0.5;" width="172" x="285.5" y="105.6"/><text fill="#000000" font-family="sans-serif" font-size="14" font-weight="bold" lengthAdjust="spacing" textLength="166" x="288.5" y="125.5659">Procesamiento de texto</text></g><!--class PLN--><g id="elem_PLN"><rect codeLine="8" fill="#D4EDDA" height="48.1358" id="PLN" rx="2.5" ry="2.5" style="stroke:#181818;stroke-width:0.5;" width="131" x="458" y="204.2"/><text fill="#000000" font-family="sans-serif" font-size="14" font-weight="bold" lengthAdjust="spacing" textLength="125" x="461" y="224.1659">Procesamiento de</text><text fill="#000000" font-family="sans-serif" font-size="14" lengthAdjust="spacing" textLength="117" x="465" y="243.2339">Lenguaje Natural</text></g><!--class GLN--><g id="elem_GLN"><rect codeLine="9" fill="#D4EDDA" height="48.1358" id="GLN" rx="2.5" ry="2.5" style="stroke:#181818;stroke-width:0.5;" width="123" x="576" y="96.06"/><text fill="#000000" font-family="sans-serif" font-size="14" font-weight="bold" lengthAdjust="spacing" textLength="99" x="588" y="116.0259">Generaci&#243;n de</text><text fill="#000000" font-family="sans-serif" font-size="14" lengthAdjust="spacing" textLength="117" x="579" y="135.0939">Lenguaje Natural</text></g><!--class ASR--><g id="elem_ASR"><rect codeLine="10" fill="#F1F1F1" height="48.1358" id="ASR" rx="2.5" ry="2.5" style="stroke:#181818;stroke-width:0.5;" width="113" x="734" y="96.06"/><text fill="#000000" font-family="sans-serif" font-size="14" lengthAdjust="spacing" textLength="107" x="737" y="116.0259">Reconocimiento</text><text fill="#000000" font-family="sans-serif" font-size="14" lengthAdjust="spacing" textLength="63" x="759" y="135.0939">del habla</text></g><!--class TTS--><g id="elem_TTS"><rect codeLine="11" fill="#F1F1F1" height="29.0679" id="TTS" rx="2.5" ry="2.5" style="stroke:#181818;stroke-width:0.5;" width="105" x="882" y="105.6"/><text fill="#000000" font-family="sans-serif" font-size="14" lengthAdjust="spacing" textLength="99" x="885" y="125.5659">S&#237;ntesis de voz</text></g><!--class LEX--><g id="elem_LEX"><rect codeLine="12" fill="#F1F1F1" height="48.1358" id="LEX" rx="2.5" ry="2.5" style="stroke:#181818;stroke-width:0.5;" width="105" x="1022" y="96.06"/><text fill="#000000" font-family="sans-serif" font-size="14" lengthAdjust="spacing" textLength="81" x="1034" y="116.0259">Lexicograf&#237;a</text><text fill="#000000" font-family="sans-serif" font-size="14" lengthAdjust="spacing" textLength="99" x="1025" y="135.0939">computacional</text></g><!--class RE--><g id="elem_RE"><rect codeLine="14" fill="#D4EDDA" height="29.0679" id="RE" rx="2.5" ry="2.5" style="stroke:#181818;stroke-width:0.5;" width="156" x="128.5" y="213.73"/><text fill="#000000" font-family="sans-serif" font-size="14" lengthAdjust="spacing" textLength="150" x="131.5" y="233.6959">Expresiones regulares</text></g><!--class NORM--><g id="elem_NORM"><rect codeLine="15" fill="#D4EDDA" height="48.1358" id="NORM" rx="2.5" ry="2.5" style="stroke:#181818;stroke-width:0.5;" width="103" x="320" y="204.2"/><text fill="#000000" font-family="sans-serif" font-size="14" lengthAdjust="spacing" textLength="97" x="323" y="224.1659">Normalizaci&#243;n</text><text fill="#000000" font-family="sans-serif" font-size="14" lengthAdjust="spacing" textLength="67" x="338" y="243.2339">de corpus</text></g><!--class TOK--><g id="elem_TOK"><rect codeLine="17" fill="#D4EDDA" height="29.0679" id="TOK" rx="2.5" ry="2.5" style="stroke:#181818;stroke-width:0.5;" width="93" x="7" y="321.87"/><text fill="#000000" font-family="sans-serif" font-size="14" lengthAdjust="spacing" textLength="87" x="10" y="341.8359">Tokenizaci&#243;n</text></g><!--class POS--><g id="elem_POS"><rect codeLine="18" fill="#D4EDDA" height="48.1358" id="POS" rx="2.5" ry="2.5" style="stroke:#181818;stroke-width:0.5;" width="166" x="135.5" y="312.34"/><text fill="#000000" font-family="sans-serif" font-size="14" lengthAdjust="spacing" textLength="160" x="138.5" y="332.3059">An&#225;lisis morfosint&#225;ctico</text><text fill="#000000" font-family="sans-serif" font-size="14" lengthAdjust="spacing" textLength="92" x="172.5" y="351.3739">(POS tagging)</text></g><!--class NER--><g id="elem_NER"><rect codeLine="19" fill="#D4EDDA" height="48.1358" id="NER" rx="2.5" ry="2.5" style="stroke:#181818;stroke-width:0.5;" width="134" x="336.5" y="312.34"/><text fill="#000000" font-family="sans-serif" font-size="14" lengthAdjust="spacing" textLength="128" x="339.5" y="332.3059">Reconocimiento de</text><text fill="#000000" font-family="sans-serif" font-size="14" lengthAdjust="spacing" textLength="107" x="350" y="351.3739">entidades (NER)</text></g><!--class TERM--><g id="elem_TERM"><rect codeLine="20" fill="#D4EDDA" height="29.0679" id="TERM" rx="2.5" ry="2.5" style="stroke:#181818;stroke-width:0.5;" width="155" x="335" y="420.47"/><text fill="#000000" font-family="sans-serif" font-size="14" lengthAdjust="spacing" textLength="149" x="338" y="440.4359">An&#225;lisis terminol&#243;gico</text></g><!--class SIM--><g id="elem_SIM"><rect codeLine="21" fill="#D4EDDA" height="29.0679" id="SIM" rx="2.5" ry="2.5" style="stroke:#181818;stroke-width:0.5;" width="139" x="525" y="420.47"/><text fill="#000000" font-family="sans-serif" font-size="14" lengthAdjust="spacing" textLength="133" x="528" y="440.4359">Similitud sem&#225;ntica</text></g><!--class TA--><g id="elem_TA"><rect codeLine="22" fill="#D4EDDA" height="29.0679" id="TA" rx="2.5" ry="2.5" style="stroke:#181818;stroke-width:0.5;" width="160" x="699.5" y="420.47"/><text fill="#000000" font-family="sans-serif" font-size="14" lengthAdjust="spacing" textLength="154" x="702.5" y="440.4359">Traducci&#243;n autom&#225;tica</text></g><!--class LLM--><g id="elem_LLM"><rect codeLine="24" fill="#D4EDDA" height="48.1358" id="LLM" rx="2.5" ry="2.5" style="stroke:#181818;stroke-width:0.5;" width="96" x="824.5" y="204.2"/><text fill="#000000" font-family="sans-serif" font-size="14" lengthAdjust="spacing" textLength="90" x="827.5" y="224.1659">IA generativa</text><text fill="#000000" font-family="sans-serif" font-size="14" lengthAdjust="spacing" textLength="42" x="851.5" y="243.2339">(LLMs)</text></g><!--class PROMPT--><g id="elem_PROMPT"><rect codeLine="25" fill="#D4EDDA" height="29.0679" id="PROMPT" rx="2.5" ry="2.5" style="stroke:#181818;stroke-width:0.5;" width="77" x="775" y="321.87"/><text fill="#000000" font-family="sans-serif" font-size="14" lengthAdjust="spacing" textLength="71" x="778" y="341.8359">Prompting</text></g><!--class LOC--><g id="elem_LOC"><rect codeLine="26" fill="#D4EDDA" height="48.1358" id="LOC" rx="2.5" ry="2.5" style="stroke:#181818;stroke-width:0.5;" width="92" x="886.5" y="312.34"/><text fill="#000000" font-family="sans-serif" font-size="14" lengthAdjust="spacing" textLength="86" x="889.5" y="332.3059">Traducci&#243;n y</text><text fill="#000000" font-family="sans-serif" font-size="14" lengthAdjust="spacing" textLength="78" x="893.5" y="351.3739">localizaci&#243;n</text></g><!--class CCL--><g id="elem_CCL"><rect codeLine="27" fill="#D4EDDA" height="48.1358" id="CCL" rx="2.5" ry="2.5" style="stroke:#181818;stroke-width:0.5;" width="147" x="1014" y="312.34"/><text fill="#000000" font-family="sans-serif" font-size="14" lengthAdjust="spacing" textLength="80" x="1047.5" y="332.3059">Creaci&#243;n de</text><text fill="#000000" font-family="sans-serif" font-size="14" lengthAdjust="spacing" textLength="141" x="1017" y="351.3739">contenido ling&#252;&#237;stico</text></g><!--reverse link IL to PT--><g id="link_IL_PT"><path codeLine="29" d="M646.8181,41.3642 C581.9781,59.6842 486.09,86.76 421.13,105.11 " fill="none" id="IL-backto-PT" style="stroke:#181818;stroke-width:1.0;"/><polygon fill="none" points="664.14,36.47,645.1867,35.5902,648.4495,47.1381,664.14,36.47" style="stroke:#181818;stroke-width:1.0;"/></g><!--reverse link IL to PLN--><g id="link_IL_PLN"><path codeLine="30" d="M639.4934,42.2211 C606.3834,53.1911 583.46,66.08 558.5,96.06 C532.71,127.05 525.76,175.18 523.98,203.73 " fill="none" id="IL-backto-PLN" style="stroke:#181818;stroke-width:1.0;"/><polygon fill="none" points="656.58,36.56,637.6064,36.5256,641.3804,47.9167,656.58,36.56" style="stroke:#181818;stroke-width:1.0;"/></g><!--reverse link IL to GLN--><g id="link_IL_GLN"><path codeLine="31" d="M691.4787,50.5155 C679.3287,65.9555 670.6,77.06 656,95.62 " fill="none" id="IL-backto-GLN" style="stroke:#181818;stroke-width:1.0;"/><polygon fill="none" points="702.61,36.37,686.7635,46.805,696.1938,54.2259,702.61,36.37" style="stroke:#181818;stroke-width:1.0;"/></g><!--reverse link IL to ASR--><g id="link_IL_ASR"><path codeLine="32" d="M735.7512,50.4443 C748.0612,65.8843 756.97,77.06 771.76,95.62 " fill="none" id="IL-backto-ASR" style="stroke:#181818;stroke-width:1.0;"/><polygon fill="none" points="724.53,36.37,731.0597,54.1847,740.4426,46.7039,724.53,36.37" style="stroke:#181818;stroke-width:1.0;"/></g><!--reverse link IL to TTS--><g id="link_IL_TTS"><path codeLine="33" d="M761.6539,43.5777 C803.5539,61.8877 860.49,86.78 902.54,105.16 " fill="none" id="IL-backto-TTS" style="stroke:#181818;stroke-width:1.0;"/><polygon fill="none" points="745.16,36.37,759.2513,49.0757,764.0565,38.0797,745.16,36.37" style="stroke:#181818;stroke-width:1.0;"/></g><!--reverse link IL to LEX--><g id="link_IL_LEX"><path codeLine="34" d="M791.5478,40.6386 C850.6378,54.5986 925.44,73.08 1004.5,96.06 C1010.15,97.71 1016.03,99.51 1021.88,101.35 " fill="none" id="IL-backto-LEX" style="stroke:#181818;stroke-width:1.0;"/><polygon fill="none" points="774.03,36.5,790.1682,46.4778,792.9273,34.7993,774.03,36.5" style="stroke:#181818;stroke-width:1.0;"/></g><!--reverse link PT to RE--><g id="link_PT_RE"><path codeLine="36" d="M334.7916,144.748 C303.1716,165.088 259.7,193.05 228.08,213.39 " fill="none" id="PT-backto-RE" style="stroke:#181818;stroke-width:1.0;"/><polygon fill="none" points="349.93,135.01,331.5456,139.7019,338.0376,149.7941,349.93,135.01" style="stroke:#181818;stroke-width:1.0;"/></g><!--reverse link PT to NORM--><g id="link_PT_NORM"><path codeLine="37" d="M371.5,153.01 C371.5,170.54 371.5,182.96 371.5,204.06 " fill="none" id="PT-backto-NORM" style="stroke:#181818;stroke-width:1.0;"/><polygon fill="none" points="371.5,135.01,365.5,153.01,377.5,153.01,371.5,135.01" style="stroke:#181818;stroke-width:1.0;"/></g><!--reverse link PLN to TOK--><g id="link_PLN_TOK"><path codeLine="39" d="M440.5057,252.5372 C298.2557,285.4472 258.42,274.12 117.5,312.34 C108.15,314.87 98.23,318.15 89.05,321.43 " fill="none" id="PLN-backto-TOK" style="stroke:#181818;stroke-width:1.0;"/><polygon fill="none" points="457.94,248.06,439.0133,246.7257,441.9981,258.3486,457.94,248.06" style="stroke:#181818;stroke-width:1.0;"/></g><!--reverse link PLN to POS--><g id="link_PLN_POS"><path codeLine="40" d="M440.6996,258.0849 C389.9996,275.7249 337.16,294.11 286.03,311.9 " fill="none" id="PLN-backto-POS" style="stroke:#181818;stroke-width:1.0;"/><polygon fill="none" points="457.7,252.17,438.728,252.4181,442.6712,263.7517,457.7,252.17" style="stroke:#181818;stroke-width:1.0;"/></g><!--reverse link PLN to NER--><g id="link_PLN_NER"><path codeLine="41" d="M483.3864,264.7444 C463.4964,282.3344 449.93,294.34 430.06,311.92 " fill="none" id="PLN-backto-NER" style="stroke:#181818;stroke-width:1.0;"/><polygon fill="none" points="496.87,252.82,479.4116,260.2499,487.3612,269.239,496.87,252.82" style="stroke:#181818;stroke-width:1.0;"/></g><!--reverse link PLN to TERM--><g id="link_PLN_TERM"><path codeLine="42" d="M518.3099,270.3284 C514.3899,297.7184 507.73,326.06 487.5,360.47 C473.17,384.84 448.7,406.65 431.62,420.08 " fill="none" id="PLN-backto-TERM" style="stroke:#181818;stroke-width:1.0;"/><polygon fill="none" points="520.86,252.51,512.3704,269.4784,524.2493,271.1785,520.86,252.51" style="stroke:#181818;stroke-width:1.0;"/></g><!--reverse link PLN to SIM--><g id="link_PLN_SIM"><path codeLine="43" d="M537.539,269.7559 C552.479,312.8259 577.9,386.14 589.79,420.42 " fill="none" id="PLN-backto-SIM" style="stroke:#181818;stroke-width:1.0;"/><polygon fill="none" points="531.64,252.75,531.8703,271.7223,543.2076,267.7896,531.64,252.75" style="stroke:#181818;stroke-width:1.0;"/></g><!--reverse link PLN to TA--><g id="link_PLN_TA"><path codeLine="44" d="M566.9267,263.9932 C620.6367,306.9532 719.1,385.7 762.2,420.17 " fill="none" id="PLN-backto-TA" style="stroke:#181818;stroke-width:1.0;"/><polygon fill="none" points="552.87,252.75,563.1789,268.6788,570.6744,259.3077,552.87,252.75" style="stroke:#181818;stroke-width:1.0;"/></g><!--reverse link GLN to LLM--><g id="link_GLN_LLM"><path codeLine="46" d="M706.0542,152.0997 C746.2142,170.2397 784.91,187.71 824.1,205.41 " fill="none" id="GLN-backto-LLM" style="stroke:#181818;stroke-width:1.0;"/><polygon fill="none" points="689.65,144.69,703.5843,157.5677,708.5241,146.6316,689.65,144.69" style="stroke:#181818;stroke-width:1.0;"/></g><!--reverse link LLM to PROMPT--><g id="link_LLM_PROMPT"><path codeLine="48" d="M850.6621,268.5513 C838.9121,289.6813 830.82,304.24 821.14,321.65 " fill="none" id="LLM-backto-PROMPT" style="stroke:#181818;stroke-width:1.0;"/><polygon fill="none" points="859.41,252.82,845.4183,265.6354,855.9059,271.4673,859.41,252.82" style="stroke:#181818;stroke-width:1.0;"/></g><!--reverse link LLM to LOC--><g id="link_LLM_LOC"><path codeLine="49" d="M894.6756,268.491 C904.6156,286.081 909.29,294.34 919.22,311.92 " fill="none" id="LLM-backto-LOC" style="stroke:#181818;stroke-width:1.0;"/><polygon fill="none" points="885.82,252.82,889.4519,271.4428,899.8992,265.5391,885.82,252.82" style="stroke:#181818;stroke-width:1.0;"/></g><!--reverse link LLM to CCL--><g id="link_LLM_CCL"><path codeLine="50" d="M936.3594,260.79 C971.9794,278.38 1004.32,294.34 1039.92,311.92 " fill="none" id="LLM-backto-CCL" style="stroke:#181818;stroke-width:1.0;"/><polygon fill="none" points="920.22,252.82,933.7027,266.1698,939.016,255.4102,920.22,252.82" style="stroke:#181818;stroke-width:1.0;"/></g><!--SRC=[VLCzRzim4DtrAuXag3juwnW440p1C29RXgIXWnUQkiXiA58WgS0E-cVy0pnbxQO_rgCOVTHkijsHx_7ktZqUU064SSq410SNLr3jGPlWctdXigQQLaHm2VPK0wcLEBaa29YWnf2xX_tZIfOWEUZsGXsmRF-q5sCvetU46hAA9z2jLWmChJX8gmZMid2qgiDjSt9V_82Ye5_WTp86MJRq5v0DjOscmdFZpN_8Iv2WAUFjk_oSkhobfi2KL8pxgZjPW207kXT-dZ1BUs3MNgG5musRv5MzTVTvdlNtCHmvKwMcpoZDJZ9LrOt5XfJyA1v7FmSXesEjyIqbmH0DPICefXqgZQuxt2XTKS7V_72kGyAKhXkFtoJfUc3qb5ozu98-6BxHvEdwtL2sPy7TG9NIpyfmQTipmrMY2hDjaX5Bon8t_DshZWTVIjUfZW4lQ85JpJPHwfaOV5xQWgwuLA9zBx6mRpMQJDIBZqK4jqr135JjMGw6orOts5pJec7U2RIn2l43F0zlj5g5fEoyO_ahxcqMnslZ6yVe-csqQ5LR5CLhaYRhMoTFwvzsKYWsRi-_cookEGiD4- -Yh1RtLwX_VfXNPx68nn5MCNduFP_ZT-h3kViUm_bo4Zihzx6pRHztjiGfkYIDXj0P2o_mntXAyZGcQ8OnmVqEoRpRtYJ5_Kmlmo1OzZoKDmYSnlx9JiinHv7618SE_W80]--></g></svg>