<?xml version="1.0" encoding="us-ascii" standalone="no"?><svg xmlns="http://www.w3.org/2000/svg" xmlns:xlink="http://www.w3.org/1999/xlink" contentStyleType="text/css" height="480px" preserveAspectRatio="none" style="width:667px;height:480px;background:#FFFFFF;" version="1.1" viewBox="0 0 667 480" width="667px" zoomAndPan="magnify"><defs/><g><!--class RE--><g id="elem_RE"><rect codeLine="9" fill="#F1F1F1" height="86.0996" id="RE" rx="2.5" ry="2.5" style="stroke:#181818;stroke-width:0.5;" width="180" x="228" y="7"/><ellipse cx="283.25" cy="31.0679" fill="#A9DCDF" rx="11" ry="11" style="stroke:#181818;stroke-width:1.0;"/><path d="M278.4219,36.8179 L281.7656,24.6304 L284.9063,24.6304 L288.2813,36.8179 L285.8125,36.8179 L285.0781,33.8023 L281.5625,33.8023 L280.8125,36.8179 L278.4219,36.8179 Z M282.8281,28.771 L282.0781,31.771 L284.5938,31.771 L283.875,28.771 Q283.7344,28.1929 283.6094,27.646 Q283.4844,27.0835 283.3438,26.5054 Q283.2344,27.0835 283.0938,27.646 Q282.9531,28.1929 282.8281,28.771 Z " fill="#000000"/><text fill="#000000" font-family="sans-serif" font-size="14" font-style="italic" lengthAdjust="spacing" textLength="61" x="303.75" y="26.9659">Expresi&#243;n</text><text fill="#000000" font-family="sans-serif" font-size="14" font-style="italic" lengthAdjust="spacing" textLength="49" x="309.75" y="46.0339">Regular</text><line style="stroke:#181818;stroke-width:0.5;" x1="229" x2="407" y1="55.1358" y2="55.1358"/><text fill="#000000" font-family="sans-serif" font-size="11" lengthAdjust="spacing" textLength="168" x="234" y="70.8947">Patr&#243;n de b&#250;squeda compuesto</text><text fill="#000000" font-family="sans-serif" font-size="11" lengthAdjust="spacing" textLength="154" x="234" y="85.8766">por literales y metacaracteres</text></g><!--class QUANT--><g id="elem_QUANT"><rect codeLine="14" fill="#F1F1F1" height="69.9638" id="QUANT" rx="2.5" ry="2.5" style="stroke:#181818;stroke-width:0.5;" width="142" x="318" y="245.1"/><ellipse cx="338.4" cy="261.1" fill="#A9DCDF" rx="11" ry="11" style="stroke:#181818;stroke-width:1.0;"/><path d="M333.5719,266.85 L336.9156,254.6625 L340.0563,254.6625 L343.4313,266.85 L340.9625,266.85 L340.2281,263.8344 L336.7125,263.8344 L335.9625,266.85 L333.5719,266.85 Z M337.9781,258.8031 L337.2281,261.8031 L339.7438,261.8031 L339.025,258.8031 Q338.8844,258.225 338.7594,257.6781 Q338.6344,257.1156 338.4938,256.5375 Q338.3844,257.1156 338.2438,257.6781 Q338.1031,258.225 337.9781,258.8031 Z " fill="#000000"/><text fill="#000000" font-family="sans-serif" font-size="14" font-style="italic" lengthAdjust="spacing" textLength="98" x="353.6" y="266.532">Cuantificadores</text><line style="stroke:#181818;stroke-width:0.5;" x1="319" x2="459" y1="277.1" y2="277.1"/><text fill="#000000" font-family="sans-serif" font-size="11" lengthAdjust="spacing" textLength="120" x="324" y="292.8589">Controlan repeticiones</text><text fill="#000000" font-family="sans-serif" font-size="11" lengthAdjust="spacing" textLength="130" x="324" y="307.8408">del elemento precedente</text></g><!--class LIT--><g id="elem_LIT"><rect codeLine="19" fill="#F1F1F1" height="32" id="LIT" rx="2.5" ry="2.5" style="stroke:#181818;stroke-width:0.5;" width="86" x="204" y="153.1"/><ellipse cx="219" cy="169.1" fill="#A9DCDF" rx="11" ry="11" style="stroke:#181818;stroke-width:1.0;"/><path d="M214.1719,174.85 L217.5156,162.6625 L220.6563,162.6625 L224.0313,174.85 L221.5625,174.85 L220.8281,171.8344 L217.3125,171.8344 L216.5625,174.85 L214.1719,174.85 Z M218.5781,166.8031 L217.8281,169.8031 L220.3438,169.8031 L219.625,166.8031 Q219.4844,166.225 219.3594,165.6781 Q219.2344,165.1156 219.0938,164.5375 Q218.9844,165.1156 218.8438,165.6781 Q218.7031,166.225 218.5781,166.8031 Z " fill="#000000"/><text fill="#000000" font-family="sans-serif" font-size="14" font-style="italic" lengthAdjust="spacing" textLength="54" x="233" y="174.532">Literales</text></g><!--class META--><g id="elem_META"><rect codeLine="20" fill="#F1F1F1" height="32" id="META" rx="2.5" ry="2.5" style="stroke:#181818;stroke-width:0.5;" width="129" x="324.5" y="153.1"/><ellipse cx="339.5" cy="169.1" fill="#A9DCDF" rx="11" ry="11" style="stroke:#181818;stroke-width:1.0;"/><path d="M334.6719,174.85 L338.0156,162.6625 L341.1563,162.6625 L344.5313,174.85 L342.0625,174.85 L341.3281,171.8344 L337.8125,171.8344 L337.0625,174.85 L334.6719,174.85 Z M339.0781,166.8031 L338.3281,169.8031 L340.8438,169.8031 L340.125,166.8031 Q339.9844,166.225 339.8594,165.6781 Q339.7344,165.1156 339.5938,164.5375 Q339.4844,165.1156 339.3438,165.6781 Q339.2031,166.225 339.0781,166.8031 Z " fill="#000000"/><text fill="#000000" font-family="sans-serif" font-size="14" font-style="italic" lengthAdjust="spacing" textLength="97" x="353.5" y="174.532">Metacaracteres</text></g><!--class GREEDY--><g id="elem_GREEDY"><rect codeLine="22" fill="#F1F1F1" height="98.1856" id="GREEDY" rx="2.5" ry="2.5" style="stroke:#181818;stroke-width:0.5;" width="268" x="7" y="375.06"/><ellipse cx="109.25" cy="399.1279" fill="#ADD1B2" rx="11" ry="11" style="stroke:#181818;stroke-width:1.0;"/><path d="M108.7188,406.0498 Q106.9688,406.0498 105.8281,405.3154 Q104.7031,404.5654 104.1406,403.2217 Q103.5938,401.8623 103.5938,400.0654 Q103.5938,398.0342 104.25,396.581 Q104.9063,395.1279 106.1875,394.3467 Q107.4688,393.5654 109.3438,393.5654 Q110.2344,393.5654 110.9063,393.7529 Q111.5781,393.9248 112.2656,394.2685 L111.4531,396.2842 Q110.8281,395.9717 110.2813,395.8467 Q109.75,395.7217 109.2656,395.7217 Q108.0938,395.7217 107.3906,396.2529 Q106.6875,396.7842 106.3906,397.7373 Q106.0938,398.6904 106.0938,399.956 Q106.0938,401.9717 106.8125,402.9404 Q107.5313,403.8935 109.125,403.8935 Q109.7188,403.8935 110.3438,403.7373 Q110.9688,403.581 111.7969,403.206 L111.7969,405.4248 Q111.0625,405.7373 110.2656,405.8935 Q109.4844,406.0498 108.7188,406.0498 Z " fill="#000000"/><text fill="#000000" font-family="sans-serif" font-size="14" lengthAdjust="spacing" textLength="52" x="131.25" y="395.0259">Voraces</text><text fill="#000000" font-family="sans-serif" font-size="14" lengthAdjust="spacing" textLength="55" x="129.75" y="414.0939">(greedy)</text><line style="stroke:#181818;stroke-width:0.5;" x1="8" x2="274" y1="423.1958" y2="423.1958"/><text fill="#000000" font-family="monospace" font-size="14" lengthAdjust="spacing" textLength="256" x="13" y="442.1618">*&#160;(0+)&#160;&#160;+&#160;(1+)&#160;&#160;?&#160;(0&#160;o&#160;1)&#160;&#160;{n,m}</text><line style="stroke:#181818;stroke-width:1.0;" x1="8" x2="274" y1="450.2638" y2="450.2638"/><text fill="#000000" font-family="sans-serif" font-size="11" lengthAdjust="spacing" textLength="149" x="13" y="466.0227">M&#225;xima coincidencia posible</text></g><!--class LAZY--><g id="elem_LAZY"><rect codeLine="28" fill="#F1F1F1" height="98.1856" id="LAZY" rx="2.5" ry="2.5" style="stroke:#181818;stroke-width:0.5;" width="159" x="309.5" y="375.06"/><ellipse cx="351.5" cy="399.1279" fill="#ADD1B2" rx="11" ry="11" style="stroke:#181818;stroke-width:1.0;"/><path d="M350.9688,406.0498 Q349.2188,406.0498 348.0781,405.3154 Q346.9531,404.5654 346.3906,403.2217 Q345.8438,401.8623 345.8438,400.0654 Q345.8438,398.0342 346.5,396.581 Q347.1563,395.1279 348.4375,394.3467 Q349.7188,393.5654 351.5938,393.5654 Q352.4844,393.5654 353.1563,393.7529 Q353.8281,393.9248 354.5156,394.2685 L353.7031,396.2842 Q353.0781,395.9717 352.5313,395.8467 Q352,395.7217 351.5156,395.7217 Q350.3438,395.7217 349.6406,396.2529 Q348.9375,396.7842 348.6406,397.7373 Q348.3438,398.6904 348.3438,399.956 Q348.3438,401.9717 349.0625,402.9404 Q349.7813,403.8935 351.375,403.8935 Q351.9688,403.8935 352.5938,403.7373 Q353.2188,403.581 354.0469,403.206 L354.0469,405.4248 Q353.3125,405.7373 352.5156,405.8935 Q351.7344,406.0498 350.9688,406.0498 Z " fill="#000000"/><text fill="#000000" font-family="sans-serif" font-size="14" lengthAdjust="spacing" textLength="67" x="371.5" y="395.0259">Perezosos</text><text fill="#000000" font-family="sans-serif" font-size="14" lengthAdjust="spacing" textLength="34" x="388" y="414.0939">(lazy)</text><line style="stroke:#181818;stroke-width:0.5;" x1="310.5" x2="467.5" y1="423.1958" y2="423.1958"/><text fill="#000000" font-family="monospace" font-size="14" lengthAdjust="spacing" textLength="144" x="315.5" y="442.1618">*?&#160;&#160;+?&#160;&#160;??&#160;&#160;{n,m}?</text><line style="stroke:#181818;stroke-width:1.0;" x1="310.5" x2="467.5" y1="450.2638" y2="450.2638"/><text fill="#000000" font-family="sans-serif" font-size="11" lengthAdjust="spacing" textLength="147" x="315.5" y="466.0227">M&#237;nima coincidencia posible</text></g><!--class POSS--><g id="elem_POSS"><rect codeLine="34" fill="#F1F1F1" height="82.0498" id="POSS" rx="2.5" ry="2.5" style="stroke:#181818;stroke-width:0.5;" width="156" x="504" y="383.13"/><ellipse cx="546" cy="399.13" fill="#ADD1B2" rx="11" ry="11" style="stroke:#181818;stroke-width:1.0;"/><path d="M545.4688,406.0519 Q543.7188,406.0519 542.5781,405.3175 Q541.4531,404.5675 540.8906,403.2238 Q540.3438,401.8644 540.3438,400.0675 Q540.3438,398.0363 541,396.5831 Q541.6563,395.13 542.9375,394.3488 Q544.2188,393.5675 546.0938,393.5675 Q546.9844,393.5675 547.6563,393.755 Q548.3281,393.9269 549.0156,394.2706 L548.2031,396.2863 Q547.5781,395.9738 547.0313,395.8488 Q546.5,395.7238 546.0156,395.7238 Q544.8438,395.7238 544.1406,396.255 Q543.4375,396.7863 543.1406,397.7394 Q542.8438,398.6925 542.8438,399.9581 Q542.8438,401.9738 543.5625,402.9425 Q544.2813,403.8956 545.875,403.8956 Q546.4688,403.8956 547.0938,403.7394 Q547.7188,403.5831 548.5469,403.2081 L548.5469,405.4269 Q547.8125,405.7394 547.0156,405.8956 Q546.2344,406.0519 545.4688,406.0519 Z " fill="#000000"/><text fill="#000000" font-family="sans-serif" font-size="14" lengthAdjust="spacing" textLength="64" x="566" y="404.562">Posesivos</text><line style="stroke:#181818;stroke-width:0.5;" x1="505" x2="659" y1="415.13" y2="415.13"/><text fill="#000000" font-family="monospace" font-size="14" lengthAdjust="spacing" textLength="144" x="510" y="434.0959">*+&#160;&#160;++&#160;&#160;?+&#160;&#160;{n,m}+</text><line style="stroke:#181818;stroke-width:1.0;" x1="505" x2="659" y1="442.1979" y2="442.1979"/><text fill="#000000" font-family="sans-serif" font-size="11" lengthAdjust="spacing" textLength="144" x="510" y="457.9568">sin retroceso (backtracking)</text></g><!--reverse link RE to LIT--><g id="link_RE_LIT"><path codeLine="40" d="M283.0348,108.7001 C270.4848,129.3901 265.48,137.64 256.34,152.71 " fill="none" id="RE-backto-LIT" style="stroke:#181818;stroke-width:1.0;"/><polygon fill="none" points="292.37,93.31,277.9048,105.5883,288.1648,111.8118,292.37,93.31" style="stroke:#181818;stroke-width:1.0;"/></g><!--reverse link RE to META--><g id="link_RE_META"><path codeLine="41" d="M352.9652,108.7001 C365.5152,129.3901 370.52,137.64 379.66,152.71 " fill="none" id="RE-backto-META" style="stroke:#181818;stroke-width:1.0;"/><polygon fill="none" points="343.63,93.31,347.8352,111.8118,358.0952,105.5883,343.63,93.31" style="stroke:#181818;stroke-width:1.0;"/></g><!--link LIT to META--><!--reverse link META to QUANT--><g id="link_META_QUANT"><path codeLine="45" d="M389,203.25 C389,218.58 389,224.79 389,244.78 " fill="none" id="META-backto-QUANT" style="stroke:#181818;stroke-width:1.0;"/><polygon fill="none" points="389,185.25,383,203.25,395,203.25,389,185.25" style="stroke:#181818;stroke-width:1.0;"/></g><!--reverse link QUANT to GREEDY--><g id="link_QUANT_GREEDY"><path codeLine="47" d="M313.3509,324.4168 C282.3809,342.1568 259.71,355.15 225.78,374.59 " fill="none" id="QUANT-backto-GREEDY" style="stroke:#181818;stroke-width:1.0;"/><polygon fill="none" points="328.97,315.47,310.3687,319.2104,316.3332,329.6231,328.97,315.47" style="stroke:#181818;stroke-width:1.0;"/></g><!--reverse link QUANT to LAZY--><g id="link_QUANT_LAZY"><path codeLine="48" d="M389,333.47 C389,351.21 389,355.15 389,374.59 " fill="none" id="QUANT-backto-LAZY" style="stroke:#181818;stroke-width:1.0;"/><polygon fill="none" points="389,315.47,383,333.47,395,333.47,389,315.47" style="stroke:#181818;stroke-width:1.0;"/></g><!--reverse link QUANT to POSS--><g id="link_QUANT_POSS"><path codeLine="49" d="M450.2154,326.1417 C477.7754,346.4317 498.29,361.53 527.15,382.78 " fill="none" id="QUANT-backto-POSS" style="stroke:#181818;stroke-width:1.0;"/><polygon fill="none" points="435.72,315.47,446.6581,330.9735,453.7726,321.3099,435.72,315.47" style="stroke:#181818;stroke-width:1.0;"/></g><!--link GREEDY to LAZY--><!--link LAZY to POSS--><!--SRC=[bPF1RXCn48RlVefHBabOLgLN56KLbO2GaXBIW0IKWzSxIQrwxSNsegQb3yC3SEB6DI_6sDcGRQiKEEp6dfrnld_cTzTTIbrnoqjGKgDVLmYLKUkmOLs5Im_UW9Mh2m-5j2YyD9frBsI18AGL2bbSOrdvDPHOvcZP_aoXk7CZxwtCQuylZVQdl4GeZJQkuWAB-xb_KXpNBdLevP8ndZjlkV3G6LzL5ftS_DJdUewhMd7R0UvWFeOR1Z1OKldpVUbmuEfyEEFUKWKGPhxvvRxKM70GfgngTDuCZaBEu2YK3W-UKHbB3V9ekK87GQddWWSe9A2xPzosYKzghhrSIi4BGvcHzksxqUdY4U0J2bgZk0QB5NefgEVt_-HGRO4AK669ckP6pQ8Uqn8V8PpiP4MsoUj5wzlqZioOC1qlHep5OK7dlQ5lwCvrRsKHYtK_fhoQZySlFhG4xkSzV0AzPqaV887USVZDQ0y6Zcbvev-MjtjzQPeUL3dTVB-IPPYYr8ByHozEldKoLm-bDgmpad1jd0cqYbyth9FHnqEa6L7IasKDMlQlR3_qVxCPHxR-QhOjdhqvEpl0b10JFLdIC2NDMV0NA2U3cSXLD2q3lPoBop1Ykdoh_WCekas3RsaQlR1RRyTE4KW_qOqdMP_jBXhUswpeRCQs1e-HhHVQaT3nzZwePQpnJFlmc1Zdqux6zDy0]--></g></svg>